<svg width="240" height="94" viewBox="0 0 240 94" fill="none" xmlns="http://www.w3.org/2000/svg">
<path d="M20.0077 0H13.3511V6.6566H20.0077V0Z" fill="#2B1805"/>
<path d="M26.6644 0H20.0078V6.6566H26.6644V0Z" fill="#2B1805"/>
<path d="M33.3209 0H26.6643V6.6566H33.3209V0Z" fill="#2B1805"/>
<path d="M39.9776 0H33.321V6.6566H39.9776V0Z" fill="#2B1805"/>
<path d="M46.6722 0H40.0156V6.6566H46.6722V0Z" fill="#2B1805"/>
<path d="M53.3287 0H46.6721V6.6566H53.3287V0Z" fill="#2B1805"/>
<path d="M59.9855 0H53.3289V6.6566H59.9855V0Z" fill="#2B1805"/>
<path d="M66.642 0H59.9854V6.6566H66.642V0Z" fill="#2B1805"/>
<path d="M73.3368 0H66.6802V6.6566H73.3368V0Z" fill="#2B1805"/>
<path d="M79.9933 0H73.3367V6.6566H79.9933V0Z" fill="#2B1805"/>
<path d="M86.6498 0H79.9932V6.6566H86.6498V0Z" fill="#2B1805"/>
<path d="M93.3065 0H86.6499V6.6566H93.3065V0Z" fill="#2B1805"/>
<path d="M100.001 0H93.3445V6.6566H100.001V0Z" fill="#2B1805"/>
<path d="M106.658 0H100.001V6.6566H106.658V0Z" fill="#2B1805"/>
<path d="M113.315 0H106.658V6.6566H113.315V0Z" fill="#2B1805"/>
<path d="M119.971 0H113.314V6.6566H119.971V0Z" fill="#2B1805"/>
<path d="M126.666 0H120.009V6.6566H126.666V0Z" fill="#2B1805"/>
<path d="M133.322 0H126.666V6.6566H133.322V0Z" fill="#2B1805"/>
<path d="M139.979 0H133.322V6.6566H139.979V0Z" fill="#2B1805"/>
<path d="M146.635 0H139.979V6.6566H146.635V0Z" fill="#2B1805"/>
<path d="M153.33 0H146.674V6.6566H153.33V0Z" fill="#2B1805"/>
<path d="M159.987 0H153.33V6.6566H159.987V0Z" fill="#2B1805"/>
<path d="M166.643 0H159.987V6.6566H166.643V0Z" fill="#2B1805"/>
<path d="M173.3 0H166.643V6.6566H173.3V0Z" fill="#2B1805"/>
<path d="M179.994 0H173.338V6.6566H179.994V0Z" fill="#2B1805"/>
<path d="M186.651 0H179.994V6.6566H186.651V0Z" fill="#2B1805"/>
<path d="M193.308 0H186.651V6.6566H193.308V0Z" fill="#2B1805"/>
<path d="M199.964 0H193.308V6.6566H199.964V0Z" fill="#2B1805"/>
<path d="M206.659 0H200.002V6.6566H206.659V0Z" fill="#2B1805"/>
<path d="M213.316 0H206.659V6.6566H213.316V0Z" fill="#2B1805"/>
<path d="M219.972 0H213.315V6.6566H219.972V0Z" fill="#2B1805"/>
<path d="M226.629 0H219.972V6.6566H226.629V0Z" fill="#2B1805"/>
<path d="M13.3131 6.65674H6.65649V13.3133H13.3131V6.65674Z" fill="#2B1805"/>
<path d="M20.0077 6.65674H13.3511V13.3133H20.0077V6.65674Z" fill="#9AE56A"/>
<path d="M26.6644 6.65674H20.0078V13.3133H26.6644V6.65674Z" fill="#9AE56A"/>
<path d="M33.3209 6.65674H26.6643V13.3133H33.3209V6.65674Z" fill="#9AE56A"/>
<path d="M39.9776 6.65674H33.321V13.3133H39.9776V6.65674Z" fill="#9AE56A"/>
<path d="M46.6722 6.65674H40.0156V13.3133H46.6722V6.65674Z" fill="#9AE56A"/>
<path d="M53.3287 6.65674H46.6721V13.3133H53.3287V6.65674Z" fill="#9AE56A"/>
<path d="M59.9855 6.65674H53.3289V13.3133H59.9855V6.65674Z" fill="#9AE56A"/>
<path d="M66.642 6.65674H59.9854V13.3133H66.642V6.65674Z" fill="#9AE56A"/>
<path d="M73.3368 6.65674H66.6802V13.3133H73.3368V6.65674Z" fill="#9AE56A"/>
<path d="M79.9933 6.65674H73.3367V13.3133H79.9933V6.65674Z" fill="#9AE56A"/>
<path d="M86.6498 6.65674H79.9932V13.3133H86.6498V6.65674Z" fill="#9AE56A"/>
<path d="M93.3065 6.65674H86.6499V13.3133H93.3065V6.65674Z" fill="#9AE56A"/>
<path d="M100.001 6.65674H93.3445V13.3133H100.001V6.65674Z" fill="#9AE56A"/>
<path d="M106.658 6.65674H100.001V13.3133H106.658V6.65674Z" fill="#9AE56A"/>
<path d="M113.315 6.65674H106.658V13.3133H113.315V6.65674Z" fill="#9AE56A"/>
<path d="M119.971 6.65674H113.314V13.3133H119.971V6.65674Z" fill="#9AE56A"/>
<path d="M126.666 6.65674H120.009V13.3133H126.666V6.65674Z" fill="#9AE56A"/>
<path d="M133.322 6.65674H126.666V13.3133H133.322V6.65674Z" fill="#9AE56A"/>
<path d="M139.979 6.65674H133.322V13.3133H139.979V6.65674Z" fill="#9AE56A"/>
<path d="M146.635 6.65674H139.979V13.3133H146.635V6.65674Z" fill="#9AE56A"/>
<path d="M153.33 6.65674H146.674V13.3133H153.33V6.65674Z" fill="#9AE56A"/>
<path d="M159.987 6.65674H153.33V13.3133H159.987V6.65674Z" fill="#9AE56A"/>
<path d="M166.643 6.65674H159.987V13.3133H166.643V6.65674Z" fill="#9AE56A"/>
<path d="M173.3 6.65674H166.643V13.3133H173.3V6.65674Z" fill="#9AE56A"/>
<path d="M179.994 6.65674H173.338V13.3133H179.994V6.65674Z" fill="#9AE56A"/>
<path d="M186.651 6.65674H179.994V13.3133H186.651V6.65674Z" fill="#9AE56A"/>
<path d="M193.308 6.65674H186.651V13.3133H193.308V6.65674Z" fill="#9AE56A"/>
<path d="M199.964 6.65674H193.308V13.3133H199.964V6.65674Z" fill="#9AE56A"/>
<path d="M206.659 6.65674H200.002V13.3133H206.659V6.65674Z" fill="#9AE56A"/>
<path d="M213.316 6.65674H206.659V13.3133H213.316V6.65674Z" fill="#9AE56A"/>
<path d="M219.972 6.65674H213.315V13.3133H219.972V6.65674Z" fill="#9AE56A"/>
<path d="M226.629 6.65674H219.972V13.3133H226.629V6.65674Z" fill="#9AE56A"/>
<path d="M233.323 6.65674H226.667V13.3133H233.323V6.65674Z" fill="#2B1805"/>
<path d="M6.6566 13.3132H0V19.9698H6.6566V13.3132Z" fill="#2B1805"/>
<path d="M13.3131 13.3132H6.65649V19.9698H13.3131V13.3132Z" fill="#9AE56A"/>
<path d="M20.0077 13.3132H13.3511V19.9698H20.0077V13.3132Z" fill="#9AE56A"/>
<path d="M26.6644 13.3132H20.0078V19.9698H26.6644V13.3132Z" fill="#9AE56A"/>
<path d="M33.3209 13.3132H26.6643V19.9698H33.3209V13.3132Z" fill="#9AE56A"/>
<path d="M39.9776 13.3132H33.321V19.9698H39.9776V13.3132Z" fill="#9AE56A"/>
<path d="M46.6722 13.3132H40.0156V19.9698H46.6722V13.3132Z" fill="#9AE56A"/>
<path d="M53.3287 13.3132H46.6721V19.9698H53.3287V13.3132Z" fill="#9AE56A"/>
<path d="M59.9855 13.3132H53.3289V19.9698H59.9855V13.3132Z" fill="#9AE56A"/>
<path d="M66.642 13.3132H59.9854V19.9698H66.642V13.3132Z" fill="#9AE56A"/>
<path d="M73.3368 13.3132H66.6802V19.9698H73.3368V13.3132Z" fill="#9AE56A"/>
<path d="M79.9933 13.3132H73.3367V19.9698H79.9933V13.3132Z" fill="#9AE56A"/>
<path d="M86.6498 13.3132H79.9932V19.9698H86.6498V13.3132Z" fill="#9AE56A"/>
<path d="M93.3065 13.3132H86.6499V19.9698H93.3065V13.3132Z" fill="#9AE56A"/>
<path d="M100.001 13.3132H93.3445V19.9698H100.001V13.3132Z" fill="#9AE56A"/>
<path d="M106.658 13.3132H100.001V19.9698H106.658V13.3132Z" fill="#9AE56A"/>
<path d="M113.315 13.3132H106.658V19.9698H113.315V13.3132Z" fill="#9AE56A"/>
<path d="M119.971 13.3132H113.314V19.9698H119.971V13.3132Z" fill="#9AE56A"/>
<path d="M126.666 13.3132H120.009V19.9698H126.666V13.3132Z" fill="#9AE56A"/>
<path d="M133.322 13.3132H126.666V19.9698H133.322V13.3132Z" fill="#9AE56A"/>
<path d="M139.979 13.3132H133.322V19.9698H139.979V13.3132Z" fill="#9AE56A"/>
<path d="M146.635 13.3132H139.979V19.9698H146.635V13.3132Z" fill="#9AE56A"/>
<path d="M153.33 13.3132H146.674V19.9698H153.33V13.3132Z" fill="#9AE56A"/>
<path d="M159.987 13.3132H153.33V19.9698H159.987V13.3132Z" fill="#9AE56A"/>
<path d="M166.643 13.3132H159.987V19.9698H166.643V13.3132Z" fill="#9AE56A"/>
<path d="M173.3 13.3132H166.643V19.9698H173.3V13.3132Z" fill="#9AE56A"/>
<path d="M179.994 13.3132H173.338V19.9698H179.994V13.3132Z" fill="#9AE56A"/>
<path d="M186.651 13.3132H179.994V19.9698H186.651V13.3132Z" fill="#9AE56A"/>
<path d="M193.308 13.3132H186.651V19.9698H193.308V13.3132Z" fill="#9AE56A"/>
<path d="M199.964 13.3132H193.308V19.9698H199.964V13.3132Z" fill="#9AE56A"/>
<path d="M206.659 13.3132H200.002V19.9698H206.659V13.3132Z" fill="#9AE56A"/>
<path d="M213.316 13.3132H206.659V19.9698H213.316V13.3132Z" fill="#9AE56A"/>
<path d="M219.972 13.3132H213.315V19.9698H219.972V13.3132Z" fill="#9AE56A"/>
<path d="M226.629 13.3132H219.972V19.9698H226.629V13.3132Z" fill="#9AE56A"/>
<path d="M233.323 13.3132H226.667V19.9698H233.323V13.3132Z" fill="#BBF995"/>
<path d="M239.98 13.3132H233.323V19.9698H239.98V13.3132Z" fill="#2B1805"/>
<path d="M6.6566 13.3132H0V19.9698H6.6566V13.3132Z" fill="#2B1805"/>
<path d="M13.3131 13.3132H6.65649V19.9698H13.3131V13.3132Z" fill="#9AE56A"/>
<path d="M20.0077 13.3132H13.3511V19.9698H20.0077V13.3132Z" fill="#9AE56A"/>
<path d="M26.6644 13.3132H20.0078V19.9698H26.6644V13.3132Z" fill="#9AE56A"/>
<path d="M33.3209 13.3132H26.6643V19.9698H33.3209V13.3132Z" fill="#9AE56A"/>
<path d="M39.9776 13.3132H33.321V19.9698H39.9776V13.3132Z" fill="#9AE56A"/>
<path d="M46.6722 13.3132H40.0156V19.9698H46.6722V13.3132Z" fill="#9AE56A"/>
<path d="M53.3287 13.3132H46.6721V19.9698H53.3287V13.3132Z" fill="#9AE56A"/>
<path d="M59.9855 13.3132H53.3289V19.9698H59.9855V13.3132Z" fill="#9AE56A"/>
<path d="M66.642 13.3132H59.9854V19.9698H66.642V13.3132Z" fill="#9AE56A"/>
<path d="M73.3368 13.3132H66.6802V19.9698H73.3368V13.3132Z" fill="#9AE56A"/>
<path d="M79.9933 13.3132H73.3367V19.9698H79.9933V13.3132Z" fill="#9AE56A"/>
<path d="M86.6498 13.3132H79.9932V19.9698H86.6498V13.3132Z" fill="#9AE56A"/>
<path d="M93.3065 13.3132H86.6499V19.9698H93.3065V13.3132Z" fill="#9AE56A"/>
<path d="M100.001 13.3132H93.3445V19.9698H100.001V13.3132Z" fill="#9AE56A"/>
<path d="M106.658 13.3132H100.001V19.9698H106.658V13.3132Z" fill="#9AE56A"/>
<path d="M113.315 13.3132H106.658V19.9698H113.315V13.3132Z" fill="#9AE56A"/>
<path d="M119.971 13.3132H113.314V19.9698H119.971V13.3132Z" fill="#9AE56A"/>
<path d="M126.666 13.3132H120.009V19.9698H126.666V13.3132Z" fill="#9AE56A"/>
<path d="M133.322 13.3132H126.666V19.9698H133.322V13.3132Z" fill="#9AE56A"/>
<path d="M139.979 13.3132H133.322V19.9698H139.979V13.3132Z" fill="#9AE56A"/>
<path d="M146.635 13.3132H139.979V19.9698H146.635V13.3132Z" fill="#9AE56A"/>
<path d="M153.33 13.3132H146.674V19.9698H153.33V13.3132Z" fill="#9AE56A"/>
<path d="M159.987 13.3132H153.33V19.9698H159.987V13.3132Z" fill="#9AE56A"/>
<path d="M166.643 13.3132H159.987V19.9698H166.643V13.3132Z" fill="#9AE56A"/>
<path d="M173.3 13.3132H166.643V19.9698H173.3V13.3132Z" fill="#9AE56A"/>
<path d="M179.994 13.3132H173.338V19.9698H179.994V13.3132Z" fill="#9AE56A"/>
<path d="M186.651 13.3132H179.994V19.9698H186.651V13.3132Z" fill="#9AE56A"/>
<path d="M193.308 13.3132H186.651V19.9698H193.308V13.3132Z" fill="#9AE56A"/>
<path d="M199.964 13.3132H193.308V19.9698H199.964V13.3132Z" fill="#9AE56A"/>
<path d="M206.659 13.3132H200.002V19.9698H206.659V13.3132Z" fill="#9AE56A"/>
<path d="M213.316 13.3132H206.659V19.9698H213.316V13.3132Z" fill="#9AE56A"/>
<path d="M219.972 13.3132H213.315V19.9698H219.972V13.3132Z" fill="#9AE56A"/>
<path d="M226.629 13.3132H219.972V19.9698H226.629V13.3132Z" fill="#9AE56A"/>
<path d="M233.323 13.3132H226.667V19.9698H233.323V13.3132Z" fill="#BBF995"/>
<path d="M239.98 13.3132H233.323V19.9698H239.98V13.3132Z" fill="#2B1805"/>
<path d="M6.6566 20.0078H0V26.6644H6.6566V20.0078Z" fill="#2B1805"/>
<path d="M13.3131 20.0078H6.65649V26.6644H13.3131V20.0078Z" fill="#9AE56A"/>
<path d="M20.0077 20.0078H13.3511V26.6644H20.0077V20.0078Z" fill="#9AE56A"/>
<path d="M26.6644 20.0078H20.0078V26.6644H26.6644V20.0078Z" fill="#9AE56A"/>
<path d="M33.3209 20.0078H26.6643V26.6644H33.3209V20.0078Z" fill="#9AE56A"/>
<path d="M39.9776 20.0078H33.321V26.6644H39.9776V20.0078Z" fill="#9AE56A"/>
<path d="M46.6722 20.0078H40.0156V26.6644H46.6722V20.0078Z" fill="#9AE56A"/>
<path d="M53.3287 20.0078H46.6721V26.6644H53.3287V20.0078Z" fill="#9AE56A"/>
<path d="M59.9855 20.0078H53.3289V26.6644H59.9855V20.0078Z" fill="#9AE56A"/>
<path d="M66.642 20.0078H59.9854V26.6644H66.642V20.0078Z" fill="#9AE56A"/>
<path d="M73.3368 20.0078H66.6802V26.6644H73.3368V20.0078Z" fill="#9AE56A"/>
<path d="M79.9933 20.0078H73.3367V26.6644H79.9933V20.0078Z" fill="#9AE56A"/>
<path d="M86.6498 20.0078H79.9932V26.6644H86.6498V20.0078Z" fill="#9AE56A"/>
<path d="M93.3065 20.0078H86.6499V26.6644H93.3065V20.0078Z" fill="#9AE56A"/>
<path d="M100.001 20.0078H93.3445V26.6644H100.001V20.0078Z" fill="#9AE56A"/>
<path d="M106.658 20.0078H100.001V26.6644H106.658V20.0078Z" fill="#9AE56A"/>
<path d="M113.315 20.0078H106.658V26.6644H113.315V20.0078Z" fill="#9AE56A"/>
<path d="M119.971 20.0078H113.314V26.6644H119.971V20.0078Z" fill="#9AE56A"/>
<path d="M126.666 20.0078H120.009V26.6644H126.666V20.0078Z" fill="#9AE56A"/>
<path d="M133.322 20.0078H126.666V26.6644H133.322V20.0078Z" fill="#9AE56A"/>
<path d="M139.979 20.0078H133.322V26.6644H139.979V20.0078Z" fill="#9AE56A"/>
<path d="M146.635 20.0078H139.979V26.6644H146.635V20.0078Z" fill="#9AE56A"/>
<path d="M153.33 20.0078H146.674V26.6644H153.33V20.0078Z" fill="#9AE56A"/>
<path d="M159.987 20.0078H153.33V26.6644H159.987V20.0078Z" fill="#9AE56A"/>
<path d="M166.643 20.0078H159.987V26.6644H166.643V20.0078Z" fill="#9AE56A"/>
<path d="M173.3 20.0078H166.643V26.6644H173.3V20.0078Z" fill="#9AE56A"/>
<path d="M179.994 20.0078H173.338V26.6644H179.994V20.0078Z" fill="#9AE56A"/>
<path d="M186.651 20.0078H179.994V26.6644H186.651V20.0078Z" fill="#9AE56A"/>
<path d="M193.308 20.0078H186.651V26.6644H193.308V20.0078Z" fill="#9AE56A"/>
<path d="M199.964 20.0078H193.308V26.6644H199.964V20.0078Z" fill="#9AE56A"/>
<path d="M206.659 20.0078H200.002V26.6644H206.659V20.0078Z" fill="#9AE56A"/>
<path d="M213.316 20.0078H206.659V26.6644H213.316V20.0078Z" fill="#9AE56A"/>
<path d="M219.972 20.0078H213.315V26.6644H219.972V20.0078Z" fill="#9AE56A"/>
<path d="M226.629 20.0078H219.972V26.6644H226.629V20.0078Z" fill="#9AE56A"/>
<path d="M233.323 20.0078H226.667V26.6644H233.323V20.0078Z" fill="#BBF995"/>
<path d="M239.98 20.0078H233.323V26.6644H239.98V20.0078Z" fill="#2B1805"/>
<path d="M6.6566 26.6646H0V33.3212H6.6566V26.6646Z" fill="#2B1805"/>
<path d="M13.3131 26.6646H6.65649V33.3212H13.3131V26.6646Z" fill="#9AE56A"/>
<path d="M20.0077 26.6646H13.3511V33.3212H20.0077V26.6646Z" fill="#9AE56A"/>
<path d="M26.6644 26.6646H20.0078V33.3212H26.6644V26.6646Z" fill="#9AE56A"/>
<path d="M33.3209 26.6646H26.6643V33.3212H33.3209V26.6646Z" fill="#9AE56A"/>
<path d="M39.9776 26.6646H33.321V33.3212H39.9776V26.6646Z" fill="#9AE56A"/>
<path d="M46.6722 26.6646H40.0156V33.3212H46.6722V26.6646Z" fill="#9AE56A"/>
<path d="M53.3287 26.6646H46.6721V33.3212H53.3287V26.6646Z" fill="#9AE56A"/>
<path d="M59.9855 26.6646H53.3289V33.3212H59.9855V26.6646Z" fill="#9AE56A"/>
<path d="M66.642 26.6646H59.9854V33.3212H66.642V26.6646Z" fill="#9AE56A"/>
<path d="M73.3368 26.6646H66.6802V33.3212H73.3368V26.6646Z" fill="#9AE56A"/>
<path d="M79.9933 26.6646H73.3367V33.3212H79.9933V26.6646Z" fill="#9AE56A"/>
<path d="M86.6498 26.6646H79.9932V33.3212H86.6498V26.6646Z" fill="#9AE56A"/>
<path d="M93.3065 26.6646H86.6499V33.3212H93.3065V26.6646Z" fill="#9AE56A"/>
<path d="M100.001 26.6646H93.3445V33.3212H100.001V26.6646Z" fill="#9AE56A"/>
<path d="M106.658 26.6646H100.001V33.3212H106.658V26.6646Z" fill="#9AE56A"/>
<path d="M113.315 26.6646H106.658V33.3212H113.315V26.6646Z" fill="#9AE56A"/>
<path d="M119.971 26.6646H113.314V33.3212H119.971V26.6646Z" fill="#9AE56A"/>
<path d="M126.666 26.6646H120.009V33.3212H126.666V26.6646Z" fill="#9AE56A"/>
<path d="M133.322 26.6646H126.666V33.3212H133.322V26.6646Z" fill="#9AE56A"/>
<path d="M139.979 26.6646H133.322V33.3212H139.979V26.6646Z" fill="#9AE56A"/>
<path d="M146.635 26.6646H139.979V33.3212H146.635V26.6646Z" fill="#9AE56A"/>
<path d="M153.33 26.6646H146.674V33.3212H153.33V26.6646Z" fill="#9AE56A"/>
<path d="M159.987 26.6646H153.33V33.3212H159.987V26.6646Z" fill="#9AE56A"/>
<path d="M166.643 26.6646H159.987V33.3212H166.643V26.6646Z" fill="#9AE56A"/>
<path d="M173.3 26.6646H166.643V33.3212H173.3V26.6646Z" fill="#9AE56A"/>
<path d="M179.994 26.6646H173.338V33.3212H179.994V26.6646Z" fill="#9AE56A"/>
<path d="M186.651 26.6646H179.994V33.3212H186.651V26.6646Z" fill="#9AE56A"/>
<path d="M193.308 26.6646H186.651V33.3212H193.308V26.6646Z" fill="#9AE56A"/>
<path d="M199.964 26.6646H193.308V33.3212H199.964V26.6646Z" fill="#9AE56A"/>
<path d="M206.659 26.6646H200.002V33.3212H206.659V26.6646Z" fill="#9AE56A"/>
<path d="M213.316 26.6646H206.659V33.3212H213.316V26.6646Z" fill="#9AE56A"/>
<path d="M219.972 26.6646H213.315V33.3212H219.972V26.6646Z" fill="#9AE56A"/>
<path d="M226.629 26.6646H219.972V33.3212H226.629V26.6646Z" fill="#9AE56A"/>
<path d="M233.323 26.6646H226.667V33.3212H233.323V26.6646Z" fill="#BBF995"/>
<path d="M239.98 26.6646H233.323V33.3212H239.98V26.6646Z" fill="#2B1805"/>
<path d="M6.6566 33.321H0V39.9776H6.6566V33.321Z" fill="#2B1805"/>
<path d="M13.3131 33.321H6.65649V39.9776H13.3131V33.321Z" fill="#9AE56A"/>
<path d="M20.0077 33.321H13.3511V39.9776H20.0077V33.321Z" fill="#9AE56A"/>
<path d="M26.6644 33.321H20.0078V39.9776H26.6644V33.321Z" fill="#9AE56A"/>
<path d="M33.3209 33.321H26.6643V39.9776H33.3209V33.321Z" fill="#9AE56A"/>
<path d="M39.9776 33.321H33.321V39.9776H39.9776V33.321Z" fill="#9AE56A"/>
<path d="M46.6722 33.321H40.0156V39.9776H46.6722V33.321Z" fill="#9AE56A"/>
<path d="M53.3287 33.321H46.6721V39.9776H53.3287V33.321Z" fill="#9AE56A"/>
<path d="M59.9855 33.321H53.3289V39.9776H59.9855V33.321Z" fill="#9AE56A"/>
<path d="M66.642 33.321H59.9854V39.9776H66.642V33.321Z" fill="#9AE56A"/>
<path d="M73.3368 33.321H66.6802V39.9776H73.3368V33.321Z" fill="#9AE56A"/>
<path d="M79.9933 33.321H73.3367V39.9776H79.9933V33.321Z" fill="#9AE56A"/>
<path d="M86.6498 33.321H79.9932V39.9776H86.6498V33.321Z" fill="#9AE56A"/>
<path d="M93.3065 33.321H86.6499V39.9776H93.3065V33.321Z" fill="#9AE56A"/>
<path d="M100.001 33.321H93.3445V39.9776H100.001V33.321Z" fill="#9AE56A"/>
<path d="M106.658 33.321H100.001V39.9776H106.658V33.321Z" fill="#9AE56A"/>
<path d="M113.315 33.321H106.658V39.9776H113.315V33.321Z" fill="#9AE56A"/>
<path d="M119.971 33.321H113.314V39.9776H119.971V33.321Z" fill="#9AE56A"/>
<path d="M126.666 33.321H120.009V39.9776H126.666V33.321Z" fill="#9AE56A"/>
<path d="M133.322 33.321H126.666V39.9776H133.322V33.321Z" fill="#9AE56A"/>
<path d="M139.979 33.321H133.322V39.9776H139.979V33.321Z" fill="#9AE56A"/>
<path d="M146.635 33.321H139.979V39.9776H146.635V33.321Z" fill="#9AE56A"/>
<path d="M153.33 33.321H146.674V39.9776H153.33V33.321Z" fill="#9AE56A"/>
<path d="M159.987 33.321H153.33V39.9776H159.987V33.321Z" fill="#9AE56A"/>
<path d="M166.643 33.321H159.987V39.9776H166.643V33.321Z" fill="#9AE56A"/>
<path d="M173.3 33.321H166.643V39.9776H173.3V33.321Z" fill="#9AE56A"/>
<path d="M179.994 33.321H173.338V39.9776H179.994V33.321Z" fill="#9AE56A"/>
<path d="M186.651 33.321H179.994V39.9776H186.651V33.321Z" fill="#9AE56A"/>
<path d="M193.308 33.321H186.651V39.9776H193.308V33.321Z" fill="#9AE56A"/>
<path d="M199.964 33.321H193.308V39.9776H199.964V33.321Z" fill="#9AE56A"/>
<path d="M206.659 33.321H200.002V39.9776H206.659V33.321Z" fill="#9AE56A"/>
<path d="M213.316 33.321H206.659V39.9776H213.316V33.321Z" fill="#9AE56A"/>
<path d="M219.972 33.321H213.315V39.9776H219.972V33.321Z" fill="#9AE56A"/>
<path d="M226.629 33.321H219.972V39.9776H226.629V33.321Z" fill="#9AE56A"/>
<path d="M233.323 33.321H226.667V39.9776H233.323V33.321Z" fill="#BBF995"/>
<path d="M239.98 33.321H233.323V39.9776H239.98V33.321Z" fill="#2B1805"/>
<path d="M6.6566 39.9775H0V46.6341H6.6566V39.9775Z" fill="#2B1805"/>
<path d="M13.3131 39.9775H6.65649V46.6341H13.3131V39.9775Z" fill="#9AE56A"/>
<path d="M20.0077 39.9775H13.3511V46.6341H20.0077V39.9775Z" fill="#9AE56A"/>
<path d="M26.6644 39.9775H20.0078V46.6341H26.6644V39.9775Z" fill="#9AE56A"/>
<path d="M33.3209 39.9775H26.6643V46.6341H33.3209V39.9775Z" fill="#9AE56A"/>
<path d="M39.9776 39.9775H33.321V46.6341H39.9776V39.9775Z" fill="#9AE56A"/>
<path d="M46.6722 39.9775H40.0156V46.6341H46.6722V39.9775Z" fill="#9AE56A"/>
<path d="M53.3287 39.9775H46.6721V46.6341H53.3287V39.9775Z" fill="#9AE56A"/>
<path d="M59.9855 39.9775H53.3289V46.6341H59.9855V39.9775Z" fill="#9AE56A"/>
<path d="M66.642 39.9775H59.9854V46.6341H66.642V39.9775Z" fill="#9AE56A"/>
<path d="M73.3368 39.9775H66.6802V46.6341H73.3368V39.9775Z" fill="#9AE56A"/>
<path d="M79.9933 39.9775H73.3367V46.6341H79.9933V39.9775Z" fill="#9AE56A"/>
<path d="M86.6498 39.9775H79.9932V46.6341H86.6498V39.9775Z" fill="#9AE56A"/>
<path d="M93.3065 39.9775H86.6499V46.6341H93.3065V39.9775Z" fill="#9AE56A"/>
<path d="M100.001 39.9775H93.3445V46.6341H100.001V39.9775Z" fill="#9AE56A"/>
<path d="M106.658 39.9775H100.001V46.6341H106.658V39.9775Z" fill="#9AE56A"/>
<path d="M113.315 39.9775H106.658V46.6341H113.315V39.9775Z" fill="#9AE56A"/>
<path d="M119.971 39.9775H113.314V46.6341H119.971V39.9775Z" fill="#9AE56A"/>
<path d="M126.666 39.9775H120.009V46.6341H126.666V39.9775Z" fill="#9AE56A"/>
<path d="M133.322 39.9775H126.666V46.6341H133.322V39.9775Z" fill="#9AE56A"/>
<path d="M139.979 39.9775H133.322V46.6341H139.979V39.9775Z" fill="#9AE56A"/>
<path d="M146.635 39.9775H139.979V46.6341H146.635V39.9775Z" fill="#9AE56A"/>
<path d="M153.33 39.9775H146.674V46.6341H153.33V39.9775Z" fill="#9AE56A"/>
<path d="M159.987 39.9775H153.33V46.6341H159.987V39.9775Z" fill="#9AE56A"/>
<path d="M166.643 39.9775H159.987V46.6341H166.643V39.9775Z" fill="#9AE56A"/>
<path d="M173.3 39.9775H166.643V46.6341H173.3V39.9775Z" fill="#9AE56A"/>
<path d="M179.994 39.9775H173.338V46.6341H179.994V39.9775Z" fill="#9AE56A"/>
<path d="M186.651 39.9775H179.994V46.6341H186.651V39.9775Z" fill="#9AE56A"/>
<path d="M193.308 39.9775H186.651V46.6341H193.308V39.9775Z" fill="#9AE56A"/>
<path d="M199.964 39.9775H193.308V46.6341H199.964V39.9775Z" fill="#9AE56A"/>
<path d="M206.659 39.9775H200.002V46.6341H206.659V39.9775Z" fill="#9AE56A"/>
<path d="M213.316 39.9775H206.659V46.6341H213.316V39.9775Z" fill="#9AE56A"/>
<path d="M219.972 39.9775H213.315V46.6341H219.972V39.9775Z" fill="#9AE56A"/>
<path d="M226.629 39.9775H219.972V46.6341H226.629V39.9775Z" fill="#9AE56A"/>
<path d="M233.323 39.9775H226.667V46.6341H233.323V39.9775Z" fill="#BBF995"/>
<path d="M239.98 39.9775H233.323V46.6341H239.98V39.9775Z" fill="#2B1805"/>
<path d="M6.6566 46.6724H0V53.329H6.6566V46.6724Z" fill="#2B1805"/>
<path d="M13.3131 46.6724H6.65649V53.329H13.3131V46.6724Z" fill="#9AE56A"/>
<path d="M20.0077 46.6724H13.3511V53.329H20.0077V46.6724Z" fill="#9AE56A"/>
<path d="M26.6644 46.6724H20.0078V53.329H26.6644V46.6724Z" fill="#9AE56A"/>
<path d="M33.3209 46.6724H26.6643V53.329H33.3209V46.6724Z" fill="#9AE56A"/>
<path d="M39.9776 46.6724H33.321V53.329H39.9776V46.6724Z" fill="#9AE56A"/>
<path d="M46.6722 46.6724H40.0156V53.329H46.6722V46.6724Z" fill="#9AE56A"/>
<path d="M53.3287 46.6724H46.6721V53.329H53.3287V46.6724Z" fill="#9AE56A"/>
<path d="M59.9855 46.6724H53.3289V53.329H59.9855V46.6724Z" fill="#9AE56A"/>
<path d="M66.642 46.6724H59.9854V53.329H66.642V46.6724Z" fill="#9AE56A"/>
<path d="M73.3368 46.6724H66.6802V53.329H73.3368V46.6724Z" fill="#9AE56A"/>
<path d="M79.9933 46.6724H73.3367V53.329H79.9933V46.6724Z" fill="#9AE56A"/>
<path d="M86.6498 46.6724H79.9932V53.329H86.6498V46.6724Z" fill="#9AE56A"/>
<path d="M93.3065 46.6724H86.6499V53.329H93.3065V46.6724Z" fill="#9AE56A"/>
<path d="M100.001 46.6724H93.3445V53.329H100.001V46.6724Z" fill="#9AE56A"/>
<path d="M106.658 46.6724H100.001V53.329H106.658V46.6724Z" fill="#9AE56A"/>
<path d="M113.315 46.6724H106.658V53.329H113.315V46.6724Z" fill="#9AE56A"/>
<path d="M119.971 46.6724H113.314V53.329H119.971V46.6724Z" fill="#9AE56A"/>
<path d="M126.666 46.6724H120.009V53.329H126.666V46.6724Z" fill="#9AE56A"/>
<path d="M133.322 46.6724H126.666V53.329H133.322V46.6724Z" fill="#9AE56A"/>
<path d="M139.979 46.6724H133.322V53.329H139.979V46.6724Z" fill="#9AE56A"/>
<path d="M146.635 46.6724H139.979V53.329H146.635V46.6724Z" fill="#9AE56A"/>
<path d="M153.33 46.6724H146.674V53.329H153.33V46.6724Z" fill="#9AE56A"/>
<path d="M159.987 46.6724H153.33V53.329H159.987V46.6724Z" fill="#9AE56A"/>
<path d="M166.643 46.6724H159.987V53.329H166.643V46.6724Z" fill="#9AE56A"/>
<path d="M173.3 46.6724H166.643V53.329H173.3V46.6724Z" fill="#9AE56A"/>
<path d="M179.994 46.6724H173.338V53.329H179.994V46.6724Z" fill="#9AE56A"/>
<path d="M186.651 46.6724H179.994V53.329H186.651V46.6724Z" fill="#9AE56A"/>
<path d="M193.308 46.6724H186.651V53.329H193.308V46.6724Z" fill="#9AE56A"/>
<path d="M199.964 46.6724H193.308V53.329H199.964V46.6724Z" fill="#9AE56A"/>
<path d="M206.659 46.6724H200.002V53.329H206.659V46.6724Z" fill="#9AE56A"/>
<path d="M213.316 46.6724H206.659V53.329H213.316V46.6724Z" fill="#9AE56A"/>
<path d="M219.972 46.6724H213.315V53.329H219.972V46.6724Z" fill="#9AE56A"/>
<path d="M226.629 46.6724H219.972V53.329H226.629V46.6724Z" fill="#9AE56A"/>
<path d="M233.323 46.6724H226.667V53.329H233.323V46.6724Z" fill="#BBF995"/>
<path d="M239.98 46.6724H233.323V53.329H239.98V46.6724Z" fill="#2B1805"/>
<path d="M6.6566 53.3289H0V59.9855H6.6566V53.3289Z" fill="#2B1805"/>
<path d="M13.3131 53.3289H6.65649V59.9855H13.3131V53.3289Z" fill="#BBF995"/>
<path d="M20.0077 53.3289H13.3511V59.9855H20.0077V53.3289Z" fill="#9AE56A"/>
<path d="M26.6644 53.3289H20.0078V59.9855H26.6644V53.3289Z" fill="#9AE56A"/>
<path d="M33.3209 53.3289H26.6643V59.9855H33.3209V53.3289Z" fill="#9AE56A"/>
<path d="M39.9776 53.3289H33.321V59.9855H39.9776V53.3289Z" fill="#9AE56A"/>
<path d="M46.6722 53.3289H40.0156V59.9855H46.6722V53.3289Z" fill="#9AE56A"/>
<path d="M53.3287 53.3289H46.6721V59.9855H53.3287V53.3289Z" fill="#9AE56A"/>
<path d="M59.9855 53.3289H53.3289V59.9855H59.9855V53.3289Z" fill="#9AE56A"/>
<path d="M66.642 53.3289H59.9854V59.9855H66.642V53.3289Z" fill="#9AE56A"/>
<path d="M73.3368 53.3289H66.6802V59.9855H73.3368V53.3289Z" fill="#9AE56A"/>
<path d="M79.9933 53.3289H73.3367V59.9855H79.9933V53.3289Z" fill="#9AE56A"/>
<path d="M86.6498 53.3289H79.9932V59.9855H86.6498V53.3289Z" fill="#9AE56A"/>
<path d="M93.3065 53.3289H86.6499V59.9855H93.3065V53.3289Z" fill="#9AE56A"/>
<path d="M100.001 53.3289H93.3445V59.9855H100.001V53.3289Z" fill="#9AE56A"/>
<path d="M106.658 53.3289H100.001V59.9855H106.658V53.3289Z" fill="#9AE56A"/>
<path d="M113.315 53.3289H106.658V59.9855H113.315V53.3289Z" fill="#9AE56A"/>
<path d="M119.971 53.3289H113.314V59.9855H119.971V53.3289Z" fill="#9AE56A"/>
<path d="M126.666 53.3289H120.009V59.9855H126.666V53.3289Z" fill="#9AE56A"/>
<path d="M133.322 53.3289H126.666V59.9855H133.322V53.3289Z" fill="#9AE56A"/>
<path d="M139.979 53.3289H133.322V59.9855H139.979V53.3289Z" fill="#9AE56A"/>
<path d="M146.635 53.3289H139.979V59.9855H146.635V53.3289Z" fill="#9AE56A"/>
<path d="M153.33 53.3289H146.674V59.9855H153.33V53.3289Z" fill="#9AE56A"/>
<path d="M159.987 53.3289H153.33V59.9855H159.987V53.3289Z" fill="#9AE56A"/>
<path d="M166.643 53.3289H159.987V59.9855H166.643V53.3289Z" fill="#9AE56A"/>
<path d="M173.3 53.3289H166.643V59.9855H173.3V53.3289Z" fill="#9AE56A"/>
<path d="M179.994 53.3289H173.338V59.9855H179.994V53.3289Z" fill="#9AE56A"/>
<path d="M186.651 53.3289H179.994V59.9855H186.651V53.3289Z" fill="#9AE56A"/>
<path d="M193.308 53.3289H186.651V59.9855H193.308V53.3289Z" fill="#9AE56A"/>
<path d="M199.964 53.3289H193.308V59.9855H199.964V53.3289Z" fill="#9AE56A"/>
<path d="M206.659 53.3289H200.002V59.9855H206.659V53.3289Z" fill="#9AE56A"/>
<path d="M213.316 53.3289H206.659V59.9855H213.316V53.3289Z" fill="#9AE56A"/>
<path d="M219.972 53.3289H213.315V59.9855H219.972V53.3289Z" fill="#9AE56A"/>
<path d="M226.629 53.3289H219.972V59.9855H226.629V53.3289Z" fill="#9AE56A"/>
<path d="M233.323 53.3289H226.667V59.9855H233.323V53.3289Z" fill="#BBF995"/>
<path d="M239.98 53.3289H233.323V59.9855H239.98V53.3289Z" fill="#2B1805"/>
<path d="M6.6566 59.9854H0V66.642H6.6566V59.9854Z" fill="#2B1805"/>
<path d="M13.3131 59.9854H6.65649V66.642H13.3131V59.9854Z" fill="#75D63C"/>
<path d="M20.0077 59.9854H13.3511V66.642H20.0077V59.9854Z" fill="#BBF995"/>
<path d="M26.6644 59.9854H20.0078V66.642H26.6644V59.9854Z" fill="#BBF995"/>
<path d="M33.3209 59.9854H26.6643V66.642H33.3209V59.9854Z" fill="#BBF995"/>
<path d="M39.9776 59.9854H33.321V66.642H39.9776V59.9854Z" fill="#BBF995"/>
<path d="M46.6722 59.9854H40.0156V66.642H46.6722V59.9854Z" fill="#BBF995"/>
<path d="M53.3287 59.9854H46.6721V66.642H53.3287V59.9854Z" fill="#BBF995"/>
<path d="M59.9855 59.9854H53.3289V66.642H59.9855V59.9854Z" fill="#BBF995"/>
<path d="M66.642 59.9854H59.9854V66.642H66.642V59.9854Z" fill="#BBF995"/>
<path d="M73.3368 59.9854H66.6802V66.642H73.3368V59.9854Z" fill="#BBF995"/>
<path d="M79.9933 59.9854H73.3367V66.642H79.9933V59.9854Z" fill="#BBF995"/>
<path d="M86.6498 59.9854H79.9932V66.642H86.6498V59.9854Z" fill="#BBF995"/>
<path d="M93.3065 59.9854H86.6499V66.642H93.3065V59.9854Z" fill="#BBF995"/>
<path d="M100.001 59.9854H93.3445V66.642H100.001V59.9854Z" fill="#BBF995"/>
<path d="M106.658 59.9854H100.001V66.642H106.658V59.9854Z" fill="#BBF995"/>
<path d="M113.315 59.9854H106.658V66.642H113.315V59.9854Z" fill="#BBF995"/>
<path d="M119.971 59.9854H113.314V66.642H119.971V59.9854Z" fill="#BBF995"/>
<path d="M126.666 59.9854H120.009V66.642H126.666V59.9854Z" fill="#BBF995"/>
<path d="M133.322 59.9854H126.666V66.642H133.322V59.9854Z" fill="#BBF995"/>
<path d="M139.979 59.9854H133.322V66.642H139.979V59.9854Z" fill="#BBF995"/>
<path d="M146.635 59.9854H139.979V66.642H146.635V59.9854Z" fill="#BBF995"/>
<path d="M153.33 59.9854H146.674V66.642H153.33V59.9854Z" fill="#BBF995"/>
<path d="M159.987 59.9854H153.33V66.642H159.987V59.9854Z" fill="#BBF995"/>
<path d="M166.643 59.9854H159.987V66.642H166.643V59.9854Z" fill="#BBF995"/>
<path d="M173.3 59.9854H166.643V66.642H173.3V59.9854Z" fill="#BBF995"/>
<path d="M179.994 59.9854H173.338V66.642H179.994V59.9854Z" fill="#BBF995"/>
<path d="M186.651 59.9854H179.994V66.642H186.651V59.9854Z" fill="#BBF995"/>
<path d="M193.308 59.9854H186.651V66.642H193.308V59.9854Z" fill="#BBF995"/>
<path d="M199.964 59.9854H193.308V66.642H199.964V59.9854Z" fill="#BBF995"/>
<path d="M206.659 59.9854H200.002V66.642H206.659V59.9854Z" fill="#BBF995"/>
<path d="M213.316 59.9854H206.659V66.642H213.316V59.9854Z" fill="#BBF995"/>
<path d="M219.972 59.9854H213.315V66.642H219.972V59.9854Z" fill="#BBF995"/>
<path d="M226.629 59.9854H219.972V66.642H226.629V59.9854Z" fill="#BBF995"/>
<path d="M233.323 59.9854H226.667V66.642H233.323V59.9854Z" fill="#75D63C"/>
<path d="M239.98 59.9854H233.323V66.642H239.98V59.9854Z" fill="#2B1805"/>
<path d="M6.6566 66.6421H0V73.2987H6.6566V66.6421Z" fill="#2B1805"/>
<path d="M13.3131 66.6421H6.65649V73.2987H13.3131V66.6421Z" fill="#75D63C"/>
<path d="M20.0077 66.6421H13.3511V73.2987H20.0077V66.6421Z" fill="#75D63C"/>
<path d="M26.6644 66.6421H20.0078V73.2987H26.6644V66.6421Z" fill="#75D63C"/>
<path d="M33.3209 66.6421H26.6643V73.2987H33.3209V66.6421Z" fill="#75D63C"/>
<path d="M39.9776 66.6421H33.321V73.2987H39.9776V66.6421Z" fill="#75D63C"/>
<path d="M46.6722 66.6421H40.0156V73.2987H46.6722V66.6421Z" fill="#75D63C"/>
<path d="M53.3287 66.6421H46.6721V73.2987H53.3287V66.6421Z" fill="#75D63C"/>
<path d="M59.9855 66.6421H53.3289V73.2987H59.9855V66.6421Z" fill="#75D63C"/>
<path d="M66.642 66.6421H59.9854V73.2987H66.642V66.6421Z" fill="#75D63C"/>
<path d="M73.3368 66.6421H66.6802V73.2987H73.3368V66.6421Z" fill="#75D63C"/>
<path d="M79.9933 66.6421H73.3367V73.2987H79.9933V66.6421Z" fill="#75D63C"/>
<path d="M86.6498 66.6421H79.9932V73.2987H86.6498V66.6421Z" fill="#75D63C"/>
<path d="M93.3065 66.6421H86.6499V73.2987H93.3065V66.6421Z" fill="#75D63C"/>
<path d="M100.001 66.6421H93.3445V73.2987H100.001V66.6421Z" fill="#75D63C"/>
<path d="M106.658 66.6421H100.001V73.2987H106.658V66.6421Z" fill="#75D63C"/>
<path d="M113.315 66.6421H106.658V73.2987H113.315V66.6421Z" fill="#75D63C"/>
<path d="M119.971 66.6421H113.314V73.2987H119.971V66.6421Z" fill="#75D63C"/>
<path d="M126.666 66.6421H120.009V73.2987H126.666V66.6421Z" fill="#75D63C"/>
<path d="M133.322 66.6421H126.666V73.2987H133.322V66.6421Z" fill="#75D63C"/>
<path d="M139.979 66.6421H133.322V73.2987H139.979V66.6421Z" fill="#75D63C"/>
<path d="M146.635 66.6421H139.979V73.2987H146.635V66.6421Z" fill="#75D63C"/>
<path d="M153.33 66.6421H146.674V73.2987H153.33V66.6421Z" fill="#75D63C"/>
<path d="M159.987 66.6421H153.33V73.2987H159.987V66.6421Z" fill="#75D63C"/>
<path d="M166.643 66.6421H159.987V73.2987H166.643V66.6421Z" fill="#75D63C"/>
<path d="M173.3 66.6421H166.643V73.2987H173.3V66.6421Z" fill="#75D63C"/>
<path d="M179.994 66.6421H173.338V73.2987H179.994V66.6421Z" fill="#75D63C"/>
<path d="M186.651 66.6421H179.994V73.2987H186.651V66.6421Z" fill="#75D63C"/>
<path d="M193.308 66.6421H186.651V73.2987H193.308V66.6421Z" fill="#75D63C"/>
<path d="M199.964 66.6421H193.308V73.2987H199.964V66.6421Z" fill="#75D63C"/>
<path d="M206.659 66.6421H200.002V73.2987H206.659V66.6421Z" fill="#75D63C"/>
<path d="M213.316 66.6421H206.659V73.2987H213.316V66.6421Z" fill="#75D63C"/>
<path d="M219.972 66.6421H213.315V73.2987H219.972V66.6421Z" fill="#75D63C"/>
<path d="M226.629 66.6421H219.972V73.2987H226.629V66.6421Z" fill="#75D63C"/>
<path d="M233.323 66.6421H226.667V73.2987H233.323V66.6421Z" fill="#75D63C"/>
<path d="M239.98 66.6421H233.323V73.2987H239.98V66.6421Z" fill="#2B1805"/>
<path d="M6.6566 73.3367H0V79.9933H6.6566V73.3367Z" fill="#2B1805"/>
<path d="M13.3131 73.3367H6.65649V79.9933H13.3131V73.3367Z" fill="#75D63C"/>
<path d="M20.0077 73.3367H13.3511V79.9933H20.0077V73.3367Z" fill="#75D63C"/>
<path d="M26.6644 73.3367H20.0078V79.9933H26.6644V73.3367Z" fill="#75D63C"/>
<path d="M33.3209 73.3367H26.6643V79.9933H33.3209V73.3367Z" fill="#75D63C"/>
<path d="M39.9776 73.3367H33.321V79.9933H39.9776V73.3367Z" fill="#75D63C"/>
<path d="M46.6722 73.3367H40.0156V79.9933H46.6722V73.3367Z" fill="#75D63C"/>
<path d="M53.3287 73.3367H46.6721V79.9933H53.3287V73.3367Z" fill="#75D63C"/>
<path d="M59.9855 73.3367H53.3289V79.9933H59.9855V73.3367Z" fill="#75D63C"/>
<path d="M66.642 73.3367H59.9854V79.9933H66.642V73.3367Z" fill="#75D63C"/>
<path d="M73.3368 73.3367H66.6802V79.9933H73.3368V73.3367Z" fill="#75D63C"/>
<path d="M79.9933 73.3367H73.3367V79.9933H79.9933V73.3367Z" fill="#75D63C"/>
<path d="M86.6498 73.3367H79.9932V79.9933H86.6498V73.3367Z" fill="#75D63C"/>
<path d="M93.3065 73.3367H86.6499V79.9933H93.3065V73.3367Z" fill="#75D63C"/>
<path d="M100.001 73.3367H93.3445V79.9933H100.001V73.3367Z" fill="#75D63C"/>
<path d="M106.658 73.3367H100.001V79.9933H106.658V73.3367Z" fill="#75D63C"/>
<path d="M113.315 73.3367H106.658V79.9933H113.315V73.3367Z" fill="#75D63C"/>
<path d="M119.971 73.3367H113.314V79.9933H119.971V73.3367Z" fill="#75D63C"/>
<path d="M126.666 73.3367H120.009V79.9933H126.666V73.3367Z" fill="#75D63C"/>
<path d="M133.322 73.3367H126.666V79.9933H133.322V73.3367Z" fill="#75D63C"/>
<path d="M139.979 73.3367H133.322V79.9933H139.979V73.3367Z" fill="#75D63C"/>
<path d="M146.635 73.3367H139.979V79.9933H146.635V73.3367Z" fill="#75D63C"/>
<path d="M153.33 73.3367H146.674V79.9933H153.33V73.3367Z" fill="#75D63C"/>
<path d="M159.987 73.3367H153.33V79.9933H159.987V73.3367Z" fill="#75D63C"/>
<path d="M166.643 73.3367H159.987V79.9933H166.643V73.3367Z" fill="#75D63C"/>
<path d="M173.3 73.3367H166.643V79.9933H173.3V73.3367Z" fill="#75D63C"/>
<path d="M179.994 73.3367H173.338V79.9933H179.994V73.3367Z" fill="#75D63C"/>
<path d="M186.651 73.3367H179.994V79.9933H186.651V73.3367Z" fill="#75D63C"/>
<path d="M193.308 73.3367H186.651V79.9933H193.308V73.3367Z" fill="#75D63C"/>
<path d="M199.964 73.3367H193.308V79.9933H199.964V73.3367Z" fill="#75D63C"/>
<path d="M206.659 73.3367H200.002V79.9933H206.659V73.3367Z" fill="#75D63C"/>
<path d="M213.316 73.3367H206.659V79.9933H213.316V73.3367Z" fill="#75D63C"/>
<path d="M219.972 73.3367H213.315V79.9933H219.972V73.3367Z" fill="#75D63C"/>
<path d="M226.629 73.3367H219.972V79.9933H226.629V73.3367Z" fill="#75D63C"/>
<path d="M233.323 73.3367H226.667V79.9933H233.323V73.3367Z" fill="#75D63C"/>
<path d="M239.98 73.3367H233.323V79.9933H239.98V73.3367Z" fill="#2B1805"/>
<path d="M13.3131 79.9934H6.65649V86.65H13.3131V79.9934Z" fill="#2B1805"/>
<path d="M20.0077 79.9934H13.3511V86.65H20.0077V79.9934Z" fill="#75D63C"/>
<path d="M26.6644 79.9934H20.0078V86.65H26.6644V79.9934Z" fill="#75D63C"/>
<path d="M33.3209 79.9934H26.6643V86.65H33.3209V79.9934Z" fill="#75D63C"/>
<path d="M39.9776 79.9934H33.321V86.65H39.9776V79.9934Z" fill="#75D63C"/>
<path d="M46.6722 79.9934H40.0156V86.65H46.6722V79.9934Z" fill="#75D63C"/>
<path d="M53.3287 79.9934H46.6721V86.65H53.3287V79.9934Z" fill="#75D63C"/>
<path d="M59.9855 79.9934H53.3289V86.65H59.9855V79.9934Z" fill="#75D63C"/>
<path d="M66.642 79.9934H59.9854V86.65H66.642V79.9934Z" fill="#75D63C"/>
<path d="M73.3368 79.9934H66.6802V86.65H73.3368V79.9934Z" fill="#75D63C"/>
<path d="M79.9933 79.9934H73.3367V86.65H79.9933V79.9934Z" fill="#75D63C"/>
<path d="M86.6498 79.9934H79.9932V86.65H86.6498V79.9934Z" fill="#75D63C"/>
<path d="M93.3065 79.9934H86.6499V86.65H93.3065V79.9934Z" fill="#75D63C"/>
<path d="M100.001 79.9934H93.3445V86.65H100.001V79.9934Z" fill="#75D63C"/>
<path d="M106.658 79.9934H100.001V86.65H106.658V79.9934Z" fill="#75D63C"/>
<path d="M113.315 79.9934H106.658V86.65H113.315V79.9934Z" fill="#75D63C"/>
<path d="M119.971 79.9934H113.314V86.65H119.971V79.9934Z" fill="#75D63C"/>
<path d="M126.666 79.9934H120.009V86.65H126.666V79.9934Z" fill="#75D63C"/>
<path d="M133.322 79.9934H126.666V86.65H133.322V79.9934Z" fill="#75D63C"/>
<path d="M139.979 79.9934H133.322V86.65H139.979V79.9934Z" fill="#75D63C"/>
<path d="M146.635 79.9934H139.979V86.65H146.635V79.9934Z" fill="#75D63C"/>
<path d="M153.33 79.9934H146.674V86.65H153.33V79.9934Z" fill="#75D63C"/>
<path d="M159.987 79.9934H153.33V86.65H159.987V79.9934Z" fill="#75D63C"/>
<path d="M166.643 79.9934H159.987V86.65H166.643V79.9934Z" fill="#75D63C"/>
<path d="M173.3 79.9934H166.643V86.65H173.3V79.9934Z" fill="#75D63C"/>
<path d="M179.994 79.9934H173.338V86.65H179.994V79.9934Z" fill="#75D63C"/>
<path d="M186.651 79.9934H179.994V86.65H186.651V79.9934Z" fill="#75D63C"/>
<path d="M193.308 79.9934H186.651V86.65H193.308V79.9934Z" fill="#75D63C"/>
<path d="M199.964 79.9934H193.308V86.65H199.964V79.9934Z" fill="#75D63C"/>
<path d="M206.659 79.9934H200.002V86.65H206.659V79.9934Z" fill="#75D63C"/>
<path d="M213.316 79.9934H206.659V86.65H213.316V79.9934Z" fill="#75D63C"/>
<path d="M219.972 79.9934H213.315V86.65H219.972V79.9934Z" fill="#75D63C"/>
<path d="M226.629 79.9934H219.972V86.65H226.629V79.9934Z" fill="#75D63C"/>
<path d="M233.323 79.9934H226.667V86.65H233.323V79.9934Z" fill="#2B1805"/>
<path d="M20.0077 86.6499H13.3511V93.3065H20.0077V86.6499Z" fill="#2B1805"/>
<path d="M26.6644 86.6499H20.0078V93.3065H26.6644V86.6499Z" fill="#2B1805"/>
<path d="M33.3209 86.6499H26.6643V93.3065H33.3209V86.6499Z" fill="#2B1805"/>
<path d="M39.9776 86.6499H33.321V93.3065H39.9776V86.6499Z" fill="#2B1805"/>
<path d="M46.6722 86.6499H40.0156V93.3065H46.6722V86.6499Z" fill="#2B1805"/>
<path d="M53.3287 86.6499H46.6721V93.3065H53.3287V86.6499Z" fill="#2B1805"/>
<path d="M59.9855 86.6499H53.3289V93.3065H59.9855V86.6499Z" fill="#2B1805"/>
<path d="M66.642 86.6499H59.9854V93.3065H66.642V86.6499Z" fill="#2B1805"/>
<path d="M73.3368 86.6499H66.6802V93.3065H73.3368V86.6499Z" fill="#2B1805"/>
<path d="M79.9933 86.6499H73.3367V93.3065H79.9933V86.6499Z" fill="#2B1805"/>
<path d="M86.6498 86.6499H79.9932V93.3065H86.6498V86.6499Z" fill="#2B1805"/>
<path d="M93.3065 86.6499H86.6499V93.3065H93.3065V86.6499Z" fill="#2B1805"/>
<path d="M100.001 86.6499H93.3445V93.3065H100.001V86.6499Z" fill="#2B1805"/>
<path d="M106.658 86.6499H100.001V93.3065H106.658V86.6499Z" fill="#2B1805"/>
<path d="M113.315 86.6499H106.658V93.3065H113.315V86.6499Z" fill="#2B1805"/>
<path d="M119.971 86.6499H113.314V93.3065H119.971V86.6499Z" fill="#2B1805"/>
<path d="M126.666 86.6499H120.009V93.3065H126.666V86.6499Z" fill="#2B1805"/>
<path d="M133.322 86.6499H126.666V93.3065H133.322V86.6499Z" fill="#2B1805"/>
<path d="M139.979 86.6499H133.322V93.3065H139.979V86.6499Z" fill="#2B1805"/>
<path d="M146.635 86.6499H139.979V93.3065H146.635V86.6499Z" fill="#2B1805"/>
<path d="M153.33 86.6499H146.674V93.3065H153.33V86.6499Z" fill="#2B1805"/>
<path d="M159.987 86.6499H153.33V93.3065H159.987V86.6499Z" fill="#2B1805"/>
<path d="M166.643 86.6499H159.987V93.3065H166.643V86.6499Z" fill="#2B1805"/>
<path d="M173.3 86.6499H166.643V93.3065H173.3V86.6499Z" fill="#2B1805"/>
<path d="M179.994 86.6499H173.338V93.3065H179.994V86.6499Z" fill="#2B1805"/>
<path d="M186.651 86.6499H179.994V93.3065H186.651V86.6499Z" fill="#2B1805"/>
<path d="M193.308 86.6499H186.651V93.3065H193.308V86.6499Z" fill="#2B1805"/>
<path d="M199.964 86.6499H193.308V93.3065H199.964V86.6499Z" fill="#2B1805"/>
<path d="M206.659 86.6499H200.002V93.3065H206.659V86.6499Z" fill="#2B1805"/>
<path d="M213.316 86.6499H206.659V93.3065H213.316V86.6499Z" fill="#2B1805"/>
<path d="M219.972 86.6499H213.315V93.3065H219.972V86.6499Z" fill="#2B1805"/>
<path d="M226.629 86.6499H219.972V93.3065H226.629V86.6499Z" fill="#2B1805"/>
<path d="M61.4309 43.9716H58.7682H56.1056H53.443H50.7803V41.3089H48.1177V38.6463V35.9837V33.321V30.6584V27.9957V25.3331V22.6705H50.7803V20.0078H53.443H56.1056H58.7682H61.4309H64.0935V22.6705H66.7562V25.3331V27.9957H64.0935H61.4309V25.3331H58.7682H56.1056H53.443V27.9957V30.6584V33.321V35.9837V38.6463H56.1056H58.7682H61.4309V35.9837H64.0935H66.7562V38.6463V41.3089H64.0935V43.9716H61.4309Z" fill="white"/>
<path d="M72.0816 43.9716H69.4189V41.3089V38.6463V35.9837V33.321V30.6584V27.9957V25.3331V22.6705V20.0078H72.0816H74.7442V22.6705V25.3331V27.9957V30.6584V33.321V35.9837V38.6463V41.3089V43.9716H72.0816ZM80.0695 34.6523H77.4069H74.7442V31.9897V29.3271H77.4069H80.0695H82.7321V31.9897V34.6523H80.0695ZM85.3948 43.9716H82.7321V41.3089V38.6463V35.9837V33.321V30.6584V27.9957V25.3331V22.6705V20.0078H85.3948H88.0574V22.6705V25.3331V27.9957V30.6584V33.321V35.9837V38.6463V41.3089V43.9716H85.3948Z" fill="white"/>
<path d="M106.696 43.9716H104.033V41.3089V38.6463V35.9837H101.371H98.7079H96.0453V38.6463V41.3089V43.9716H93.3826H90.72V41.3089V38.6463V35.9837V33.321V30.6584V27.9957V25.3331H93.3826V22.6705H96.0453V20.0078H98.7079H101.371H104.033V22.6705H106.696V25.3331H109.358V27.9957V30.6584V33.321V35.9837V38.6463V41.3089V43.9716H106.696ZM101.371 30.6584H104.033V27.9957V25.3331H101.371V22.6705H98.7079V25.3331H96.0453V27.9957V30.6584H98.7079H101.371Z" fill="white"/>
<path d="M120.009 43.9716H117.347V41.3089V38.6463V35.9837V33.321V30.6584V27.9957V25.3331H114.684H112.021V22.6705V20.0078H114.684H117.347H120.009H122.672H125.334H127.997V22.6705V25.3331H125.334H122.672V27.9957V30.6584V33.321V35.9837V38.6463V41.3089V43.9716H120.009Z" fill="white"/>
<path d="M143.973 43.9716H141.31H138.648H135.985H133.322H130.66V41.3089V38.6463V35.9837V33.321V30.6584V27.9957V25.3331V22.6705V20.0078H133.322H135.985H138.648H141.31H143.973H146.636V22.6705H149.298V25.3331V27.9957V30.6584H146.636V33.321H149.298V35.9837V38.6463V41.3089H146.636V43.9716H143.973ZM141.31 38.6463H143.973V35.9837V33.321V30.6584V27.9957V25.3331H141.31H138.648H135.985V27.9957V30.6584V33.321V35.9837V38.6463H138.648H141.31ZM141.31 34.6523H138.648H135.985V31.9897V29.3271H138.648H141.31H143.973V31.9897V34.6523H141.31Z" fill="white"/>
<path d="M165.274 43.9716H162.611H159.949H157.286H154.623V41.3089H151.961V38.6463V35.9837V33.321V30.6584V27.9957V25.3331V22.6705H154.623V20.0078H157.286H159.949H162.611H165.274H167.937V22.6705H170.599V25.3331V27.9957V30.6584V33.321V35.9837V38.6463V41.3089H167.937V43.9716H165.274ZM162.611 38.6463H165.274V35.9837V33.321V30.6584V27.9957V25.3331H162.611H159.949H157.286V27.9957V30.6584V33.321V35.9837V38.6463H159.949H162.611Z" fill="white"/>
<path d="M181.25 43.9716H178.587V41.3089V38.6463V35.9837V33.321V30.6584V27.9957V25.3331H175.924H173.262V22.6705V20.0078H175.924H178.587H181.25H183.912H186.575H189.238V22.6705V25.3331H186.575H183.912V27.9957V30.6584V33.321V35.9837V38.6463V41.3089V43.9716H181.25Z" fill="white"/>
</svg>
