<svg width="18" height="22" viewBox="0 0 18 22" fill="none" xmlns="http://www.w3.org/2000/svg">
<g id="Group">
<path id="Vector" d="M8.60662 15.214C8.52814 15.2051 8.44966 15.1874 8.36247 15.1785C8.4671 15.0717 8.5979 15.0005 8.5543 14.7959C8.51942 14.6001 8.54558 14.3866 8.54558 14.1731C8.54558 13.5414 8.44094 13.4702 7.83055 13.6926C7.80439 13.6571 7.77823 13.6215 7.75207 13.5859C7.82183 12.8385 7.82183 12.8296 7.15912 12.8118C7.11552 12.8118 7.07192 12.8118 7.02832 12.8118L7.03704 12.8207C7.03704 12.5449 7.03704 12.278 7.04576 12.0022C7.42944 12.0111 7.91775 11.8331 7.85671 12.5716C7.83927 12.8118 8.12703 12.7051 8.28399 12.7229C8.4671 12.7407 8.54558 12.6517 8.54558 12.4648C8.54558 12.0378 8.54558 11.6107 8.54558 11.1837C8.54558 10.4808 8.51942 10.463 7.83055 10.4986C7.81311 10.4719 7.80439 10.4452 7.78695 10.4185C7.88287 10.4096 7.98751 10.3918 8.08343 10.4007C8.50198 10.463 8.65022 10.2762 8.61534 9.85799C8.58046 9.51101 8.60662 9.15512 8.5979 8.79924C8.60662 7.46467 8.60662 6.13011 8.61534 4.80444C8.67638 4.80444 8.7287 4.80444 8.78974 4.80444C9.40013 4.80444 9.40013 4.80444 9.40013 5.40945C9.40013 6.80629 9.40013 8.20313 9.40885 9.59998C9.40885 10.1338 9.40885 10.6676 9.40885 11.1926C9.40885 12.3759 9.40885 13.5592 9.40013 14.7425C9.40013 14.9827 9.43501 15.134 9.72277 15.1251C9.98437 15.1162 10.15 15.0717 10.1152 14.7603C10.0803 14.44 10.1936 14.271 10.525 14.3154C10.8128 14.351 10.9261 14.2354 10.9 13.9418C10.8738 13.6659 11.0308 13.5859 11.2749 13.5948C11.6935 13.6037 12.1207 13.5948 12.5393 13.6037C13.0625 13.6037 13.5857 13.6037 14.1176 13.6037C14.1176 13.8706 14.1089 14.1375 14.1089 14.4044C13.5857 14.4667 13.0451 14.2887 12.5306 14.5023C12.2864 14.3688 12.0248 14.4044 11.7719 14.4044C10.961 14.4044 10.961 14.4044 10.9697 15.2051C10.9 15.2051 10.8215 15.2051 10.7517 15.2051C10.1849 15.1962 10.1849 15.1962 10.1849 15.7657C10.1849 16.9134 10.1849 18.0611 10.1849 19.2088C10.0803 19.2088 9.98437 19.2177 9.88845 19.1999C9.47861 19.1288 9.36525 19.3156 9.40013 19.716C9.43501 20.0808 9.40885 20.4455 9.40885 20.8103C9.13854 20.8103 8.86822 20.8103 8.60662 20.8103C8.57174 20.8103 8.5543 20.8014 8.53686 20.7747C8.53686 20.2409 8.53686 19.716 8.53686 19.1821C8.56302 19.1021 8.58918 19.022 8.62406 18.9419C9.18214 19.2533 9.33037 19.1733 9.33909 18.5149C9.34781 17.643 9.33909 16.7799 9.33909 15.908C9.33909 15.1874 9.33909 15.1874 8.60662 15.214Z" fill="#4F795F"/>
<path id="Vector_2" d="M12.5479 13.6126C12.1293 13.6126 11.702 13.6215 11.2835 13.6037C11.0393 13.5948 10.8824 13.6749 10.9085 13.9507C10.9347 14.2443 10.8213 14.36 10.5336 14.3244C10.2022 14.2799 10.0801 14.4489 10.1237 14.7692C10.1586 15.0806 9.99292 15.1251 9.73133 15.134C9.43485 15.1429 9.40869 14.9917 9.40869 14.7514C9.41741 13.5681 9.41741 12.3848 9.41741 11.2015C9.67901 11.2015 9.94061 11.2104 10.2022 11.2104C10.2022 11.9044 10.2109 12.5983 10.1848 13.3012C10.176 13.6393 10.3679 13.6037 10.5684 13.6037C10.769 13.6037 11.0044 13.6482 10.9521 13.3101C10.8911 12.9275 11.0044 12.7229 11.423 12.803C11.7107 12.8564 11.7805 12.6962 11.7456 12.4471C11.702 12.1268 11.7805 11.94 12.1467 12.0022C12.4607 12.0645 12.5653 11.9044 12.5217 11.6019C12.4607 11.2638 12.6002 11.157 12.9228 11.1926C13.1059 11.2193 13.2978 11.1748 13.4896 11.2015C13.9256 11.2549 14.1959 11.1748 14.0913 10.6321C14.0477 10.4274 14.1698 10.3919 14.3442 10.3919C15.1987 10.4008 16.0533 10.4008 16.9078 10.383C17.1781 10.3741 17.1956 10.5164 17.1607 10.7122C17.0996 11.1125 17.274 11.2549 17.6403 11.1926C17.928 11.1392 18.0152 11.2638 17.9978 11.5574C17.9716 12.1179 17.9804 12.6784 17.9978 13.2478C18.0065 13.5058 17.9542 13.6482 17.6664 13.6037C17.3176 13.5414 17.1432 13.6571 17.213 14.0486C17.2653 14.3511 17.1171 14.44 16.838 14.4044C16.7072 14.3867 16.5764 14.4044 16.4457 14.4044L16.4544 14.4133C16.4456 14.2443 16.4369 14.0664 16.4369 13.8973C16.4369 13.8617 16.4369 13.8261 16.4369 13.7817C16.4369 13.7194 16.4369 13.6571 16.4457 13.5948C16.5503 13.5948 16.6549 13.5859 16.7508 13.5948C17.1084 13.6482 17.2392 13.5236 17.2217 13.1411C17.1868 12.6072 17.2043 12.0734 17.213 11.5396C17.2217 11.2638 17.1171 11.1837 16.8555 11.1926C16.1841 11.2104 15.5213 11.2015 14.8499 11.2015C14.0826 11.2015 14.0826 11.2015 14.0913 12.0022L14.1 11.9933C13.6989 11.9933 13.289 12.0111 12.8879 11.9933C12.6176 11.9755 12.4955 12.0467 12.513 12.3581C12.5479 12.7407 12.5391 13.1233 12.5479 13.5058C12.5653 13.5414 12.5566 13.577 12.5479 13.6126Z" fill="#373C39"/>
<path id="Vector_3" d="M5.49351 8.00742C5.49351 6.51271 5.49351 5.01799 5.47607 3.52328C5.47607 3.27416 5.53711 3.1763 5.78999 3.20299C5.94695 3.22078 6.11263 3.20299 6.26959 3.20299C6.26959 4.27064 6.27831 5.33829 6.27831 6.40594C6.27831 6.93977 6.27831 7.48249 6.26959 8.02521C6.00799 8.01632 5.74639 8.00742 5.48479 8.00742H5.49351Z" fill="#373C39"/>
<path id="Vector_4" d="M6.26962 12.8028C6.27834 13.6036 6.27834 13.6036 5.51099 13.5947C4.62156 13.5947 3.74085 13.568 2.85142 13.6036C2.41543 13.6214 2.27591 13.4879 2.34567 13.0698C2.36311 12.9808 2.34567 12.8918 2.35439 12.8028C2.44159 12.8028 2.52879 12.7939 2.61599 12.7939C3.62749 12.7939 4.64772 12.8028 5.65923 12.8028C5.74643 12.8028 5.83363 12.8028 5.92955 12.8117C6.04291 12.8028 6.15627 12.8028 6.26962 12.8028Z" fill="#373C39"/>
<path id="Vector_5" d="M1.56943 8.80793C1.56071 7.99829 1.56071 7.99829 2.38038 7.99829C3.41804 8.00719 4.45571 8.00719 5.49338 8.00719L5.48466 7.99829C5.48466 8.2652 5.49338 8.53212 5.49338 8.79903C4.1854 8.80793 2.87741 8.79903 1.56943 8.80793Z" fill="#373C39"/>
<path id="Vector_6" d="M10.2021 19.2089C10.2021 18.0612 10.2021 16.9135 10.2021 15.7658C10.2021 15.1963 10.2021 15.1963 10.7689 15.2052C10.8387 15.2052 10.9172 15.2052 10.9869 15.2052C10.9782 16.3441 10.9521 17.4829 10.9869 18.6217C11.0044 19.0933 10.8736 19.2623 10.4201 19.1911C10.3417 19.1822 10.2719 19.2 10.2021 19.2089Z" fill="#373C39"/>
<path id="Vector_7" d="M11.7632 3.20307C12.5393 3.18527 12.5393 3.18527 12.5393 3.97711C12.5393 4.87572 12.5131 5.78323 12.548 6.68183C12.5654 7.12669 12.4346 7.26904 12.0248 7.19786C11.9376 7.18007 11.8504 7.18897 11.7632 7.18897L11.7719 7.19786C11.7719 5.8722 11.7719 4.53763 11.7632 3.20307Z" fill="#373C39"/>
<path id="Vector_8" d="M8.60693 15.2142C9.33941 15.1875 9.33941 15.1875 9.33941 15.9171C9.33941 16.789 9.34813 17.652 9.33941 18.5239C9.33069 19.1823 9.18245 19.2624 8.62437 18.951C8.61565 17.7054 8.61565 16.4598 8.60693 15.2142Z" fill="#373C39"/>
<path id="Vector_9" d="M15.6783 15.2052C15.6434 15.997 15.6434 15.997 14.8673 15.997C14.2482 15.997 13.6204 15.9614 13.0013 16.0059C12.574 16.0326 12.4694 15.8724 12.5217 15.4899C12.5304 15.4009 12.5304 15.3119 12.5304 15.223L12.5391 15.2141C13.3239 15.2052 14.1174 15.1874 14.9022 15.1785C15.1725 15.1874 15.4341 15.1963 15.6783 15.2052Z" fill="#373C39"/>
<path id="Vector_10" d="M11.7631 7.19775C11.7631 7.82945 11.7369 8.46114 11.7631 9.09283C11.7805 9.48431 11.6933 9.67115 11.2747 9.59997C11.1788 9.58218 11.0742 9.59997 10.9695 9.59997L10.9783 9.60887C10.9085 8.80813 10.9783 8.00739 10.9783 7.20665C11.2486 7.20665 11.5102 7.20665 11.7631 7.19775Z" fill="#373C39"/>
<path id="Vector_11" d="M10.9781 9.59985C10.9781 9.98243 10.9345 10.365 10.9781 10.7387C11.0217 11.1479 10.8647 11.2547 10.4985 11.2013C10.4026 11.1835 10.2979 11.2013 10.1933 11.2013C10.1933 11.1479 10.1846 11.0857 10.1846 11.0323C10.1846 10.9967 10.1846 10.97 10.1846 10.9344C10.1846 10.5785 10.1846 10.2315 10.1846 9.87566C10.1846 9.84007 10.1846 9.81338 10.1846 9.7778C10.1846 9.71552 10.1933 9.66213 10.1933 9.59985C10.4636 9.60875 10.7252 9.60875 10.9781 9.59985Z" fill="#373C39"/>
<path id="Vector_12" d="M7.05441 2.3933C7.05441 1.99293 7.07185 1.59256 7.03697 1.19219C7.00209 0.836305 7.14161 0.747334 7.45553 0.79182C7.58632 0.809614 7.71712 0.79182 7.84792 0.79182C7.84792 0.800717 7.8392 0.800717 7.8392 0.800717C7.84792 1.09432 7.84792 1.38793 7.85664 1.68153C7.7956 2.41999 7.7956 2.41999 7.05441 2.3933Z" fill="#373C39"/>
<path id="Vector_13" d="M7.84763 0.800739C7.80403 0 7.80403 0 8.5801 0C8.59754 0 8.60626 0 8.6237 0C9.40849 0 9.40849 0 9.41721 0.800739L9.42593 0.791841C8.89401 0.800739 8.37082 0.800739 7.84763 0.800739Z" fill="#373C39"/>
<path id="Vector_14" d="M0.784791 11.2014C0 11.1925 0 11.1925 0 10.3918C0 10.374 0 10.3651 0 10.3473C0 9.55547 0 9.55547 0.784791 9.60885V9.59995C0.793511 9.84017 0.802231 10.0804 0.802231 10.3206C0.793511 10.6142 0.784791 10.9167 0.784791 11.2014Z" fill="#373C39"/>
<path id="Vector_15" d="M9.4177 20.8104C9.4177 20.4456 9.43514 20.0808 9.40898 19.716C9.3741 19.3246 9.49617 19.1377 9.89729 19.2C9.99321 19.2178 10.0978 19.2089 10.1938 19.2089C10.1938 19.5915 10.1589 19.9829 10.1938 20.3566C10.2286 20.7303 10.0804 20.8282 9.75777 20.7837C9.64441 20.7748 9.53105 20.8015 9.4177 20.8104Z" fill="#373C39"/>
<path id="Vector_16" d="M10.9869 15.2052C10.9782 14.4045 10.9782 14.4045 11.7891 14.4045C12.042 14.4045 12.3036 14.3689 12.5478 14.5023C12.5478 14.7336 12.5565 14.9739 12.5565 15.2052L12.5478 15.2141C12.0246 15.1696 11.5014 15.1874 10.9869 15.2052Z" fill="#373C39"/>
<path id="Vector_17" d="M8.53688 19.1821C8.53688 19.7159 8.53688 20.2409 8.53688 20.7747C7.83057 20.7925 7.83057 20.7925 7.83057 20.0629C7.83057 20.0007 7.83057 19.9473 7.83057 19.885C7.83057 19.1732 7.83057 19.1732 8.53688 19.1821Z" fill="#373C39"/>
<path id="Vector_18" d="M7.83916 13.6926C8.44955 13.479 8.55419 13.5502 8.55419 14.173C8.55419 14.3776 8.52803 14.5912 8.56291 14.7958C8.59779 15.0004 8.46699 15.0716 8.37108 15.1784C7.95252 15.2673 7.76068 15.1339 7.83044 14.6623C7.86532 14.3509 7.83916 14.0217 7.83916 13.6926Z" fill="#373C39"/>
<path id="Vector_19" d="M0.784668 9.60895C0.784668 9.59116 0.784668 9.58226 0.784668 9.56447C0.784668 8.79042 0.784668 8.79042 1.56946 8.80821L1.56074 8.79932C1.56074 9.59116 1.56074 9.59116 0.784668 9.60895Z" fill="#373C39"/>
<path id="Vector_20" d="M16.4718 14.3954C16.4282 15.1783 16.4282 15.1783 15.687 15.1961L15.6958 15.205C15.687 15.0093 15.687 14.8224 15.6783 14.6267C15.6609 14.4132 15.7917 14.3776 15.9486 14.3865C15.9835 14.3865 16.0184 14.3865 16.0533 14.3865C16.1928 14.3865 16.341 14.3954 16.4806 14.3954H16.4718Z" fill="#373C39"/>
<path id="Vector_21" d="M10.1937 1.60146C10.9436 1.59256 10.9436 1.59256 10.9785 2.4022L10.9872 2.3933C10.0716 2.3933 10.1675 2.60683 10.1937 1.60146Z" fill="#373C39"/>
<path id="Vector_22" d="M1.56946 12.0111C1.55202 12.0111 1.5433 12.0111 1.52586 12.0111C0.784668 11.9933 0.784668 11.9933 0.784668 11.2103C1.73514 11.2014 1.55202 11.0858 1.56946 12.0111Z" fill="#373C39"/>
<path id="Vector_23" d="M9.40847 0.800537C10.1758 0.800537 10.1758 0.800537 10.1933 1.60128L10.202 1.59238C9.39103 1.62797 9.39103 1.62797 9.40847 0.800537Z" fill="#373C39"/>
<path id="Vector_24" d="M10.9784 2.4021C11.7458 2.4021 11.7458 2.4021 11.7632 3.20284L11.7719 3.19394C10.8912 3.18504 10.9348 3.42527 10.9784 2.4021Z" fill="#373C39"/>
<path id="Vector_25" d="M6.26933 3.19405C6.25189 2.42 6.25189 2.42 7.05412 2.39331C7.05412 3.21184 7.05412 3.21184 6.26933 3.19405Z" fill="#373C39"/>
<path id="Vector_26" d="M7.06304 12.0022C7.06304 12.278 7.06304 12.5449 7.05432 12.8207C6.79273 12.8118 6.53113 12.8029 6.26953 12.794H6.27825C6.27825 12.5271 6.28697 12.2602 6.28697 12.0022C6.54857 12.0111 6.80144 12.0111 7.06304 12.0022Z" fill="#373C39"/>
<path id="Vector_27" d="M2.35462 12.8028C2.11918 12.7939 1.88374 12.785 1.65702 12.785C1.63086 12.7672 1.61342 12.7405 1.58726 12.7228C1.57854 12.4825 1.57854 12.2423 1.56982 12.011C1.83142 12.011 2.09302 12.011 2.35462 12.011C2.35462 12.0733 2.35462 12.1266 2.36334 12.1889C2.35462 12.3936 2.35462 12.5982 2.35462 12.8028Z" fill="#373C39"/>
<path id="Vector_28" d="M8.60615 20.8191C8.87647 20.8191 9.14679 20.8191 9.40838 20.8191C9.38222 20.9437 9.32118 21.0682 9.3299 21.1839C9.36478 21.4686 9.34734 21.6376 8.98111 21.6287C8.59743 21.6198 8.57999 21.4063 8.60615 21.1216C8.61487 21.0237 8.60615 20.917 8.60615 20.8191Z" fill="#373C39"/>
<path id="Vector_29" d="M7.04541 12.8118C7.08901 12.8118 7.13261 12.8118 7.17621 12.8118C7.83892 12.8385 7.83892 12.8385 7.76916 13.5858C7.06285 13.6036 7.06285 13.6036 7.04541 12.8118Z" fill="#373C39"/>
<path id="Vector_30" d="M1.58685 12.7229C1.61301 12.7407 1.63045 12.7674 1.65661 12.7852C1.59557 12.803 1.56941 12.7852 1.58685 12.7229Z" fill="#4F795F"/>
<path id="Vector_31" d="M6.27832 3.20315C7.05439 3.22094 7.05439 3.22094 7.06311 2.40241C7.8043 2.4291 7.8043 2.4291 7.86534 1.68174C8.46701 1.49491 8.55421 1.54829 8.63269 2.16219C8.65013 2.32233 8.71117 2.4202 8.86813 2.40241C9.28669 2.34013 9.50468 2.47359 9.4262 2.94513C9.39132 3.13197 9.50468 3.23874 9.67908 3.20315C10.2023 3.10528 10.2459 3.41668 10.2023 3.81705C10.1848 4.00389 10.2197 4.19962 10.1936 4.39536C10.1587 4.73345 10.2895 4.85801 10.6121 4.81352C10.9435 4.76014 10.9958 4.93808 10.9871 5.23169C10.9696 5.89897 10.9871 6.55735 10.9871 7.22463C10.9871 8.02537 10.9173 8.82611 10.9871 9.62685C10.7255 9.62685 10.4639 9.62685 10.2023 9.62685C9.94068 9.62685 9.6878 9.62685 9.4262 9.62685C9.4262 8.23001 9.4262 6.83316 9.41748 5.43632C9.41748 4.83132 9.41748 4.83132 8.80709 4.83132C8.74605 4.83132 8.69373 4.83132 8.63269 4.83132C8.63269 4.65337 8.63269 4.47543 8.63269 4.29749C8.63269 4.19962 8.65013 4.06617 8.51933 4.04837C8.31878 4.01278 8.08334 3.9505 7.9351 4.08396C7.76942 4.22631 7.83918 4.47543 7.87406 4.67117C7.91766 4.92918 8.1531 4.80462 8.30134 4.83132C8.4147 4.84911 8.52805 4.83132 8.65013 4.83132C8.64141 6.16588 8.64141 7.50044 8.63269 8.82611C8.47573 8.82611 8.31878 8.82611 8.1531 8.83501C7.92638 8.8528 7.82174 8.74604 7.85662 8.52361C7.92638 8.07876 7.70838 7.98089 7.34215 8.03427C7.25495 8.04317 7.16775 8.02537 7.08055 8.02537C7.08055 7.75846 7.07183 7.49155 7.07183 7.23353C7.07183 6.44169 7.07183 6.44169 6.29576 6.43279C6.27832 5.33845 6.27832 4.2708 6.27832 3.20315Z" fill="#61C383"/>
<path id="Vector_32" d="M16.4718 14.4044C16.3323 14.4044 16.1841 14.3955 16.0446 14.3955C16.0097 14.3599 15.9748 14.3599 15.9399 14.3955C15.7742 14.3866 15.6522 14.4222 15.6696 14.6357C15.6783 14.8314 15.6783 15.0183 15.687 15.214C15.4255 15.2051 15.1726 15.1873 14.911 15.1784C14.8848 14.4044 14.8848 14.4044 14.1436 14.4311C14.1349 14.4311 14.1175 14.4133 14.1087 14.4044C14.1087 14.1375 14.1175 13.8706 14.1175 13.6036C14.2047 13.6036 14.2919 13.5947 14.3791 13.5947C14.6668 13.6036 14.9023 13.6125 14.911 13.1855C14.9197 12.7139 14.6407 12.8029 14.3791 12.794C14.2919 12.794 14.2047 12.794 14.1175 12.794L14.0913 12.7673C14.1 12.5093 14.1 12.2424 14.1087 11.9844L14.1 11.9933C14.7191 11.9933 15.3383 11.9933 15.9574 11.9933C16.4021 11.9933 16.5154 12.1267 16.4282 12.5894C16.3672 12.9186 16.3323 13.2567 16.4457 13.5859C16.4457 13.6481 16.4457 13.7104 16.437 13.7727C16.4282 13.7816 16.4108 13.7994 16.4108 13.8083C16.4108 13.835 16.4282 13.8617 16.437 13.8884C16.4631 14.0574 16.4631 14.2353 16.4718 14.4044Z" fill="#61C383"/>
<path id="Vector_33" d="M7.07178 7.99844C7.15898 7.99844 7.24618 8.01623 7.33337 8.00734C7.69961 7.96285 7.92633 8.06072 7.84785 8.49668C7.81297 8.71911 7.90889 8.82587 8.14433 8.80808C8.30128 8.79918 8.45824 8.79918 8.62392 8.79918C8.62392 9.15506 8.60648 9.50205 8.64136 9.85793C8.67624 10.2761 8.528 10.4629 8.10945 10.4007C8.01353 10.3829 7.90889 10.4096 7.81297 10.4185L7.77809 10.4007C7.78681 10.374 7.79553 10.3473 7.81297 10.3206C7.83041 10.285 7.83913 10.2583 7.85657 10.2227C7.85657 10.0715 7.85657 9.92911 7.85657 9.77786C7.82169 9.49315 7.60369 9.59102 7.45545 9.59102C7.20258 9.59102 7.06306 9.51095 7.0805 9.24403C7.0805 8.83477 7.07178 8.4166 7.07178 8.00734V7.99844Z" fill="#4BAD6E"/>
<path id="Vector_34" d="M7.83899 10.4897C8.52786 10.4541 8.55402 10.4719 8.55402 11.1747C8.55402 11.6018 8.55402 12.0289 8.55402 12.4559C8.55402 12.6428 8.46682 12.7406 8.29242 12.7139C8.13547 12.6961 7.84771 12.8029 7.86515 12.5627C7.92619 11.8331 7.43787 12.0111 7.0542 11.9933C7.06292 11.7175 7.06292 11.4506 7.07164 11.1747C7.81283 11.2192 7.81283 11.2192 7.83899 10.4897Z" fill="#373C39"/>
<path id="Vector_35" d="M14.1174 14.4043C14.1262 14.4132 14.1436 14.431 14.1523 14.431C14.8935 14.4043 14.8935 14.4043 14.9197 15.1784C14.1349 15.1873 13.3414 15.2051 12.5566 15.214C12.5566 14.9827 12.5479 14.7424 12.5479 14.5111C13.0536 14.2887 13.5942 14.4666 14.1174 14.4043Z" fill="#4BAD6E"/>
<path id="Vector_36" d="M9.41741 9.59985C9.67901 9.59985 9.93189 9.59985 10.1935 9.59985C10.1935 9.66213 10.1848 9.71552 10.1848 9.7778C10.176 9.78669 10.1586 9.79559 10.1586 9.80449C10.1673 9.83118 10.176 9.84897 10.1848 9.86677C10.1848 10.2227 10.1848 10.5696 10.1848 10.9255C10.176 10.9344 10.1586 10.9522 10.1586 10.9522C10.1673 10.9789 10.176 10.9967 10.1848 11.0234C10.1848 11.0768 10.1935 11.1391 10.1935 11.1924C9.93189 11.1924 9.67029 11.1835 9.40869 11.1835C9.41741 10.6675 9.41741 10.1337 9.41741 9.59985Z" fill="#4BAD6E"/>
<path id="Vector_37" d="M12.5479 13.6126C12.5566 13.577 12.5653 13.5414 12.574 13.5058C12.6438 13.4346 12.6525 13.3457 12.6351 13.2567C12.574 12.8652 12.7571 12.7763 13.1059 12.803C13.4373 12.8296 13.7686 12.7941 14.1087 12.7852L14.1349 12.8118C14.1349 13.0788 14.1349 13.3457 14.1349 13.6126C13.603 13.6037 13.071 13.6037 12.5479 13.6126Z" fill="#61C383"/>
<path id="Vector_38" d="M16.4635 13.5948C16.3501 13.2656 16.385 12.9364 16.446 12.5983C16.5245 12.1445 16.4199 12.0111 15.9751 12.0022C15.356 12.0022 14.7369 12.0022 14.1178 12.0022C14.1091 11.2014 14.1091 11.2014 14.8764 11.2014C15.5479 11.2014 16.2106 11.2103 16.882 11.1925C17.1436 11.1837 17.2483 11.2637 17.2395 11.5395C17.2308 12.0734 17.2134 12.6072 17.2483 13.141C17.2744 13.5236 17.1349 13.6481 16.7774 13.5948C16.664 13.577 16.5594 13.5948 16.4635 13.5948Z" fill="#92E3AF"/>
<path id="Vector_39" d="M14.0999 12.7852C13.7685 12.7941 13.4285 12.8208 13.0971 12.803C12.7483 12.7763 12.5652 12.8742 12.6262 13.2568C12.6437 13.3458 12.635 13.4347 12.5652 13.5059C12.5565 13.1233 12.5565 12.7407 12.5303 12.3582C12.5042 12.0557 12.6262 11.9845 12.9053 11.9934C13.3064 12.0112 13.7162 11.9934 14.1173 11.9934C14.1086 12.2603 14.1086 12.5183 14.0999 12.7852Z" fill="#92E3AF"/>
<path id="Vector_40" d="M16.4544 13.8884C16.4457 13.8617 16.4369 13.835 16.4282 13.8083C16.4282 13.7994 16.4457 13.7816 16.4544 13.7727C16.4544 13.8172 16.4544 13.8528 16.4544 13.8884Z" fill="#4F795F"/>
<path id="Vector_41" d="M6.2869 6.40576C7.06297 6.40576 7.06297 6.40576 7.06297 7.2065C7.06297 7.47341 7.07169 7.74033 7.07169 7.99834L7.04553 8.01614C6.78394 8.01614 6.52234 8.01614 6.26074 8.00724V8.01614C6.27818 7.48231 6.27818 6.93959 6.2869 6.40576Z" fill="#4BAD6E"/>
<path id="Vector_42" d="M2.36272 12.189C2.36272 12.1267 2.36272 12.0733 2.354 12.0111C2.6156 12.0111 2.86848 12.0111 3.13008 12.0111C3.91487 12.0111 3.91487 12.0111 3.93231 11.2014C4.4555 11.2014 4.97869 11.2014 5.50189 11.2103C5.50189 12.0022 5.50189 12.0022 6.2954 12.0199C6.2954 12.2869 6.28668 12.5538 6.28668 12.8118C6.17332 12.8118 6.05996 12.8118 5.9466 12.8118C5.8594 12.705 5.7722 12.705 5.67629 12.8029C4.66478 12.8029 3.64455 12.794 2.63304 12.794C2.3976 12.6516 2.49352 12.3669 2.36272 12.189Z" fill="#4BAD6E"/>
<path id="Vector_43" d="M2.36299 12.1892C2.49378 12.3672 2.39786 12.6519 2.62458 12.7942C2.53738 12.7942 2.45018 12.8031 2.36299 12.8031C2.35427 12.5985 2.35427 12.3938 2.36299 12.1892Z" fill="#4F795F"/>
<path id="Vector_44" d="M5.65918 12.8028C5.74638 12.7049 5.8423 12.7049 5.9295 12.8117C5.8423 12.8028 5.7551 12.8028 5.65918 12.8028Z" fill="#4F795F"/>
<path id="Vector_45" d="M0.784668 9.59992C1.56946 9.58212 1.56946 9.58212 1.56946 8.79918C2.87744 8.79918 4.19415 8.79918 5.50213 8.79918L5.49341 8.79028C5.49341 9.0572 5.49341 9.32411 5.49341 9.59992C4.58654 9.59992 3.67095 9.60882 2.76409 9.59102C2.44145 9.58212 2.31065 9.67999 2.34553 10.0181C2.36297 10.1604 2.40657 10.3918 2.17113 10.3918C1.7177 10.3829 1.24682 10.4896 0.802108 10.3206C0.793388 10.0804 0.784668 9.84014 0.784668 9.59992Z" fill="#92E3AF"/>
<path id="Vector_46" d="M10.9873 7.20666C10.9873 6.53938 10.9786 5.88099 10.9873 5.21371C10.996 4.92901 10.935 4.75106 10.6124 4.79555C10.2897 4.84893 10.1589 4.71548 10.1938 4.37739C10.2112 4.19055 10.1851 3.99481 10.2025 3.79907C10.2374 3.39871 10.1938 3.08731 9.67932 3.18517C9.49621 3.22076 9.39157 3.114 9.42645 2.92716C9.50493 2.45561 9.28693 2.32216 8.86837 2.38444C8.71141 2.41113 8.65038 2.31326 8.63294 2.14421C8.55446 1.53032 8.47598 1.47693 7.86558 1.66377C7.85686 1.37017 7.85686 1.07656 7.84814 0.782959C8.37134 0.782959 8.89453 0.782959 9.42645 0.782959C9.40029 1.61929 9.40029 1.61929 10.2112 1.5837C10.1764 2.58907 10.0804 2.38444 10.996 2.38444C10.9437 3.4165 10.9001 3.16738 11.7808 3.18517C11.7808 4.51974 11.7808 5.8543 11.7808 7.19777C11.5105 7.20666 11.2489 7.20666 10.9873 7.20666Z" fill="#92E3AF"/>
<path id="Vector_47" d="M10.1849 9.87559C10.1761 9.8578 10.1587 9.83111 10.1587 9.81331C10.1587 9.80442 10.1761 9.79552 10.1849 9.78662C10.1849 9.81331 10.1849 9.84 10.1849 9.87559Z" fill="#4F795F"/>
<path id="Vector_48" d="M10.1849 11.0324C10.1761 11.0057 10.1587 10.988 10.1587 10.9613C10.1587 10.9524 10.1761 10.9435 10.1849 10.9346C10.1849 10.9702 10.1849 11.0057 10.1849 11.0324Z" fill="#4F795F"/>
<path id="Vector_49" d="M0.802527 10.3205C1.24724 10.4896 1.71812 10.3828 2.17155 10.3917C2.41571 10.3917 2.36339 10.1604 2.34595 10.018C2.31107 9.68883 2.44187 9.59096 2.7645 9.59096C3.67137 9.60876 4.58696 9.59986 5.49383 9.59986C5.59847 9.59986 5.70311 9.61765 5.79903 9.59986C6.19142 9.52868 6.3135 9.69773 6.27862 10.0892C6.24374 10.4273 6.2699 10.7743 6.26118 11.1124C6.01703 11.2814 5.74671 11.1746 5.49383 11.2102C5.48511 10.4095 5.48511 10.4006 4.68288 10.4095C3.83705 10.4184 3.91553 10.2316 3.92425 11.2013C3.91553 12.011 3.91553 12.0021 3.12202 12.011C2.86042 12.011 2.60755 12.011 2.34595 12.011C2.08435 12.011 1.82276 12.011 1.56116 12.011C1.55244 11.0857 1.73556 11.2013 0.776367 11.2102C0.785087 10.9166 0.793807 10.6141 0.802527 10.3205Z" fill="#61C383"/>
<path id="Vector_50" d="M15.9487 14.3956C15.9836 14.36 16.0185 14.36 16.0534 14.3956C16.0098 14.3956 15.9836 14.3956 15.9487 14.3956Z" fill="#4F795F"/>
<path id="Vector_51" d="M5.49365 11.2014C5.74653 11.1747 6.02557 11.2815 6.261 11.1035C6.51388 11.2904 6.81036 11.1658 7.08067 11.1925V11.1836C7.07195 11.4594 7.07195 11.7263 7.06323 12.0021C6.80164 12.0021 6.54876 12.0021 6.28716 12.0021C5.49365 12.0021 5.49365 12.0021 5.49365 11.2014Z" fill="#4F795F"/>
<path id="Vector_52" d="M8.63258 4.80447C8.51922 4.80447 8.39714 4.82227 8.28378 4.80447C8.12682 4.78668 7.89139 4.90234 7.85651 4.64432C7.83035 4.44859 7.75187 4.19947 7.91755 4.05711C8.0745 3.93256 8.30994 3.99484 8.50178 4.02153C8.63258 4.03932 8.61514 4.17278 8.61514 4.27065C8.63258 4.44859 8.62386 4.62653 8.63258 4.80447Z" fill="#4F795F"/>
<path id="Vector_53" d="M14.1172 13.6127C14.1172 13.3457 14.1172 13.0788 14.1172 12.8119C14.2044 12.8119 14.2916 12.803 14.3788 12.8119C14.6404 12.8119 14.9281 12.7229 14.9107 13.2034C14.902 13.6393 14.6665 13.6305 14.3788 13.6127C14.2916 13.6038 14.2044 13.6127 14.1172 13.6127Z" fill="#4F795F"/>
<path id="Vector_54" d="M7.08067 11.2012C6.81036 11.1746 6.51388 11.2991 6.261 11.1123C6.261 10.7742 6.24356 10.4272 6.27844 10.0891C6.31332 9.69764 6.19124 9.53749 5.79885 9.59977C5.70293 9.61756 5.59829 9.59977 5.49365 9.59977C5.49365 9.33286 5.49365 9.06594 5.49365 8.79013C6.261 8.78124 6.261 8.78124 6.26972 7.99829C6.53132 7.99829 6.79292 7.99829 7.05451 8.00719C7.05451 8.41645 7.06323 8.83462 7.06323 9.24388C6.90628 9.52859 6.9586 9.68874 7.30739 9.67094C7.49923 9.66205 7.67363 9.71543 7.84803 9.77771C7.84803 9.92896 7.84803 10.0713 7.84803 10.2226C7.83059 10.2582 7.82187 10.2848 7.80443 10.3204C7.79571 10.3471 7.78699 10.3738 7.76955 10.4005C7.70851 10.4005 7.65619 10.4005 7.59515 10.4005C6.88884 10.4005 6.8278 10.4895 7.08067 11.2012Z" fill="#373C39"/>
<path id="Vector_55" d="M7.83916 9.78676C7.66477 9.71558 7.49037 9.6622 7.29853 9.67999C6.94973 9.70668 6.89741 9.53764 7.05437 9.25293C7.04565 9.52874 7.18517 9.60881 7.42933 9.59992C7.58629 9.59992 7.813 9.50205 7.83916 9.78676Z" fill="#4F795F"/>
<path id="Vector_56" d="M7.8042 10.3208C7.82164 10.2852 7.83036 10.2585 7.8478 10.2229C7.83036 10.2585 7.81292 10.2941 7.8042 10.3208Z" fill="#4F795F"/>
<path id="Vector_57" d="M3.92368 11.2015C3.91496 10.2317 3.83648 10.4185 4.68231 10.4096C5.47582 10.4007 5.47582 10.4096 5.49326 11.2104C4.97007 11.2015 4.44687 11.2015 3.92368 11.2015Z" fill="#4F795F"/>
</g>
</svg>
