<svg width="80" height="42" viewBox="0 0 80 42" fill="none" xmlns="http://www.w3.org/2000/svg">
<g id="logo" clip-path="url(#clip0_49_9499)">
<g id="Calque 2">
<g id="Layer 1">
<path id="Vector" d="M32.0003 0H28.8V3.22137H32.0003V0Z" fill="#2B1805"/>
<path id="Vector_2" d="M35.1998 0H32V3.22137H35.1998V0Z" fill="#2B1805"/>
<path id="Vector_3" d="M38.4004 0H35.2002V3.22137H38.4004V0Z" fill="#2B1805"/>
<path id="Vector_4" d="M41.6001 0H38.3999V3.22137H41.6001V0Z" fill="#2B1805"/>
<path id="Vector_5" d="M44.8003 0H41.6001V3.22137H44.8003V0Z" fill="#2B1805"/>
<path id="Vector_6" d="M48 0H44.7998V3.22137H48V0Z" fill="#2B1805"/>
<path id="Vector_7" d="M51.2002 0H48V3.22137H51.2002V0Z" fill="#2B1805"/>
<path id="Vector_8" d="M28.7996 3.22144H25.5999V6.44281H28.7996V3.22144Z" fill="#2B1805"/>
<path id="Vector_9" d="M32.0003 3.22144H28.8V6.44281H32.0003V3.22144Z" fill="#FFBC00"/>
<path id="Vector_10" d="M35.1998 3.22144H32V6.44281H35.1998V3.22144Z" fill="#FED211"/>
<path id="Vector_11" d="M38.4004 3.22144H35.2002V6.44281H38.4004V3.22144Z" fill="#FED211"/>
<path id="Vector_12" d="M41.6001 3.22144H38.3999V6.44281H41.6001V3.22144Z" fill="#FED211"/>
<path id="Vector_13" d="M44.8003 3.22144H41.6001V6.44281H44.8003V3.22144Z" fill="#FED211"/>
<path id="Vector_14" d="M48 3.22144H44.7998V6.44281H48V3.22144Z" fill="#FED211"/>
<path id="Vector_15" d="M51.2002 3.22144H48V6.44281H51.2002V3.22144Z" fill="#FED211"/>
<path id="Vector_16" d="M54.4002 3.22144H51.2V6.44281H54.4002V3.22144Z" fill="#2B1805"/>
<path id="Vector_17" d="M25.6004 6.44238H22.4001V9.66376H25.6004V6.44238Z" fill="#2B1805"/>
<path id="Vector_18" d="M28.7996 6.44238H25.5999V9.66376H28.7996V6.44238Z" fill="#FFBC00"/>
<path id="Vector_19" d="M32.0003 6.44238H28.8V9.66376H32.0003V6.44238Z" fill="#FFBC00"/>
<path id="Vector_20" d="M35.1998 6.44238H32V9.66376H35.1998V6.44238Z" fill="#FED211"/>
<path id="Vector_21" d="M38.4004 6.44238H35.2002V9.66376H38.4004V6.44238Z" fill="#FED211"/>
<path id="Vector_22" d="M41.6001 6.44238H38.3999V9.66376H41.6001V6.44238Z" fill="#FED211"/>
<path id="Vector_23" d="M44.8003 6.44238H41.6001V9.66376H44.8003V6.44238Z" fill="#FED211"/>
<path id="Vector_24" d="M48 6.44238H44.7998V9.66376H48V6.44238Z" fill="#FED211"/>
<path id="Vector_25" d="M51.2002 6.44238H48V9.66376H51.2002V6.44238Z" fill="#FED211"/>
<path id="Vector_26" d="M54.4002 6.44238H51.2V9.66376H54.4002V6.44238Z" fill="#FED211"/>
<path id="Vector_27" d="M57.6004 6.44238H54.4001V9.66376H57.6004V6.44238Z" fill="#2B1805"/>
<path id="Vector_28" d="M22.3997 9.66357H19.2V12.8849H22.3997V9.66357Z" fill="#2B1805"/>
<path id="Vector_29" d="M25.6004 9.66357H22.4001V12.8849H25.6004V9.66357Z" fill="#FFBC00"/>
<path id="Vector_30" d="M28.7996 9.66357H25.5999V12.8849H28.7996V9.66357Z" fill="#FFBC00"/>
<path id="Vector_31" d="M32.0003 9.66357H28.8V12.8849H32.0003V9.66357Z" fill="#FED211"/>
<path id="Vector_32" d="M35.1998 9.66357H32V12.8849H35.1998V9.66357Z" fill="#FED211"/>
<path id="Vector_33" d="M38.4004 9.66357H35.2002V12.8849H38.4004V9.66357Z" fill="#FED211"/>
<path id="Vector_34" d="M41.6001 9.66357H38.3999V12.8849H41.6001V9.66357Z" fill="#FED211"/>
<path id="Vector_35" d="M44.8003 9.66357H41.6001V12.8849H44.8003V9.66357Z" fill="#FED211"/>
<path id="Vector_36" d="M48 9.66357H44.7998V12.8849H48V9.66357Z" fill="#FED211"/>
<path id="Vector_37" d="M51.2002 9.66357H48V12.8849H51.2002V9.66357Z" fill="#FED211"/>
<path id="Vector_38" d="M54.4002 9.66357H51.2V12.8849H54.4002V9.66357Z" fill="#FED211"/>
<path id="Vector_39" d="M57.6004 9.66357H54.4001V12.8849H57.6004V9.66357Z" fill="#FED211"/>
<path id="Vector_40" d="M60.7996 9.66357H57.5999V12.8849H60.7996V9.66357Z" fill="#2B1805"/>
<path id="Vector_41" d="M22.3997 12.8845H19.2V16.1059H22.3997V12.8845Z" fill="#2B1805"/>
<path id="Vector_42" d="M25.6004 12.8845H22.4001V16.1059H25.6004V12.8845Z" fill="#FFBC00"/>
<path id="Vector_43" d="M28.7996 12.8845H25.5999V16.1059H28.7996V12.8845Z" fill="#FFBC00"/>
<path id="Vector_44" d="M32.0003 12.8845H28.8V16.1059H32.0003V12.8845Z" fill="#FED211"/>
<path id="Vector_45" d="M35.1998 12.8845H32V16.1059H35.1998V12.8845Z" fill="#FED211"/>
<path id="Vector_46" d="M38.4004 12.8845H35.2002V16.1059H38.4004V12.8845Z" fill="#FED211"/>
<path id="Vector_47" d="M41.6001 12.8845H38.3999V16.1059H41.6001V12.8845Z" fill="#FED211"/>
<path id="Vector_48" d="M44.8003 12.8845H41.6001V16.1059H44.8003V12.8845Z" fill="#FED211"/>
<path id="Vector_49" d="M48 12.8845H44.7998V16.1059H48V12.8845Z" fill="#FED211"/>
<path id="Vector_50" d="M51.2002 12.8845H48V16.1059H51.2002V12.8845Z" fill="#FED211"/>
<path id="Vector_51" d="M54.4002 12.8845H51.2V16.1059H54.4002V12.8845Z" fill="#FED211"/>
<path id="Vector_52" d="M57.6004 12.8845H54.4001V16.1059H57.6004V12.8845Z" fill="#FED211"/>
<path id="Vector_53" d="M60.7996 12.8845H57.5999V16.1059H60.7996V12.8845Z" fill="#2B1805"/>
<path id="Vector_54" d="M19.2005 16.106H16.0002V19.3269H19.2005V16.106Z" fill="#2B1805"/>
<path id="Vector_55" d="M22.3997 16.106H19.2V19.3269H22.3997V16.106Z" fill="#EA0303"/>
<path id="Vector_56" d="M25.6004 16.106H22.4001V19.3269H25.6004V16.106Z" fill="#EA0303"/>
<path id="Vector_57" d="M28.7996 16.106H25.5999V19.3269H28.7996V16.106Z" fill="#FFBC00"/>
<path id="Vector_58" d="M32.0003 16.106H28.8V19.3269H32.0003V16.106Z" fill="#FED211"/>
<path id="Vector_59" d="M35.1998 16.106H32V19.3269H35.1998V16.106Z" fill="#FED211"/>
<path id="Vector_60" d="M38.4004 16.106H35.2002V19.3269H38.4004V16.106Z" fill="#FED211"/>
<path id="Vector_61" d="M41.6001 16.106H38.3999V19.3269H41.6001V16.106Z" fill="#FED211"/>
<path id="Vector_62" d="M44.8003 16.106H41.6001V19.3269H44.8003V16.106Z" fill="#FED211"/>
<path id="Vector_63" d="M48 16.106H44.7998V19.3269H48V16.106Z" fill="#FED211"/>
<path id="Vector_64" d="M51.2002 16.106H48V19.3269H51.2002V16.106Z" fill="#FED211"/>
<path id="Vector_65" d="M54.4002 16.106H51.2V19.3269H54.4002V16.106Z" fill="#FED211"/>
<path id="Vector_66" d="M57.6004 16.106H54.4001V19.3269H57.6004V16.106Z" fill="#FF0111"/>
<path id="Vector_67" d="M60.7996 16.106H57.5999V19.3269H60.7996V16.106Z" fill="#FF0111"/>
<path id="Vector_68" d="M64.0003 16.106H60.8V19.3269H64.0003V16.106Z" fill="#2B1805"/>
<path id="Vector_69" d="M19.2005 19.3269H16.0002V22.5483H19.2005V19.3269Z" fill="#2B1805"/>
<path id="Vector_70" d="M22.3997 19.3269H19.2V22.5483H22.3997V19.3269Z" fill="#EA0303"/>
<path id="Vector_71" d="M25.6004 19.3269H22.4001V22.5483H25.6004V19.3269Z" fill="#EA0303"/>
<path id="Vector_72" d="M28.7996 19.3269H25.5999V22.5483H28.7996V19.3269Z" fill="#EA0303"/>
<path id="Vector_73" d="M32.0003 19.3269H28.8V22.5483H32.0003V19.3269Z" fill="#FF0111"/>
<path id="Vector_74" d="M35.1998 19.3269H32V22.5483H35.1998V19.3269Z" fill="#FF0111"/>
<path id="Vector_75" d="M38.4004 19.3269H35.2002V22.5483H38.4004V19.3269Z" fill="#FF0111"/>
<path id="Vector_76" d="M41.6001 19.3269H38.3999V22.5483H41.6001V19.3269Z" fill="#FF0111"/>
<path id="Vector_77" d="M44.8003 19.3269H41.6001V22.5483H44.8003V19.3269Z" fill="#FF0111"/>
<path id="Vector_78" d="M48 19.3269H44.7998V22.5483H48V19.3269Z" fill="#FF0111"/>
<path id="Vector_79" d="M51.2002 19.3269H48V22.5483H51.2002V19.3269Z" fill="#FF0111"/>
<path id="Vector_80" d="M54.4002 19.3269H51.2V22.5483H54.4002V19.3269Z" fill="#FF0111"/>
<path id="Vector_81" d="M57.6004 19.3269H54.4001V22.5483H57.6004V19.3269Z" fill="#FF0111"/>
<path id="Vector_82" d="M60.7996 19.3269H57.5999V22.5483H60.7996V19.3269Z" fill="#FF0111"/>
<path id="Vector_83" d="M64.0003 19.3269H60.8V22.5483H64.0003V19.3269Z" fill="#2B1805"/>
<path id="Vector_84" d="M12.8003 22.5481H9.6001V25.7695H12.8003V22.5481Z" fill="#2B1805"/>
<path id="Vector_85" d="M15.9998 22.5481H12.8V25.7695H15.9998V22.5481Z" fill="#2B1805"/>
<path id="Vector_86" d="M19.2005 22.5481H16.0002V25.7695H19.2005V22.5481Z" fill="#FFBC00"/>
<path id="Vector_87" d="M22.3997 22.5481H19.2V25.7695H22.3997V22.5481Z" fill="#FFBC00"/>
<path id="Vector_88" d="M25.6004 22.5481H22.4001V25.7695H25.6004V22.5481Z" fill="#EA0303"/>
<path id="Vector_89" d="M28.7996 22.5481H25.5999V25.7695H28.7996V22.5481Z" fill="#EA0303"/>
<path id="Vector_90" d="M32.0003 22.5481H28.8V25.7695H32.0003V22.5481Z" fill="#FF0111"/>
<path id="Vector_91" d="M35.1998 22.5481H32V25.7695H35.1998V22.5481Z" fill="#FF0111"/>
<path id="Vector_92" d="M38.4004 22.5481H35.2002V25.7695H38.4004V22.5481Z" fill="#FF0111"/>
<path id="Vector_93" d="M41.6001 22.5481H38.3999V25.7695H41.6001V22.5481Z" fill="#FF0111"/>
<path id="Vector_94" d="M44.8003 22.5481H41.6001V25.7695H44.8003V22.5481Z" fill="#FF0111"/>
<path id="Vector_95" d="M48 22.5481H44.7998V25.7695H48V22.5481Z" fill="#FF0111"/>
<path id="Vector_96" d="M51.2002 22.5481H48V25.7695H51.2002V22.5481Z" fill="#FF0111"/>
<path id="Vector_97" d="M54.4002 22.5481H51.2V25.7695H54.4002V22.5481Z" fill="#FF0111"/>
<path id="Vector_98" d="M57.6004 22.5481H54.4001V25.7695H57.6004V22.5481Z" fill="#FF0111"/>
<path id="Vector_99" d="M60.7996 22.5481H57.5999V25.7695H60.7996V22.5481Z" fill="#FED211"/>
<path id="Vector_100" d="M64.0003 22.5481H60.8V25.7695H64.0003V22.5481Z" fill="#FED211"/>
<path id="Vector_101" d="M67.2 22.5481H63.9998V25.7695H67.2V22.5481Z" fill="#2B1805"/>
<path id="Vector_102" d="M70.4002 22.5481H67.2V25.7695H70.4002V22.5481Z" fill="#2B1805"/>
<path id="Vector_103" d="M6.39993 25.769H3.19971V28.9904H6.39993V25.769Z" fill="#2B1805"/>
<path id="Vector_104" d="M9.60013 25.769H6.3999V28.9904H9.60013V25.769Z" fill="#2B1805"/>
<path id="Vector_105" d="M12.8003 25.769H9.6001V28.9904H12.8003V25.769Z" fill="#FFBC00"/>
<path id="Vector_106" d="M15.9998 25.769H12.8V28.9904H15.9998V25.769Z" fill="#FFBC00"/>
<path id="Vector_107" d="M19.2005 25.769H16.0002V28.9904H19.2005V25.769Z" fill="#FFBC00"/>
<path id="Vector_108" d="M22.3997 25.769H19.2V28.9904H22.3997V25.769Z" fill="#FFBC00"/>
<path id="Vector_109" d="M25.6004 25.769H22.4001V28.9904H25.6004V25.769Z" fill="#FFBC00"/>
<path id="Vector_110" d="M28.7996 25.769H25.5999V28.9904H28.7996V25.769Z" fill="#FED211"/>
<path id="Vector_111" d="M32.0003 25.769H28.8V28.9904H32.0003V25.769Z" fill="#FED211"/>
<path id="Vector_112" d="M35.1998 25.769H32V28.9904H35.1998V25.769Z" fill="#FED211"/>
<path id="Vector_113" d="M38.4004 25.769H35.2002V28.9904H38.4004V25.769Z" fill="#FED211"/>
<path id="Vector_114" d="M41.6001 25.769H38.3999V28.9904H41.6001V25.769Z" fill="#FED211"/>
<path id="Vector_115" d="M44.8003 25.769H41.6001V28.9904H44.8003V25.769Z" fill="#FED211"/>
<path id="Vector_116" d="M48 25.769H44.7998V28.9904H48V25.769Z" fill="#FED211"/>
<path id="Vector_117" d="M51.2002 25.769H48V28.9904H51.2002V25.769Z" fill="#FED211"/>
<path id="Vector_118" d="M54.4002 25.769H51.2V28.9904H54.4002V25.769Z" fill="#FED211"/>
<path id="Vector_119" d="M57.6004 25.769H54.4001V28.9904H57.6004V25.769Z" fill="#FED211"/>
<path id="Vector_120" d="M60.7996 25.769H57.5999V28.9904H60.7996V25.769Z" fill="#FED211"/>
<path id="Vector_121" d="M64.0003 25.769H60.8V28.9904H64.0003V25.769Z" fill="#FED211"/>
<path id="Vector_122" d="M67.2 25.769H63.9998V28.9904H67.2V25.769Z" fill="#FED211"/>
<path id="Vector_123" d="M70.4002 25.769H67.2V28.9904H70.4002V25.769Z" fill="#FED211"/>
<path id="Vector_124" d="M73.6001 25.769H70.3999V28.9904H73.6001V25.769Z" fill="#2B1805"/>
<path id="Vector_125" d="M76.8003 25.769H73.6001V28.9904H76.8003V25.769Z" fill="#2B1805"/>
<path id="Vector_126" d="M3.19975 28.9905H0V32.2119H3.19975V28.9905Z" fill="#2B1805"/>
<path id="Vector_127" d="M6.39993 28.9905H3.19971V32.2119H6.39993V28.9905Z" fill="#FFBC00"/>
<path id="Vector_128" d="M9.60013 28.9905H6.3999V32.2119H9.60013V28.9905Z" fill="#FFBC00"/>
<path id="Vector_129" d="M12.8003 28.9905H9.6001V32.2119H12.8003V28.9905Z" fill="#FFBC00"/>
<path id="Vector_130" d="M15.9998 28.9905H12.8V32.2119H15.9998V28.9905Z" fill="#FFBC00"/>
<path id="Vector_131" d="M19.2005 28.9905H16.0002V32.2119H19.2005V28.9905Z" fill="#FFBC00"/>
<path id="Vector_132" d="M22.3997 28.9905H19.2V32.2119H22.3997V28.9905Z" fill="#FFBC00"/>
<path id="Vector_133" d="M25.6004 28.9905H22.4001V32.2119H25.6004V28.9905Z" fill="#FED211"/>
<path id="Vector_134" d="M28.7996 28.9905H25.5999V32.2119H28.7996V28.9905Z" fill="#FED211"/>
<path id="Vector_135" d="M32.0003 28.9905H28.8V32.2119H32.0003V28.9905Z" fill="#FED211"/>
<path id="Vector_136" d="M35.1998 28.9905H32V32.2119H35.1998V28.9905Z" fill="#FED211"/>
<path id="Vector_137" d="M38.4004 28.9905H35.2002V32.2119H38.4004V28.9905Z" fill="#FED211"/>
<path id="Vector_138" d="M41.6001 28.9905H38.3999V32.2119H41.6001V28.9905Z" fill="#FED211"/>
<path id="Vector_139" d="M44.8003 28.9905H41.6001V32.2119H44.8003V28.9905Z" fill="#FED211"/>
<path id="Vector_140" d="M48 28.9905H44.7998V32.2119H48V28.9905Z" fill="#FED211"/>
<path id="Vector_141" d="M51.2002 28.9905H48V32.2119H51.2002V28.9905Z" fill="#FED211"/>
<path id="Vector_142" d="M54.4002 28.9905H51.2V32.2119H54.4002V28.9905Z" fill="#FED211"/>
<path id="Vector_143" d="M57.6004 28.9905H54.4001V32.2119H57.6004V28.9905Z" fill="#FED211"/>
<path id="Vector_144" d="M60.7996 28.9905H57.5999V32.2119H60.7996V28.9905Z" fill="#FED211"/>
<path id="Vector_145" d="M64.0003 28.9905H60.8V32.2119H64.0003V28.9905Z" fill="#FED211"/>
<path id="Vector_146" d="M67.2 28.9905H63.9998V32.2119H67.2V28.9905Z" fill="#FED211"/>
<path id="Vector_147" d="M70.4002 28.9905H67.2V32.2119H70.4002V28.9905Z" fill="#FED211"/>
<path id="Vector_148" d="M73.6001 28.9905H70.3999V32.2119H73.6001V28.9905Z" fill="#FED211"/>
<path id="Vector_149" d="M76.8003 28.9905H73.6001V32.2119H76.8003V28.9905Z" fill="#FED211"/>
<path id="Vector_150" d="M80 28.9905H76.7998V32.2119H80V28.9905Z" fill="#2B1805"/>
<path id="Vector_151" d="M6.39993 32.2114H3.19971V35.4328H6.39993V32.2114Z" fill="#2B1805"/>
<path id="Vector_152" d="M9.60013 32.2114H6.3999V35.4328H9.60013V32.2114Z" fill="#2B1805"/>
<path id="Vector_153" d="M12.8003 32.2114H9.6001V35.4328H12.8003V32.2114Z" fill="#FFBC00"/>
<path id="Vector_154" d="M12.8003 35.4326H9.6001V38.654H12.8003V35.4326Z" fill="#2B1805"/>
<path id="Vector_155" d="M15.9998 32.2114H12.8V35.4328H15.9998V32.2114Z" fill="#FFBC00"/>
<path id="Vector_156" d="M15.9998 35.4326H12.8V38.654H15.9998V35.4326Z" fill="#2B1805"/>
<path id="Vector_157" d="M19.2005 35.4326H16.0002V38.654H19.2005V35.4326Z" fill="#2B1805"/>
<path id="Vector_158" d="M22.3997 35.4326H19.2V38.654H22.3997V35.4326Z" fill="#FED211"/>
<path id="Vector_159" d="M25.6004 35.4326H22.4001V38.654H25.6004V35.4326Z" fill="#FED211"/>
<path id="Vector_160" d="M28.7996 35.4326H25.5999V38.654H28.7996V35.4326Z" fill="#FED211"/>
<path id="Vector_161" d="M32.0003 35.4326H28.8V38.654H32.0003V35.4326Z" fill="#FED211"/>
<path id="Vector_162" d="M35.1998 35.4326H32V38.654H35.1998V35.4326Z" fill="#FED211"/>
<path id="Vector_163" d="M38.4004 35.4326H35.2002V38.654H38.4004V35.4326Z" fill="#FED211"/>
<path id="Vector_164" d="M41.6001 35.4326H38.3999V38.654H41.6001V35.4326Z" fill="#FED211"/>
<path id="Vector_165" d="M44.8003 35.4326H41.6001V38.654H44.8003V35.4326Z" fill="#FED211"/>
<path id="Vector_166" d="M48 35.4326H44.7998V38.654H48V35.4326Z" fill="#FED211"/>
<path id="Vector_167" d="M51.2002 35.4326H48V38.654H51.2002V35.4326Z" fill="#FED211"/>
<path id="Vector_168" d="M54.4002 35.4326H51.2V38.654H54.4002V35.4326Z" fill="#FED211"/>
<path id="Vector_169" d="M57.6004 35.4326H54.4001V38.654H57.6004V35.4326Z" fill="#FED211"/>
<path id="Vector_170" d="M60.7996 35.4326H57.5999V38.654H60.7996V35.4326Z" fill="#FED211"/>
<path id="Vector_171" d="M64.0003 35.4326H60.8V38.654H64.0003V35.4326Z" fill="#2B1805"/>
<path id="Vector_172" d="M19.2005 32.2114H16.0002V35.4328H19.2005V32.2114Z" fill="#FFBC00"/>
<path id="Vector_173" d="M22.3997 32.2114H19.2V35.4328H22.3997V32.2114Z" fill="#FED211"/>
<path id="Vector_174" d="M25.6004 32.2114H22.4001V35.4328H25.6004V32.2114Z" fill="#FED211"/>
<path id="Vector_175" d="M28.7996 32.2114H25.5999V35.4328H28.7996V32.2114Z" fill="#FED211"/>
<path id="Vector_176" d="M32.0003 32.2114H28.8V35.4328H32.0003V32.2114Z" fill="#FED211"/>
<path id="Vector_177" d="M35.1998 32.2114H32V35.4328H35.1998V32.2114Z" fill="#FED211"/>
<path id="Vector_178" d="M38.4004 32.2114H35.2002V35.4328H38.4004V32.2114Z" fill="#FED211"/>
<path id="Vector_179" d="M41.6001 32.2114H38.3999V35.4328H41.6001V32.2114Z" fill="#FED211"/>
<path id="Vector_180" d="M44.8003 32.2114H41.6001V35.4328H44.8003V32.2114Z" fill="#FED211"/>
<path id="Vector_181" d="M48 32.2114H44.7998V35.4328H48V32.2114Z" fill="#FED211"/>
<path id="Vector_182" d="M51.2002 32.2114H48V35.4328H51.2002V32.2114Z" fill="#FED211"/>
<path id="Vector_183" d="M54.4002 32.2114H51.2V35.4328H54.4002V32.2114Z" fill="#FED211"/>
<path id="Vector_184" d="M57.6004 32.2114H54.4001V35.4328H57.6004V32.2114Z" fill="#FED211"/>
<path id="Vector_185" d="M60.7996 32.2114H57.5999V35.4328H60.7996V32.2114Z" fill="#FED211"/>
<path id="Vector_186" d="M64.0003 32.2114H60.8V35.4328H64.0003V32.2114Z" fill="#FED211"/>
<path id="Vector_187" d="M67.2 32.2114H63.9998V35.4328H67.2V32.2114Z" fill="#FED211"/>
<path id="Vector_188" d="M67.2 35.4326H63.9998V38.654H67.2V35.4326Z" fill="#2B1805"/>
<path id="Vector_189" d="M70.4002 32.2114H67.2V35.4328H70.4002V32.2114Z" fill="#FED211"/>
<path id="Vector_190" d="M70.4002 35.4326H67.2V38.654H70.4002V35.4326Z" fill="#2B1805"/>
<path id="Vector_191" d="M73.6001 32.2114H70.3999V35.4328H73.6001V32.2114Z" fill="#2B1805"/>
<path id="Vector_192" d="M76.8003 32.2114H73.6001V35.4328H76.8003V32.2114Z" fill="#2B1805"/>
<path id="Vector_193" d="M22.3997 38.6536H19.2V41.8749H22.3997V38.6536Z" fill="#2B1805"/>
<path id="Vector_194" d="M25.6004 38.6536H22.4001V41.8749H25.6004V38.6536Z" fill="#2B1805"/>
<path id="Vector_195" d="M28.7996 38.6536H25.5999V41.8749H28.7996V38.6536Z" fill="#2B1805"/>
<path id="Vector_196" d="M32.0003 38.6536H28.8V41.8749H32.0003V38.6536Z" fill="#2B1805"/>
<path id="Vector_197" d="M35.1998 38.6536H32V41.8749H35.1998V38.6536Z" fill="#2B1805"/>
<path id="Vector_198" d="M38.4004 38.6536H35.2002V41.8749H38.4004V38.6536Z" fill="#2B1805"/>
<path id="Vector_199" d="M41.6001 38.6536H38.3999V41.8749H41.6001V38.6536Z" fill="#2B1805"/>
<path id="Vector_200" d="M44.8003 38.6536H41.6001V41.8749H44.8003V38.6536Z" fill="#2B1805"/>
<path id="Vector_201" d="M48 38.6536H44.7998V41.8749H48V38.6536Z" fill="#2B1805"/>
<path id="Vector_202" d="M51.2002 38.6536H48V41.8749H51.2002V38.6536Z" fill="#2B1805"/>
<path id="Vector_203" d="M54.4002 38.6536H51.2V41.8749H54.4002V38.6536Z" fill="#2B1805"/>
<path id="Vector_204" d="M57.6004 38.6536H54.4001V41.8749H57.6004V38.6536Z" fill="#2B1805"/>
<path id="Vector_205" d="M60.7996 38.6536H57.5999V41.8749H60.7996V38.6536Z" fill="#2B1805"/>
</g>
</g>
</g>
<defs>
<clipPath id="clip0_49_9499">
<rect width="80" height="41.875" fill="white"/>
</clipPath>
</defs>
</svg>
