<svg width="60" height="60" viewBox="0 0 60 60" fill="none" xmlns="http://www.w3.org/2000/svg">
<path d="M11.2558 0H7.51147V3.99351H11.2558V0Z" fill="#2B1805"/>
<path d="M14.9999 0H11.2556V3.99351H14.9999V0Z" fill="#2B1805"/>
<path d="M18.7443 0H15V3.99351H18.7443V0Z" fill="#2B1805"/>
<path d="M22.4887 0H18.7444V3.99351H22.4887V0Z" fill="#2B1805"/>
<path d="M26.2558 0H22.5115V3.99351H26.2558V0Z" fill="#2B1805"/>
<path d="M29.9999 0H26.2556V3.99351H29.9999V0Z" fill="#2B1805"/>
<path d="M33.7443 0H30V3.99351H33.7443V0Z" fill="#2B1805"/>
<path d="M37.5114 0H33.7671V3.99351H37.5114V0Z" fill="#2B1805"/>
<path d="M41.2558 0H37.5115V3.99351H41.2558V0Z" fill="#2B1805"/>
<path d="M45.0002 0H41.2559V3.99351H45.0002V0Z" fill="#2B1805"/>
<path d="M48.7672 0H45.0229V3.99351H48.7672V0Z" fill="#2B1805"/>
<path d="M52.5114 0H48.7671V3.99351H52.5114V0Z" fill="#2B1805"/>
<path d="M7.48843 3.99341H3.74414V7.98691H7.48843V3.99341Z" fill="#2B1805"/>
<path d="M11.2558 3.99341H7.51147V7.98691H11.2558V3.99341Z" fill="#9455F9"/>
<path d="M14.9999 3.99341H11.2556V7.98691H14.9999V3.99341Z" fill="#9455F9"/>
<path d="M18.7443 3.99341H15V7.98691H18.7443V3.99341Z" fill="#9455F9"/>
<path d="M22.4887 3.99341H18.7444V7.98691H22.4887V3.99341Z" fill="#9455F9"/>
<path d="M26.2558 3.99341H22.5115V7.98691H26.2558V3.99341Z" fill="#9455F9"/>
<path d="M29.9999 3.99341H26.2556V7.98691H29.9999V3.99341Z" fill="#9455F9"/>
<path d="M33.7443 3.99341H30V7.98691H33.7443V3.99341Z" fill="#9455F9"/>
<path d="M37.5114 3.99341H33.7671V7.98691H37.5114V3.99341Z" fill="#9455F9"/>
<path d="M41.2558 3.99341H37.5115V7.98691H41.2558V3.99341Z" fill="#9455F9"/>
<path d="M45.0002 3.99341H41.2559V7.98691H45.0002V3.99341Z" fill="#9455F9"/>
<path d="M48.7672 3.99341H45.0229V7.98691H48.7672V3.99341Z" fill="#9455F9"/>
<path d="M52.5114 3.99341H48.7671V7.98691H52.5114V3.99341Z" fill="#9455F9"/>
<path d="M56.2558 3.99341H52.5115V7.98691H56.2558V3.99341Z" fill="#2B1805"/>
<path d="M3.74429 8.01147H0V12.005H3.74429V8.01147Z" fill="#2B1805"/>
<path d="M7.48843 8.01147H3.74414V12.005H7.48843V8.01147Z" fill="#9455F9"/>
<path d="M11.2558 8.01147H7.51147V12.005H11.2558V8.01147Z" fill="#9455F9"/>
<path d="M14.9999 8.01147H11.2556V12.005H14.9999V8.01147Z" fill="#9455F9"/>
<path d="M18.7443 8.01147H15V12.005H18.7443V8.01147Z" fill="#9455F9"/>
<path d="M22.4887 8.01147H18.7444V12.005H22.4887V8.01147Z" fill="#9455F9"/>
<path d="M26.2558 8.01147H22.5115V12.005H26.2558V8.01147Z" fill="#9455F9"/>
<path d="M29.9999 8.01147H26.2556V12.005H29.9999V8.01147Z" fill="#9455F9"/>
<path d="M33.7443 8.01147H30V12.005H33.7443V8.01147Z" fill="#FFFDFF"/>
<path d="M37.5114 8.01147H33.7671V12.005H37.5114V8.01147Z" fill="#FFFDFF"/>
<path d="M41.2558 8.01147H37.5115V12.005H41.2558V8.01147Z" fill="#9455F9"/>
<path d="M45.0002 8.01147H41.2559V12.005H45.0002V8.01147Z" fill="#9455F9"/>
<path d="M48.7672 8.01147H45.0229V12.005H48.7672V8.01147Z" fill="#9455F9"/>
<path d="M52.5114 8.01147H48.7671V12.005H52.5114V8.01147Z" fill="#9455F9"/>
<path d="M56.2558 8.01147H52.5115V12.005H56.2558V8.01147Z" fill="#AB7AF9"/>
<path d="M59.9999 8.01147H56.2556V12.005H59.9999V8.01147Z" fill="#2B1805"/>
<path d="M3.74429 8.01147H0V12.005H3.74429V8.01147Z" fill="#2B1805"/>
<path d="M7.48843 8.01147H3.74414V12.005H7.48843V8.01147Z" fill="#9455F9"/>
<path d="M11.2558 8.01147H7.51147V12.005H11.2558V8.01147Z" fill="#9455F9"/>
<path d="M14.9999 8.01147H11.2556V12.005H14.9999V8.01147Z" fill="#9455F9"/>
<path d="M18.7443 8.01147H15V12.005H18.7443V8.01147Z" fill="#9455F9"/>
<path d="M22.4887 8.01147H18.7444V12.005H22.4887V8.01147Z" fill="#9455F9"/>
<path d="M26.2558 8.01147H22.5115V12.005H26.2558V8.01147Z" fill="#9455F9"/>
<path d="M29.9999 8.01147H26.2556V12.005H29.9999V8.01147Z" fill="#9455F9"/>
<path d="M33.7443 12.0049H30V15.9984H33.7443V12.0049Z" fill="#FFFDFF"/>
<path d="M37.5114 12.0049H33.7671V15.9984H37.5114V12.0049Z" fill="#FFFDFF"/>
<path d="M41.2558 12.0049H37.5115V15.9984H41.2558V12.0049Z" fill="#FFFDFF"/>
<path d="M45.0002 8.01147H41.2559V12.005H45.0002V8.01147Z" fill="#9455F9"/>
<path d="M45.0002 12.0049H41.2559V15.9984H45.0002V12.0049Z" fill="#9455F9"/>
<path d="M48.7672 8.01147H45.0229V12.005H48.7672V8.01147Z" fill="#9455F9"/>
<path d="M52.5114 8.01147H48.7671V12.005H52.5114V8.01147Z" fill="#9455F9"/>
<path d="M56.2558 8.01147H52.5115V12.005H56.2558V8.01147Z" fill="#AB7AF9"/>
<path d="M59.9999 8.01147H56.2556V12.005H59.9999V8.01147Z" fill="#2B1805"/>
<path d="M3.74429 12.0049H0V15.9984H3.74429V12.0049Z" fill="#2B1805"/>
<path d="M7.48843 12.0049H3.74414V15.9984H7.48843V12.0049Z" fill="#9455F9"/>
<path d="M11.2558 12.0049H7.51147V15.9984H11.2558V12.0049Z" fill="#9455F9"/>
<path d="M14.9999 12.0049H11.2556V15.9984H14.9999V12.0049Z" fill="#9455F9"/>
<path d="M18.7443 12.0049H15V15.9984H18.7443V12.0049Z" fill="#9455F9"/>
<path d="M22.4887 12.0049H18.7444V15.9984H22.4887V12.0049Z" fill="#9455F9"/>
<path d="M26.2558 12.0049H22.5115V15.9984H26.2558V12.0049Z" fill="#9455F9"/>
<path d="M29.9999 12.0049H26.2556V15.9984H29.9999V12.0049Z" fill="#9455F9"/>
<path d="M33.7443 12.0049H30V15.9984H33.7443V12.0049Z" fill="#FFFDFF"/>
<path d="M37.5114 12.0049H33.7671V15.9984H37.5114V12.0049Z" fill="#9455F9"/>
<path d="M41.2558 15.9983H37.5115V19.9918H41.2558V15.9983Z" fill="#FFFDFF"/>
<path d="M45.0002 15.9983H41.2559V19.9918H45.0002V15.9983Z" fill="#FFFDFF"/>
<path d="M48.7672 12.0049H45.0229V15.9984H48.7672V12.0049Z" fill="#9455F9"/>
<path d="M52.5114 12.0049H48.7671V15.9984H52.5114V12.0049Z" fill="#9455F9"/>
<path d="M56.2558 12.0049H52.5115V15.9984H56.2558V12.0049Z" fill="#AB7AF9"/>
<path d="M59.9999 12.0049H56.2556V15.9984H59.9999V12.0049Z" fill="#2B1805"/>
<path d="M3.74429 15.9983H0V19.9918H3.74429V15.9983Z" fill="#2B1805"/>
<path d="M7.48843 15.9983H3.74414V19.9918H7.48843V15.9983Z" fill="#9455F9"/>
<path d="M11.2558 15.9983H7.51147V19.9918H11.2558V15.9983Z" fill="#9455F9"/>
<path d="M14.9999 15.9983H11.2556V19.9918H14.9999V15.9983Z" fill="#9455F9"/>
<path d="M18.7443 15.9983H15V19.9918H18.7443V15.9983Z" fill="#9455F9"/>
<path d="M22.4887 15.9983H18.7444V19.9918H22.4887V15.9983Z" fill="#9455F9"/>
<path d="M26.2558 15.9983H22.5115V19.9918H26.2558V15.9983Z" fill="#9455F9"/>
<path d="M29.9999 15.9983H26.2556V19.9918H29.9999V15.9983Z" fill="#9455F9"/>
<path d="M33.7443 15.9983H30V19.9918H33.7443V15.9983Z" fill="#FFFDFF"/>
<path d="M37.5114 15.9983H33.7671V19.9918H37.5114V15.9983Z" fill="#9455F9"/>
<path d="M41.2558 19.9919H37.5115V23.9855H41.2558V19.9919Z" fill="#FFFDFF"/>
<path d="M45.0002 19.9919H41.2559V23.9855H45.0002V19.9919Z" fill="#FFFDFF"/>
<path d="M48.7672 15.9983H45.0229V19.9918H48.7672V15.9983Z" fill="#9455F9"/>
<path d="M52.5114 15.9983H48.7671V19.9918H52.5114V15.9983Z" fill="#9455F9"/>
<path d="M56.2558 15.9983H52.5115V19.9918H56.2558V15.9983Z" fill="#AB7AF9"/>
<path d="M59.9999 15.9983H56.2556V19.9918H59.9999V15.9983Z" fill="#2B1805"/>
<path d="M3.74429 19.9919H0V23.9855H3.74429V19.9919Z" fill="#2B1805"/>
<path d="M7.48843 19.9919H3.74414V23.9855H7.48843V19.9919Z" fill="#9455F9"/>
<path d="M11.2558 19.9919H7.51147V23.9855H11.2558V19.9919Z" fill="#9455F9"/>
<path d="M14.9999 19.9919H11.2556V23.9855H14.9999V19.9919Z" fill="#9455F9"/>
<path d="M18.7443 19.9919H15V23.9855H18.7443V19.9919Z" fill="#9455F9"/>
<path d="M22.4887 19.9919H18.7444V23.9855H22.4887V19.9919Z" fill="#9455F9"/>
<path d="M26.2558 19.9919H22.5115V23.9855H26.2558V19.9919Z" fill="#9455F9"/>
<path d="M29.9999 19.9919H26.2556V23.9855H29.9999V19.9919Z" fill="#9455F9"/>
<path d="M33.7443 19.9919H30V23.9855H33.7443V19.9919Z" fill="#FFFDFF"/>
<path d="M37.5114 19.9919H33.7671V23.9855H37.5114V19.9919Z" fill="#9455F9"/>
<path d="M41.2558 19.9919H37.5115V23.9855H41.2558V19.9919Z" fill="#9455F9"/>
<path d="M45.0002 24.0098H41.2559V28.0033H45.0002V24.0098Z" fill="#FFFDFF"/>
<path d="M48.7672 19.9919H45.0229V23.9855H48.7672V19.9919Z" fill="#9455F9"/>
<path d="M52.5114 19.9919H48.7671V23.9855H52.5114V19.9919Z" fill="#9455F9"/>
<path d="M56.2558 19.9919H52.5115V23.9855H56.2558V19.9919Z" fill="#AB7AF9"/>
<path d="M59.9999 19.9919H56.2556V23.9855H59.9999V19.9919Z" fill="#2B1805"/>
<path d="M3.74429 24.0098H0V28.0033H3.74429V24.0098Z" fill="#2B1805"/>
<path d="M7.48843 24.0098H3.74414V28.0033H7.48843V24.0098Z" fill="#9455F9"/>
<path d="M11.2558 24.0098H7.51147V28.0033H11.2558V24.0098Z" fill="#9455F9"/>
<path d="M14.9999 24.0098H11.2556V28.0033H14.9999V24.0098Z" fill="#9455F9"/>
<path d="M18.7443 24.0098H15V28.0033H18.7443V24.0098Z" fill="#9455F9"/>
<path d="M22.4887 24.0098H18.7444V28.0033H22.4887V24.0098Z" fill="#FFFDFF"/>
<path d="M26.2558 24.0098H22.5115V28.0033H26.2558V24.0098Z" fill="#FFFDFF"/>
<path d="M29.9999 24.0098H26.2556V28.0033H29.9999V24.0098Z" fill="#FFFDFF"/>
<path d="M33.7443 24.0098H30V28.0033H33.7443V24.0098Z" fill="#FFFDFF"/>
<path d="M37.5114 24.0098H33.7671V28.0033H37.5114V24.0098Z" fill="#9455F9"/>
<path d="M41.2558 24.0098H37.5115V28.0033H41.2558V24.0098Z" fill="#9455F9"/>
<path d="M45.0002 24.0098H41.2559V28.0033H45.0002V24.0098Z" fill="#9455F9"/>
<path d="M48.7672 24.0098H45.0229V28.0033H48.7672V24.0098Z" fill="#9455F9"/>
<path d="M52.5114 24.0098H48.7671V28.0033H52.5114V24.0098Z" fill="#9455F9"/>
<path d="M56.2558 24.0098H52.5115V28.0033H56.2558V24.0098Z" fill="#AB7AF9"/>
<path d="M59.9999 24.0098H56.2556V28.0033H59.9999V24.0098Z" fill="#2B1805"/>
<path d="M3.74429 28.0032H0V31.9967H3.74429V28.0032Z" fill="#2B1805"/>
<path d="M7.48843 28.0032H3.74414V31.9967H7.48843V28.0032Z" fill="#9455F9"/>
<path d="M11.2558 28.0032H7.51147V31.9967H11.2558V28.0032Z" fill="#9455F9"/>
<path d="M14.9999 28.0032H11.2556V31.9967H14.9999V28.0032Z" fill="#9455F9"/>
<path d="M18.7443 28.0032H15V31.9967H18.7443V28.0032Z" fill="#FFFDFF"/>
<path d="M22.4887 28.0032H18.7444V31.9967H22.4887V28.0032Z" fill="#FFFDFF"/>
<path d="M26.2558 28.0032H22.5115V31.9967H26.2558V28.0032Z" fill="#FFFDFF"/>
<path d="M29.9999 28.0032H26.2556V31.9967H29.9999V28.0032Z" fill="#FFFDFF"/>
<path d="M33.7443 28.0032H30V31.9967H33.7443V28.0032Z" fill="#FFFDFF"/>
<path d="M37.5114 28.0032H33.7671V31.9967H37.5114V28.0032Z" fill="#9455F9"/>
<path d="M41.2558 28.0032H37.5115V31.9967H41.2558V28.0032Z" fill="#9455F9"/>
<path d="M45.0002 28.0032H41.2559V31.9967H45.0002V28.0032Z" fill="#9455F9"/>
<path d="M48.7672 28.0032H45.0229V31.9967H48.7672V28.0032Z" fill="#9455F9"/>
<path d="M52.5114 28.0032H48.7671V31.9967H52.5114V28.0032Z" fill="#9455F9"/>
<path d="M56.2558 28.0032H52.5115V31.9967H56.2558V28.0032Z" fill="#AB7AF9"/>
<path d="M59.9999 28.0032H56.2556V31.9967H59.9999V28.0032Z" fill="#2B1805"/>
<path d="M3.74429 31.9968H0V35.9903H3.74429V31.9968Z" fill="#2B1805"/>
<path d="M7.48843 31.9968H3.74414V35.9903H7.48843V31.9968Z" fill="#9455F9"/>
<path d="M11.2558 31.9968H7.51147V35.9903H11.2558V31.9968Z" fill="#9455F9"/>
<path d="M14.9999 31.9968H11.2556V35.9903H14.9999V31.9968Z" fill="#9455F9"/>
<path d="M18.7443 31.9968H15V35.9903H18.7443V31.9968Z" fill="#9455F9"/>
<path d="M22.4887 31.9968H18.7444V35.9903H22.4887V31.9968Z" fill="#FFFDFF"/>
<path d="M26.2558 31.9968H22.5115V35.9903H26.2558V31.9968Z" fill="#FFFDFF"/>
<path d="M29.9999 31.9968H26.2556V35.9903H29.9999V31.9968Z" fill="#FFFDFF"/>
<path d="M33.7443 31.9968H30V35.9903H33.7443V31.9968Z" fill="#9455F9"/>
<path d="M37.5114 31.9968H33.7671V35.9903H37.5114V31.9968Z" fill="#9455F9"/>
<path d="M41.2558 31.9968H37.5115V35.9903H41.2558V31.9968Z" fill="#9455F9"/>
<path d="M45.0002 31.9968H41.2559V35.9903H45.0002V31.9968Z" fill="#9455F9"/>
<path d="M48.7672 31.9968H45.0229V35.9903H48.7672V31.9968Z" fill="#9455F9"/>
<path d="M52.5114 31.9968H48.7671V35.9903H52.5114V31.9968Z" fill="#9455F9"/>
<path d="M56.2558 31.9968H52.5115V35.9903H56.2558V31.9968Z" fill="#AB7AF9"/>
<path d="M59.9999 31.9968H56.2556V35.9903H59.9999V31.9968Z" fill="#2B1805"/>
<path d="M3.74429 36.0146H0V40.0082H3.74429V36.0146Z" fill="#2B1805"/>
<path d="M7.48843 36.0146H3.74414V40.0082H7.48843V36.0146Z" fill="#AB7AF9"/>
<path d="M11.2558 36.0146H7.51147V40.0082H11.2558V36.0146Z" fill="#9455F9"/>
<path d="M14.9999 36.0146H11.2556V40.0082H14.9999V36.0146Z" fill="#9455F9"/>
<path d="M18.7443 36.0146H15V40.0082H18.7443V36.0146Z" fill="#9455F9"/>
<path d="M22.4887 36.0146H18.7444V40.0082H22.4887V36.0146Z" fill="#9455F9"/>
<path d="M26.2558 36.0146H22.5115V40.0082H26.2558V36.0146Z" fill="#9455F9"/>
<path d="M29.9999 36.0146H26.2556V40.0082H29.9999V36.0146Z" fill="#9455F9"/>
<path d="M33.7443 36.0146H30V40.0082H33.7443V36.0146Z" fill="#9455F9"/>
<path d="M37.5114 36.0146H33.7671V40.0082H37.5114V36.0146Z" fill="#9455F9"/>
<path d="M41.2558 36.0146H37.5115V40.0082H41.2558V36.0146Z" fill="#9455F9"/>
<path d="M45.0002 36.0146H41.2559V40.0082H45.0002V36.0146Z" fill="#9455F9"/>
<path d="M48.7672 36.0146H45.0229V40.0082H48.7672V36.0146Z" fill="#9455F9"/>
<path d="M52.5114 36.0146H48.7671V40.0082H52.5114V36.0146Z" fill="#AB7AF9"/>
<path d="M56.2558 36.0146H52.5115V40.0082H56.2558V36.0146Z" fill="#AB7AF9"/>
<path d="M59.9999 36.0146H56.2556V40.0082H59.9999V36.0146Z" fill="#2B1805"/>
<path d="M3.74429 40.0081H0V44.0016H3.74429V40.0081Z" fill="#2B1805"/>
<path d="M7.48843 40.0081H3.74414V44.0016H7.48843V40.0081Z" fill="#7230D8"/>
<path d="M11.2558 40.0081H7.51147V44.0016H11.2558V40.0081Z" fill="#AB7AF9"/>
<path d="M14.9999 40.0081H11.2556V44.0016H14.9999V40.0081Z" fill="#AB7AF9"/>
<path d="M18.7443 40.0081H15V44.0016H18.7443V40.0081Z" fill="#AB7AF9"/>
<path d="M22.4887 40.0081H18.7444V44.0016H22.4887V40.0081Z" fill="#AB7AF9"/>
<path d="M26.2558 40.0081H22.5115V44.0016H26.2558V40.0081Z" fill="#AB7AF9"/>
<path d="M29.9999 40.0081H26.2556V44.0016H29.9999V40.0081Z" fill="#AB7AF9"/>
<path d="M33.7443 40.0081H30V44.0016H33.7443V40.0081Z" fill="#AB7AF9"/>
<path d="M37.5114 40.0081H33.7671V44.0016H37.5114V40.0081Z" fill="#AB7AF9"/>
<path d="M41.2558 40.0081H37.5115V44.0016H41.2558V40.0081Z" fill="#AB7AF9"/>
<path d="M45.0002 40.0081H41.2559V44.0016H45.0002V40.0081Z" fill="#AB7AF9"/>
<path d="M48.7672 40.0081H45.0229V44.0016H48.7672V40.0081Z" fill="#AB7AF9"/>
<path d="M52.5114 40.0081H48.7671V44.0016H52.5114V40.0081Z" fill="#AB7AF9"/>
<path d="M56.2558 40.0081H52.5115V44.0016H56.2558V40.0081Z" fill="#7230D8"/>
<path d="M59.9999 40.0081H56.2556V44.0016H59.9999V40.0081Z" fill="#2B1805"/>
<path d="M3.74429 44.0017H0V47.9952H3.74429V44.0017Z" fill="#2B1805"/>
<path d="M7.48843 44.0017H3.74414V47.9952H7.48843V44.0017Z" fill="#7230D8"/>
<path d="M11.2558 44.0017H7.51147V47.9952H11.2558V44.0017Z" fill="#7230D8"/>
<path d="M14.9999 44.0017H11.2556V47.9952H14.9999V44.0017Z" fill="#7230D8"/>
<path d="M18.7443 44.0017H15V47.9952H18.7443V44.0017Z" fill="#7230D8"/>
<path d="M22.4887 44.0017H18.7444V47.9952H22.4887V44.0017Z" fill="#7230D8"/>
<path d="M26.2558 44.0017H22.5115V47.9952H26.2558V44.0017Z" fill="#7230D8"/>
<path d="M29.9999 44.0017H26.2556V47.9952H29.9999V44.0017Z" fill="#7230D8"/>
<path d="M33.7443 44.0017H30V47.9952H33.7443V44.0017Z" fill="#7230D8"/>
<path d="M37.5114 44.0017H33.7671V47.9952H37.5114V44.0017Z" fill="#7230D8"/>
<path d="M41.2558 44.0017H37.5115V47.9952H41.2558V44.0017Z" fill="#7230D8"/>
<path d="M45.0002 44.0017H41.2559V47.9952H45.0002V44.0017Z" fill="#7230D8"/>
<path d="M48.7672 44.0017H45.0229V47.9952H48.7672V44.0017Z" fill="#7230D8"/>
<path d="M52.5114 44.0017H48.7671V47.9952H52.5114V44.0017Z" fill="#7230D8"/>
<path d="M56.2558 44.0017H52.5115V47.9952H56.2558V44.0017Z" fill="#7230D8"/>
<path d="M59.9999 44.0017H56.2556V47.9952H59.9999V44.0017Z" fill="#2B1805"/>
<path d="M3.74429 48.0195H0V52.013H3.74429V48.0195Z" fill="#2B1805"/>
<path d="M7.48843 48.0195H3.74414V52.013H7.48843V48.0195Z" fill="#7230D8"/>
<path d="M11.2558 48.0195H7.51147V52.013H11.2558V48.0195Z" fill="#7230D8"/>
<path d="M14.9999 48.0195H11.2556V52.013H14.9999V48.0195Z" fill="#7230D8"/>
<path d="M18.7443 48.0195H15V52.013H18.7443V48.0195Z" fill="#7230D8"/>
<path d="M22.4887 48.0195H18.7444V52.013H22.4887V48.0195Z" fill="#7230D8"/>
<path d="M26.2558 48.0195H22.5115V52.013H26.2558V48.0195Z" fill="#7230D8"/>
<path d="M29.9999 48.0195H26.2556V52.013H29.9999V48.0195Z" fill="#7230D8"/>
<path d="M33.7443 48.0195H30V52.013H33.7443V48.0195Z" fill="#7230D8"/>
<path d="M37.5114 48.0195H33.7671V52.013H37.5114V48.0195Z" fill="#7230D8"/>
<path d="M41.2558 48.0195H37.5115V52.013H41.2558V48.0195Z" fill="#7230D8"/>
<path d="M45.0002 48.0195H41.2559V52.013H45.0002V48.0195Z" fill="#7230D8"/>
<path d="M48.7672 48.0195H45.0229V52.013H48.7672V48.0195Z" fill="#7230D8"/>
<path d="M52.5114 48.0195H48.7671V52.013H52.5114V48.0195Z" fill="#7230D8"/>
<path d="M56.2558 48.0195H52.5115V52.013H56.2558V48.0195Z" fill="#7230D8"/>
<path d="M59.9999 48.0195H56.2556V52.013H59.9999V48.0195Z" fill="#2B1805"/>
<path d="M7.48843 52.0129H3.74414V56.0064H7.48843V52.0129Z" fill="#2B1805"/>
<path d="M11.2558 52.0129H7.51147V56.0064H11.2558V52.0129Z" fill="#7230D8"/>
<path d="M14.9999 52.0129H11.2556V56.0064H14.9999V52.0129Z" fill="#7230D8"/>
<path d="M18.7443 52.0129H15V56.0064H18.7443V52.0129Z" fill="#7230D8"/>
<path d="M22.4887 52.0129H18.7444V56.0064H22.4887V52.0129Z" fill="#7230D8"/>
<path d="M26.2558 52.0129H22.5115V56.0064H26.2558V52.0129Z" fill="#7230D8"/>
<path d="M29.9999 52.0129H26.2556V56.0064H29.9999V52.0129Z" fill="#7230D8"/>
<path d="M33.7443 52.0129H30V56.0064H33.7443V52.0129Z" fill="#7230D8"/>
<path d="M37.5114 52.0129H33.7671V56.0064H37.5114V52.0129Z" fill="#7230D8"/>
<path d="M41.2558 52.0129H37.5115V56.0064H41.2558V52.0129Z" fill="#7230D8"/>
<path d="M45.0002 52.0129H41.2559V56.0064H45.0002V52.0129Z" fill="#7230D8"/>
<path d="M48.7672 52.0129H45.0229V56.0064H48.7672V52.0129Z" fill="#7230D8"/>
<path d="M52.5114 52.0129H48.7671V56.0064H52.5114V52.0129Z" fill="#7230D8"/>
<path d="M56.2558 52.0129H52.5115V56.0064H56.2558V52.0129Z" fill="#2B1805"/>
<path d="M11.2558 56.0066H7.51147V60.0001H11.2558V56.0066Z" fill="#2B1805"/>
<path d="M14.9999 56.0066H11.2556V60.0001H14.9999V56.0066Z" fill="#2B1805"/>
<path d="M18.7443 56.0066H15V60.0001H18.7443V56.0066Z" fill="#2B1805"/>
<path d="M22.4887 56.0066H18.7444V60.0001H22.4887V56.0066Z" fill="#2B1805"/>
<path d="M26.2558 56.0066H22.5115V60.0001H26.2558V56.0066Z" fill="#2B1805"/>
<path d="M29.9999 56.0066H26.2556V60.0001H29.9999V56.0066Z" fill="#2B1805"/>
<path d="M33.7443 56.0066H30V60.0001H33.7443V56.0066Z" fill="#2B1805"/>
<path d="M37.5114 56.0066H33.7671V60.0001H37.5114V56.0066Z" fill="#2B1805"/>
<path d="M41.2558 56.0066H37.5115V60.0001H41.2558V56.0066Z" fill="#2B1805"/>
<path d="M45.0002 56.0066H41.2559V60.0001H45.0002V56.0066Z" fill="#2B1805"/>
<path d="M48.7672 56.0066H45.0229V60.0001H48.7672V56.0066Z" fill="#2B1805"/>
<path d="M52.5114 56.0066H48.7671V60.0001H52.5114V56.0066Z" fill="#2B1805"/>
<path d="M26.2558 12.0049H22.5115V15.9984H26.2558V12.0049Z" fill="#FFFDFF"/>
<path d="M29.9999 15.9983H26.2556V19.9918H29.9999V15.9983Z" fill="#FFFDFF"/>
<path d="M33.7443 19.9919H30V23.9855H33.7443V19.9919Z" fill="#FFFDFF"/>
<path d="M37.5114 24.0098H33.7671V28.0033H37.5114V24.0098Z" fill="#FFFDFF"/>
<path d="M41.2558 28.0032H37.5115V31.9967H41.2558V28.0032Z" fill="#FFFDFF"/>
</svg>
