<svg width="240" height="100" viewBox="0 0 240 100" fill="none" xmlns="http://www.w3.org/2000/svg">
<g id="playbtn" clip-path="url(#clip0_53_30679)">
<g id="Group">
<g id="Group_2">
<path id="Vector" d="M19.9695 0H13.313V6.65652H19.9695V0Z" fill="#2B1805"/>
<path id="Vector_2" d="M26.6641 0H20.0076V6.65652H26.6641V0Z" fill="#2B1805"/>
<path id="Vector_3" d="M33.3206 0H26.6641V6.65652H33.3206V0Z" fill="#2B1805"/>
<path id="Vector_4" d="M39.9771 0H33.3206V6.65652H39.9771V0Z" fill="#2B1805"/>
<path id="Vector_5" d="M46.6338 0H39.9773V6.65652H46.6338V0Z" fill="#2B1805"/>
<path id="Vector_6" d="M53.3282 0H46.6716V6.65652H53.3282V0Z" fill="#2B1805"/>
<path id="Vector_7" d="M59.9849 0H53.3284V6.65652H59.9849V0Z" fill="#2B1805"/>
<path id="Vector_8" d="M66.6414 0H59.9849V6.65652H66.6414V0Z" fill="#2B1805"/>
<path id="Vector_9" d="M73.2979 0H66.6414V6.65652H73.2979V0Z" fill="#2B1805"/>
<path id="Vector_10" d="M79.9925 0H73.3359V6.65652H79.9925V0Z" fill="#2B1805"/>
<path id="Vector_11" d="M86.649 0H79.9924V6.65652H86.649V0Z" fill="#2B1805"/>
<path id="Vector_12" d="M93.3054 0H86.6489V6.65652H93.3054V0Z" fill="#2B1805"/>
<path id="Vector_13" d="M99.9619 0H93.3054V6.65652H99.9619V0Z" fill="#2B1805"/>
<path id="Vector_14" d="M106.657 0H100V6.65652H106.657V0Z" fill="#2B1805"/>
<path id="Vector_15" d="M113.313 0H106.656V6.65652H113.313V0Z" fill="#2B1805"/>
<path id="Vector_16" d="M119.97 0H113.313V6.65652H119.97V0Z" fill="#2B1805"/>
<path id="Vector_17" d="M126.626 0H119.969V6.65652H126.626V0Z" fill="#2B1805"/>
<path id="Vector_18" d="M133.321 0H126.664V6.65652H133.321V0Z" fill="#2B1805"/>
<path id="Vector_19" d="M139.977 0H133.321V6.65652H139.977V0Z" fill="#2B1805"/>
<path id="Vector_20" d="M146.634 0H139.977V6.65652H146.634V0Z" fill="#2B1805"/>
<path id="Vector_21" d="M153.29 0H146.634V6.65652H153.29V0Z" fill="#2B1805"/>
<path id="Vector_22" d="M159.985 0H153.328V6.65652H159.985V0Z" fill="#2B1805"/>
<path id="Vector_23" d="M166.641 0H159.985V6.65652H166.641V0Z" fill="#2B1805"/>
<path id="Vector_24" d="M173.298 0H166.641V6.65652H173.298V0Z" fill="#2B1805"/>
<path id="Vector_25" d="M179.954 0H173.298V6.65652H179.954V0Z" fill="#2B1805"/>
<path id="Vector_26" d="M186.649 0H179.992V6.65652H186.649V0Z" fill="#2B1805"/>
<path id="Vector_27" d="M193.305 0H186.649V6.65652H193.305V0Z" fill="#2B1805"/>
<path id="Vector_28" d="M199.962 0H193.305V6.65652H199.962V0Z" fill="#2B1805"/>
<path id="Vector_29" d="M206.618 0H199.962V6.65652H206.618V0Z" fill="#2B1805"/>
<path id="Vector_30" d="M213.313 0H206.656V6.65652H213.313V0Z" fill="#2B1805"/>
<path id="Vector_31" d="M219.97 0H213.313V6.65652H219.97V0Z" fill="#2B1805"/>
<path id="Vector_32" d="M226.626 0H219.969V6.65652H226.626V0Z" fill="#2B1805"/>
<path id="Vector_33" d="M13.313 6.65649H6.65649V13.313H13.313V6.65649Z" fill="#2B1805"/>
<path id="Vector_34" d="M19.9695 6.65649H13.313V13.313H19.9695V6.65649Z" fill="#FF646C"/>
<path id="Vector_35" d="M26.6641 6.65649H20.0076V13.313H26.6641V6.65649Z" fill="#FF646C"/>
<path id="Vector_36" d="M33.3206 6.65649H26.6641V13.313H33.3206V6.65649Z" fill="#FF646C"/>
<path id="Vector_37" d="M39.9771 6.65649H33.3206V13.313H39.9771V6.65649Z" fill="#FF646C"/>
<path id="Vector_38" d="M46.6338 6.65649H39.9773V13.313H46.6338V6.65649Z" fill="#FF646C"/>
<path id="Vector_39" d="M53.3282 6.65649H46.6716V13.313H53.3282V6.65649Z" fill="#FF646C"/>
<path id="Vector_40" d="M59.9849 6.65649H53.3284V13.313H59.9849V6.65649Z" fill="#FF646C"/>
<path id="Vector_41" d="M66.6414 6.65649H59.9849V13.313H66.6414V6.65649Z" fill="#FF646C"/>
<path id="Vector_42" d="M73.2979 6.65649H66.6414V13.313H73.2979V6.65649Z" fill="#FF646C"/>
<path id="Vector_43" d="M79.9925 6.65649H73.3359V13.313H79.9925V6.65649Z" fill="#FF646C"/>
<path id="Vector_44" d="M86.649 6.65649H79.9924V13.313H86.649V6.65649Z" fill="#FF646C"/>
<path id="Vector_45" d="M93.3054 6.65649H86.6489V13.313H93.3054V6.65649Z" fill="#FF646C"/>
<path id="Vector_46" d="M99.9619 6.65649H93.3054V13.313H99.9619V6.65649Z" fill="#FF646C"/>
<path id="Vector_47" d="M106.657 6.65649H100V13.313H106.657V6.65649Z" fill="#FF646C"/>
<path id="Vector_48" d="M113.313 6.65649H106.656V13.313H113.313V6.65649Z" fill="#FF646C"/>
<path id="Vector_49" d="M119.97 6.65649H113.313V13.313H119.97V6.65649Z" fill="#FF646C"/>
<path id="Vector_50" d="M126.626 6.65649H119.969V13.313H126.626V6.65649Z" fill="#FF646C"/>
<path id="Vector_51" d="M133.321 6.65649H126.664V13.313H133.321V6.65649Z" fill="#FF646C"/>
<path id="Vector_52" d="M139.977 6.65649H133.321V13.313H139.977V6.65649Z" fill="#FF646C"/>
<path id="Vector_53" d="M146.634 6.65649H139.977V13.313H146.634V6.65649Z" fill="#FF646C"/>
<path id="Vector_54" d="M153.29 6.65649H146.634V13.313H153.29V6.65649Z" fill="#FF646C"/>
<path id="Vector_55" d="M159.985 6.65649H153.328V13.313H159.985V6.65649Z" fill="#FF646C"/>
<path id="Vector_56" d="M166.641 6.65649H159.985V13.313H166.641V6.65649Z" fill="#FF646C"/>
<path id="Vector_57" d="M173.298 6.65649H166.641V13.313H173.298V6.65649Z" fill="#FF646C"/>
<path id="Vector_58" d="M179.954 6.65649H173.298V13.313H179.954V6.65649Z" fill="#FF646C"/>
<path id="Vector_59" d="M186.649 6.65649H179.992V13.313H186.649V6.65649Z" fill="#FF646C"/>
<path id="Vector_60" d="M193.305 6.65649H186.649V13.313H193.305V6.65649Z" fill="#FF646C"/>
<path id="Vector_61" d="M199.962 6.65649H193.305V13.313H199.962V6.65649Z" fill="#FF646C"/>
<path id="Vector_62" d="M206.618 6.65649H199.962V13.313H206.618V6.65649Z" fill="#FF646C"/>
<path id="Vector_63" d="M213.313 6.65649H206.656V13.313H213.313V6.65649Z" fill="#FF646C"/>
<path id="Vector_64" d="M219.97 6.65649H213.313V13.313H219.97V6.65649Z" fill="#FF646C"/>
<path id="Vector_65" d="M226.626 6.65649H219.969V13.313H226.626V6.65649Z" fill="#FF646C"/>
<path id="Vector_66" d="M233.282 6.65649H226.626V13.313H233.282V6.65649Z" fill="#2B1805"/>
<path id="Vector_67" d="M6.65652 13.313H0V19.9695H6.65652V13.313Z" fill="#2B1805"/>
<path id="Vector_68" d="M13.313 13.313H6.65649V19.9695H13.313V13.313Z" fill="#FF646C"/>
<path id="Vector_69" d="M19.9695 13.313H13.313V19.9695H19.9695V13.313Z" fill="#FF646C"/>
<path id="Vector_70" d="M26.6641 13.313H20.0076V19.9695H26.6641V13.313Z" fill="#FF646C"/>
<path id="Vector_71" d="M33.3206 13.313H26.6641V19.9695H33.3206V13.313Z" fill="#FF646C"/>
<path id="Vector_72" d="M39.9771 13.313H33.3206V19.9695H39.9771V13.313Z" fill="#FF646C"/>
<path id="Vector_73" d="M46.6338 13.313H39.9773V19.9695H46.6338V13.313Z" fill="#FF646C"/>
<path id="Vector_74" d="M53.3282 13.313H46.6716V19.9695H53.3282V13.313Z" fill="#FF646C"/>
<path id="Vector_75" d="M59.9849 13.313H53.3284V19.9695H59.9849V13.313Z" fill="#FF646C"/>
<path id="Vector_76" d="M66.6414 13.313H59.9849V19.9695H66.6414V13.313Z" fill="#FF646C"/>
<path id="Vector_77" d="M73.2979 13.313H66.6414V19.9695H73.2979V13.313Z" fill="#FF646C"/>
<path id="Vector_78" d="M79.9925 13.313H73.3359V19.9695H79.9925V13.313Z" fill="#FF646C"/>
<path id="Vector_79" d="M86.649 13.313H79.9924V19.9695H86.649V13.313Z" fill="#FF646C"/>
<path id="Vector_80" d="M93.3054 13.313H86.6489V19.9695H93.3054V13.313Z" fill="#FF646C"/>
<path id="Vector_81" d="M99.9619 13.313H93.3054V19.9695H99.9619V13.313Z" fill="#FF646C"/>
<path id="Vector_82" d="M106.657 13.313H100V19.9695H106.657V13.313Z" fill="#FF646C"/>
<path id="Vector_83" d="M113.313 13.313H106.656V19.9695H113.313V13.313Z" fill="#FF646C"/>
<path id="Vector_84" d="M119.97 13.313H113.313V19.9695H119.97V13.313Z" fill="#FF646C"/>
<path id="Vector_85" d="M126.626 13.313H119.969V19.9695H126.626V13.313Z" fill="#FF646C"/>
<path id="Vector_86" d="M133.321 13.313H126.664V19.9695H133.321V13.313Z" fill="#FF646C"/>
<path id="Vector_87" d="M139.977 13.313H133.321V19.9695H139.977V13.313Z" fill="#FF646C"/>
<path id="Vector_88" d="M146.634 13.313H139.977V19.9695H146.634V13.313Z" fill="#FF646C"/>
<path id="Vector_89" d="M153.29 13.313H146.634V19.9695H153.29V13.313Z" fill="#FF646C"/>
<path id="Vector_90" d="M159.985 13.313H153.328V19.9695H159.985V13.313Z" fill="#FF646C"/>
<path id="Vector_91" d="M166.641 13.313H159.985V19.9695H166.641V13.313Z" fill="#FF646C"/>
<path id="Vector_92" d="M173.298 13.313H166.641V19.9695H173.298V13.313Z" fill="#FF646C"/>
<path id="Vector_93" d="M179.954 13.313H173.298V19.9695H179.954V13.313Z" fill="#FF646C"/>
<path id="Vector_94" d="M186.649 13.313H179.992V19.9695H186.649V13.313Z" fill="#FF646C"/>
<path id="Vector_95" d="M193.305 13.313H186.649V19.9695H193.305V13.313Z" fill="#FF646C"/>
<path id="Vector_96" d="M199.962 13.313H193.305V19.9695H199.962V13.313Z" fill="#FF646C"/>
<path id="Vector_97" d="M206.618 13.313H199.962V19.9695H206.618V13.313Z" fill="#FF646C"/>
<path id="Vector_98" d="M213.313 13.313H206.656V19.9695H213.313V13.313Z" fill="#FF646C"/>
<path id="Vector_99" d="M219.97 13.313H213.313V19.9695H219.97V13.313Z" fill="#FF646C"/>
<path id="Vector_100" d="M226.626 13.313H219.969V19.9695H226.626V13.313Z" fill="#FF646C"/>
<path id="Vector_101" d="M233.282 13.313H226.626V19.9695H233.282V13.313Z" fill="#F99898"/>
<path id="Vector_102" d="M239.977 13.313H233.321V19.9695H239.977V13.313Z" fill="#2B1805"/>
<path id="Vector_103" d="M6.65652 20.0076H0V26.6641H6.65652V20.0076Z" fill="#2B1805"/>
<path id="Vector_104" d="M13.313 20.0076H6.65649V26.6641H13.313V20.0076Z" fill="#FF646C"/>
<path id="Vector_105" d="M19.9695 20.0076H13.313V26.6641H19.9695V20.0076Z" fill="#FF646C"/>
<path id="Vector_106" d="M26.6641 20.0076H20.0076V26.6641H26.6641V20.0076Z" fill="#FF646C"/>
<path id="Vector_107" d="M33.3206 20.0076H26.6641V26.6641H33.3206V20.0076Z" fill="#FF646C"/>
<path id="Vector_108" d="M39.9771 20.0076H33.3206V26.6641H39.9771V20.0076Z" fill="#FF646C"/>
<path id="Vector_109" d="M46.6338 20.0076H39.9773V26.6641H46.6338V20.0076Z" fill="#FF646C"/>
<path id="Vector_110" d="M53.3282 20.0076H46.6716V26.6641H53.3282V20.0076Z" fill="#FF646C"/>
<path id="Vector_111" d="M59.9849 20.0076H53.3284V26.6641H59.9849V20.0076Z" fill="#FF646C"/>
<path id="Vector_112" d="M66.6414 20.0076H59.9849V26.6641H66.6414V20.0076Z" fill="#FF646C"/>
<path id="Vector_113" d="M73.2979 20.0076H66.6414V26.6641H73.2979V20.0076Z" fill="#FF646C"/>
<path id="Vector_114" d="M79.9925 20.0076H73.3359V26.6641H79.9925V20.0076Z" fill="#FF646C"/>
<path id="Vector_115" d="M86.649 20.0076H79.9924V26.6641H86.649V20.0076Z" fill="#FF646C"/>
<path id="Vector_116" d="M93.3054 20.0076H86.6489V26.6641H93.3054V20.0076Z" fill="#FF646C"/>
<path id="Vector_117" d="M99.9619 20.0076H93.3054V26.6641H99.9619V20.0076Z" fill="#FF646C"/>
<path id="Vector_118" d="M106.657 20.0076H100V26.6641H106.657V20.0076Z" fill="#FF646C"/>
<path id="Vector_119" d="M113.313 20.0076H106.656V26.6641H113.313V20.0076Z" fill="#FF646C"/>
<path id="Vector_120" d="M119.97 20.0076H113.313V26.6641H119.97V20.0076Z" fill="#FF646C"/>
<path id="Vector_121" d="M126.626 20.0076H119.969V26.6641H126.626V20.0076Z" fill="#FF646C"/>
<path id="Vector_122" d="M133.321 20.0076H126.664V26.6641H133.321V20.0076Z" fill="#FF646C"/>
<path id="Vector_123" d="M139.977 20.0076H133.321V26.6641H139.977V20.0076Z" fill="#FF646C"/>
<path id="Vector_124" d="M146.634 20.0076H139.977V26.6641H146.634V20.0076Z" fill="#FF646C"/>
<path id="Vector_125" d="M153.29 20.0076H146.634V26.6641H153.29V20.0076Z" fill="#FF646C"/>
<path id="Vector_126" d="M159.985 20.0076H153.328V26.6641H159.985V20.0076Z" fill="#FF646C"/>
<path id="Vector_127" d="M166.641 20.0076H159.985V26.6641H166.641V20.0076Z" fill="#FF646C"/>
<path id="Vector_128" d="M173.298 20.0076H166.641V26.6641H173.298V20.0076Z" fill="#FF646C"/>
<path id="Vector_129" d="M179.954 20.0076H173.298V26.6641H179.954V20.0076Z" fill="#FF646C"/>
<path id="Vector_130" d="M186.649 20.0076H179.992V26.6641H186.649V20.0076Z" fill="#FF646C"/>
<path id="Vector_131" d="M193.305 20.0076H186.649V26.6641H193.305V20.0076Z" fill="#FF646C"/>
<path id="Vector_132" d="M199.962 20.0076H193.305V26.6641H199.962V20.0076Z" fill="#FF646C"/>
<path id="Vector_133" d="M206.618 20.0076H199.962V26.6641H206.618V20.0076Z" fill="#FF646C"/>
<path id="Vector_134" d="M213.313 20.0076H206.656V26.6641H213.313V20.0076Z" fill="#FF646C"/>
<path id="Vector_135" d="M219.97 20.0076H213.313V26.6641H219.97V20.0076Z" fill="#FF646C"/>
<path id="Vector_136" d="M226.626 20.0076H219.969V26.6641H226.626V20.0076Z" fill="#FF646C"/>
<path id="Vector_137" d="M233.282 20.0076H226.626V26.6641H233.282V20.0076Z" fill="#F99898"/>
<path id="Vector_138" d="M239.977 20.0076H233.321V26.6641H239.977V20.0076Z" fill="#2B1805"/>
<path id="Vector_139" d="M6.65652 26.6641H0V33.3206H6.65652V26.6641Z" fill="#2B1805"/>
<path id="Vector_140" d="M13.313 26.6641H6.65649V33.3206H13.313V26.6641Z" fill="#FF646C"/>
<path id="Vector_141" d="M19.9695 26.6641H13.313V33.3206H19.9695V26.6641Z" fill="#FF646C"/>
<path id="Vector_142" d="M26.6641 26.6641H20.0076V33.3206H26.6641V26.6641Z" fill="#FF646C"/>
<path id="Vector_143" d="M33.3206 26.6641H26.6641V33.3206H33.3206V26.6641Z" fill="#FF646C"/>
<path id="Vector_144" d="M39.9771 26.6641H33.3206V33.3206H39.9771V26.6641Z" fill="#FF646C"/>
<path id="Vector_145" d="M46.6338 26.6641H39.9773V33.3206H46.6338V26.6641Z" fill="#FF646C"/>
<path id="Vector_146" d="M53.3282 26.6641H46.6716V33.3206H53.3282V26.6641Z" fill="#FF646C"/>
<path id="Vector_147" d="M59.9849 26.6641H53.3284V33.3206H59.9849V26.6641Z" fill="#FF646C"/>
<path id="Vector_148" d="M66.6414 26.6641H59.9849V33.3206H66.6414V26.6641Z" fill="#FF646C"/>
<path id="Vector_149" d="M73.2979 26.6641H66.6414V33.3206H73.2979V26.6641Z" fill="#FF646C"/>
<path id="Vector_150" d="M79.9925 26.6641H73.3359V33.3206H79.9925V26.6641Z" fill="#FF646C"/>
<path id="Vector_151" d="M86.649 26.6641H79.9924V33.3206H86.649V26.6641Z" fill="#FF646C"/>
<path id="Vector_152" d="M93.3054 26.6641H86.6489V33.3206H93.3054V26.6641Z" fill="#FF646C"/>
<path id="Vector_153" d="M99.9619 26.6641H93.3054V33.3206H99.9619V26.6641Z" fill="#FF646C"/>
<path id="Vector_154" d="M106.657 26.6641H100V33.3206H106.657V26.6641Z" fill="#FF646C"/>
<path id="Vector_155" d="M113.313 26.6641H106.656V33.3206H113.313V26.6641Z" fill="#FF646C"/>
<path id="Vector_156" d="M119.97 26.6641H113.313V33.3206H119.97V26.6641Z" fill="#FF646C"/>
<path id="Vector_157" d="M126.626 26.6641H119.969V33.3206H126.626V26.6641Z" fill="#FF646C"/>
<path id="Vector_158" d="M133.321 26.6641H126.664V33.3206H133.321V26.6641Z" fill="#FF646C"/>
<path id="Vector_159" d="M139.977 26.6641H133.321V33.3206H139.977V26.6641Z" fill="#FF646C"/>
<path id="Vector_160" d="M146.634 26.6641H139.977V33.3206H146.634V26.6641Z" fill="#FF646C"/>
<path id="Vector_161" d="M153.29 26.6641H146.634V33.3206H153.29V26.6641Z" fill="#FF646C"/>
<path id="Vector_162" d="M159.985 26.6641H153.328V33.3206H159.985V26.6641Z" fill="#FF646C"/>
<path id="Vector_163" d="M166.641 26.6641H159.985V33.3206H166.641V26.6641Z" fill="#FF646C"/>
<path id="Vector_164" d="M173.298 26.6641H166.641V33.3206H173.298V26.6641Z" fill="#FF646C"/>
<path id="Vector_165" d="M179.954 26.6641H173.298V33.3206H179.954V26.6641Z" fill="#FF646C"/>
<path id="Vector_166" d="M186.649 26.6641H179.992V33.3206H186.649V26.6641Z" fill="#FF646C"/>
<path id="Vector_167" d="M193.305 26.6641H186.649V33.3206H193.305V26.6641Z" fill="#FF646C"/>
<path id="Vector_168" d="M199.962 26.6641H193.305V33.3206H199.962V26.6641Z" fill="#FF646C"/>
<path id="Vector_169" d="M206.618 26.6641H199.962V33.3206H206.618V26.6641Z" fill="#FF646C"/>
<path id="Vector_170" d="M213.313 26.6641H206.656V33.3206H213.313V26.6641Z" fill="#FF646C"/>
<path id="Vector_171" d="M219.97 26.6641H213.313V33.3206H219.97V26.6641Z" fill="#FF646C"/>
<path id="Vector_172" d="M226.626 26.6641H219.969V33.3206H226.626V26.6641Z" fill="#FF646C"/>
<path id="Vector_173" d="M233.282 26.6641H226.626V33.3206H233.282V26.6641Z" fill="#F99898"/>
<path id="Vector_174" d="M239.977 26.6641H233.321V33.3206H239.977V26.6641Z" fill="#2B1805"/>
<path id="Vector_175" d="M6.65652 33.3206H0V39.9771H6.65652V33.3206Z" fill="#2B1805"/>
<path id="Vector_176" d="M13.313 33.3206H6.65649V39.9771H13.313V33.3206Z" fill="#FF646C"/>
<path id="Vector_177" d="M19.9695 33.3206H13.313V39.9771H19.9695V33.3206Z" fill="#FF646C"/>
<path id="Vector_178" d="M26.6641 33.3206H20.0076V39.9771H26.6641V33.3206Z" fill="#FF646C"/>
<path id="Vector_179" d="M33.3206 33.3206H26.6641V39.9771H33.3206V33.3206Z" fill="#FF646C"/>
<path id="Vector_180" d="M39.9771 33.3206H33.3206V39.9771H39.9771V33.3206Z" fill="#FF646C"/>
<path id="Vector_181" d="M46.6338 33.3206H39.9773V39.9771H46.6338V33.3206Z" fill="#FF646C"/>
<path id="Vector_182" d="M53.3282 33.3206H46.6716V39.9771H53.3282V33.3206Z" fill="#FF646C"/>
<path id="Vector_183" d="M59.9849 33.3206H53.3284V39.9771H59.9849V33.3206Z" fill="#FF646C"/>
<path id="Vector_184" d="M66.6414 33.3206H59.9849V39.9771H66.6414V33.3206Z" fill="#FF646C"/>
<path id="Vector_185" d="M73.2979 33.3206H66.6414V39.9771H73.2979V33.3206Z" fill="#FF646C"/>
<path id="Vector_186" d="M79.9925 33.3206H73.3359V39.9771H79.9925V33.3206Z" fill="#FF646C"/>
<path id="Vector_187" d="M86.649 33.3206H79.9924V39.9771H86.649V33.3206Z" fill="#FF646C"/>
<path id="Vector_188" d="M93.3054 33.3206H86.6489V39.9771H93.3054V33.3206Z" fill="#FF646C"/>
<path id="Vector_189" d="M99.9619 33.3206H93.3054V39.9771H99.9619V33.3206Z" fill="#FF646C"/>
<path id="Vector_190" d="M106.657 33.3206H100V39.9771H106.657V33.3206Z" fill="#FF646C"/>
<path id="Vector_191" d="M113.313 33.3206H106.656V39.9771H113.313V33.3206Z" fill="#FF646C"/>
<path id="Vector_192" d="M119.97 33.3206H113.313V39.9771H119.97V33.3206Z" fill="#FF646C"/>
<path id="Vector_193" d="M126.626 33.3206H119.969V39.9771H126.626V33.3206Z" fill="#FF646C"/>
<path id="Vector_194" d="M133.321 33.3206H126.664V39.9771H133.321V33.3206Z" fill="#FF646C"/>
<path id="Vector_195" d="M139.977 33.3206H133.321V39.9771H139.977V33.3206Z" fill="#FF646C"/>
<path id="Vector_196" d="M146.634 33.3206H139.977V39.9771H146.634V33.3206Z" fill="#FF646C"/>
<path id="Vector_197" d="M153.29 33.3206H146.634V39.9771H153.29V33.3206Z" fill="#FF646C"/>
<path id="Vector_198" d="M159.985 33.3206H153.328V39.9771H159.985V33.3206Z" fill="#FF646C"/>
<path id="Vector_199" d="M166.641 33.3206H159.985V39.9771H166.641V33.3206Z" fill="#FF646C"/>
<path id="Vector_200" d="M173.298 33.3206H166.641V39.9771H173.298V33.3206Z" fill="#FF646C"/>
<path id="Vector_201" d="M179.954 33.3206H173.298V39.9771H179.954V33.3206Z" fill="#FF646C"/>
<path id="Vector_202" d="M186.649 33.3206H179.992V39.9771H186.649V33.3206Z" fill="#FF646C"/>
<path id="Vector_203" d="M193.305 33.3206H186.649V39.9771H193.305V33.3206Z" fill="#FF646C"/>
<path id="Vector_204" d="M199.962 33.3206H193.305V39.9771H199.962V33.3206Z" fill="#FF646C"/>
<path id="Vector_205" d="M206.618 33.3206H199.962V39.9771H206.618V33.3206Z" fill="#FF646C"/>
<path id="Vector_206" d="M213.313 33.3206H206.656V39.9771H213.313V33.3206Z" fill="#FF646C"/>
<path id="Vector_207" d="M219.97 33.3206H213.313V39.9771H219.97V33.3206Z" fill="#FF646C"/>
<path id="Vector_208" d="M226.626 33.3206H219.969V39.9771H226.626V33.3206Z" fill="#FF646C"/>
<path id="Vector_209" d="M233.282 33.3206H226.626V39.9771H233.282V33.3206Z" fill="#F99898"/>
<path id="Vector_210" d="M239.977 33.3206H233.321V39.9771H239.977V33.3206Z" fill="#2B1805"/>
<path id="Vector_211" d="M6.65652 39.9773H0V46.6338H6.65652V39.9773Z" fill="#2B1805"/>
<path id="Vector_212" d="M13.313 39.9773H6.65649V46.6338H13.313V39.9773Z" fill="#FF646C"/>
<path id="Vector_213" d="M19.9695 39.9773H13.313V46.6338H19.9695V39.9773Z" fill="#FF646C"/>
<path id="Vector_214" d="M26.6641 39.9773H20.0076V46.6338H26.6641V39.9773Z" fill="#FF646C"/>
<path id="Vector_215" d="M33.3206 39.9773H26.6641V46.6338H33.3206V39.9773Z" fill="#FF646C"/>
<path id="Vector_216" d="M39.9771 39.9773H33.3206V46.6338H39.9771V39.9773Z" fill="#FF646C"/>
<path id="Vector_217" d="M46.6338 39.9773H39.9773V46.6338H46.6338V39.9773Z" fill="#FF646C"/>
<path id="Vector_218" d="M53.3282 39.9773H46.6716V46.6338H53.3282V39.9773Z" fill="#FF646C"/>
<path id="Vector_219" d="M59.9849 39.9773H53.3284V46.6338H59.9849V39.9773Z" fill="#FF646C"/>
<path id="Vector_220" d="M66.6414 39.9773H59.9849V46.6338H66.6414V39.9773Z" fill="#FF646C"/>
<path id="Vector_221" d="M73.2979 39.9773H66.6414V46.6338H73.2979V39.9773Z" fill="#FF646C"/>
<path id="Vector_222" d="M79.9925 39.9773H73.3359V46.6338H79.9925V39.9773Z" fill="#FF646C"/>
<path id="Vector_223" d="M86.649 39.9773H79.9924V46.6338H86.649V39.9773Z" fill="#FF646C"/>
<path id="Vector_224" d="M93.3054 39.9773H86.6489V46.6338H93.3054V39.9773Z" fill="#FF646C"/>
<path id="Vector_225" d="M99.9619 39.9773H93.3054V46.6338H99.9619V39.9773Z" fill="#FF646C"/>
<path id="Vector_226" d="M106.657 39.9773H100V46.6338H106.657V39.9773Z" fill="#FF646C"/>
<path id="Vector_227" d="M113.313 39.9773H106.656V46.6338H113.313V39.9773Z" fill="#FF646C"/>
<path id="Vector_228" d="M119.97 39.9773H113.313V46.6338H119.97V39.9773Z" fill="#FF646C"/>
<path id="Vector_229" d="M126.626 39.9773H119.969V46.6338H126.626V39.9773Z" fill="#FF646C"/>
<path id="Vector_230" d="M133.321 39.9773H126.664V46.6338H133.321V39.9773Z" fill="#FF646C"/>
<path id="Vector_231" d="M139.977 39.9773H133.321V46.6338H139.977V39.9773Z" fill="#FF646C"/>
<path id="Vector_232" d="M146.634 39.9773H139.977V46.6338H146.634V39.9773Z" fill="#FF646C"/>
<path id="Vector_233" d="M153.29 39.9773H146.634V46.6338H153.29V39.9773Z" fill="#FF646C"/>
<path id="Vector_234" d="M159.985 39.9773H153.328V46.6338H159.985V39.9773Z" fill="#FF646C"/>
<path id="Vector_235" d="M166.641 39.9773H159.985V46.6338H166.641V39.9773Z" fill="#FF646C"/>
<path id="Vector_236" d="M173.298 39.9773H166.641V46.6338H173.298V39.9773Z" fill="#FF646C"/>
<path id="Vector_237" d="M179.954 39.9773H173.298V46.6338H179.954V39.9773Z" fill="#FF646C"/>
<path id="Vector_238" d="M186.649 39.9773H179.992V46.6338H186.649V39.9773Z" fill="#FF646C"/>
<path id="Vector_239" d="M193.305 39.9773H186.649V46.6338H193.305V39.9773Z" fill="#FF646C"/>
<path id="Vector_240" d="M199.962 39.9773H193.305V46.6338H199.962V39.9773Z" fill="#FF646C"/>
<path id="Vector_241" d="M206.618 39.9773H199.962V46.6338H206.618V39.9773Z" fill="#FF646C"/>
<path id="Vector_242" d="M213.313 39.9773H206.656V46.6338H213.313V39.9773Z" fill="#FF646C"/>
<path id="Vector_243" d="M219.97 39.9773H213.313V46.6338H219.97V39.9773Z" fill="#FF646C"/>
<path id="Vector_244" d="M226.626 39.9773H219.969V46.6338H226.626V39.9773Z" fill="#FF646C"/>
<path id="Vector_245" d="M233.282 39.9773H226.626V46.6338H233.282V39.9773Z" fill="#F99898"/>
<path id="Vector_246" d="M239.977 39.9773H233.321V46.6338H239.977V39.9773Z" fill="#2B1805"/>
<path id="Vector_247" d="M6.65652 46.6716H0V53.3282H6.65652V46.6716Z" fill="#2B1805"/>
<path id="Vector_248" d="M13.313 46.6716H6.65649V53.3282H13.313V46.6716Z" fill="#FF646C"/>
<path id="Vector_249" d="M19.9695 46.6716H13.313V53.3282H19.9695V46.6716Z" fill="#FF646C"/>
<path id="Vector_250" d="M26.6641 46.6716H20.0076V53.3282H26.6641V46.6716Z" fill="#FF646C"/>
<path id="Vector_251" d="M33.3206 46.6716H26.6641V53.3282H33.3206V46.6716Z" fill="#FF646C"/>
<path id="Vector_252" d="M39.9771 46.6716H33.3206V53.3282H39.9771V46.6716Z" fill="#FF646C"/>
<path id="Vector_253" d="M46.6338 46.6716H39.9773V53.3282H46.6338V46.6716Z" fill="#FF646C"/>
<path id="Vector_254" d="M53.3282 46.6716H46.6716V53.3282H53.3282V46.6716Z" fill="#FF646C"/>
<path id="Vector_255" d="M59.9849 46.6716H53.3284V53.3282H59.9849V46.6716Z" fill="#FF646C"/>
<path id="Vector_256" d="M66.6414 46.6716H59.9849V53.3282H66.6414V46.6716Z" fill="#FF646C"/>
<path id="Vector_257" d="M73.2979 46.6716H66.6414V53.3282H73.2979V46.6716Z" fill="#FF646C"/>
<path id="Vector_258" d="M79.9925 46.6716H73.3359V53.3282H79.9925V46.6716Z" fill="#FF646C"/>
<path id="Vector_259" d="M86.649 46.6716H79.9924V53.3282H86.649V46.6716Z" fill="#FF646C"/>
<path id="Vector_260" d="M93.3054 46.6716H86.6489V53.3282H93.3054V46.6716Z" fill="#FF646C"/>
<path id="Vector_261" d="M99.9619 46.6716H93.3054V53.3282H99.9619V46.6716Z" fill="#FF646C"/>
<path id="Vector_262" d="M106.657 46.6716H100V53.3282H106.657V46.6716Z" fill="#FF646C"/>
<path id="Vector_263" d="M113.313 46.6716H106.656V53.3282H113.313V46.6716Z" fill="#FF646C"/>
<path id="Vector_264" d="M119.97 46.6716H113.313V53.3282H119.97V46.6716Z" fill="#FF646C"/>
<path id="Vector_265" d="M126.626 46.6716H119.969V53.3282H126.626V46.6716Z" fill="#FF646C"/>
<path id="Vector_266" d="M133.321 46.6716H126.664V53.3282H133.321V46.6716Z" fill="#FF646C"/>
<path id="Vector_267" d="M139.977 46.6716H133.321V53.3282H139.977V46.6716Z" fill="#FF646C"/>
<path id="Vector_268" d="M146.634 46.6716H139.977V53.3282H146.634V46.6716Z" fill="#FF646C"/>
<path id="Vector_269" d="M153.29 46.6716H146.634V53.3282H153.29V46.6716Z" fill="#FF646C"/>
<path id="Vector_270" d="M159.985 46.6716H153.328V53.3282H159.985V46.6716Z" fill="#FF646C"/>
<path id="Vector_271" d="M166.641 46.6716H159.985V53.3282H166.641V46.6716Z" fill="#FF646C"/>
<path id="Vector_272" d="M173.298 46.6716H166.641V53.3282H173.298V46.6716Z" fill="#FF646C"/>
<path id="Vector_273" d="M179.954 46.6716H173.298V53.3282H179.954V46.6716Z" fill="#FF646C"/>
<path id="Vector_274" d="M186.649 46.6716H179.992V53.3282H186.649V46.6716Z" fill="#FF646C"/>
<path id="Vector_275" d="M193.305 46.6716H186.649V53.3282H193.305V46.6716Z" fill="#FF646C"/>
<path id="Vector_276" d="M199.962 46.6716H193.305V53.3282H199.962V46.6716Z" fill="#FF646C"/>
<path id="Vector_277" d="M206.618 46.6716H199.962V53.3282H206.618V46.6716Z" fill="#FF646C"/>
<path id="Vector_278" d="M213.313 46.6716H206.656V53.3282H213.313V46.6716Z" fill="#FF646C"/>
<path id="Vector_279" d="M219.97 46.6716H213.313V53.3282H219.97V46.6716Z" fill="#FF646C"/>
<path id="Vector_280" d="M226.626 46.6716H219.969V53.3282H226.626V46.6716Z" fill="#FF646C"/>
<path id="Vector_281" d="M233.282 46.6716H226.626V53.3282H233.282V46.6716Z" fill="#F99898"/>
<path id="Vector_282" d="M239.977 46.6716H233.321V53.3282H239.977V46.6716Z" fill="#2B1805"/>
<path id="Vector_283" d="M6.65652 53.3284H0V59.9849H6.65652V53.3284Z" fill="#2B1805"/>
<path id="Vector_284" d="M13.313 53.3284H6.65649V59.9849H13.313V53.3284Z" fill="#FF646C"/>
<path id="Vector_285" d="M19.9695 53.3284H13.313V59.9849H19.9695V53.3284Z" fill="#FF646C"/>
<path id="Vector_286" d="M26.6641 53.3284H20.0076V59.9849H26.6641V53.3284Z" fill="#FF646C"/>
<path id="Vector_287" d="M33.3206 53.3284H26.6641V59.9849H33.3206V53.3284Z" fill="#FF646C"/>
<path id="Vector_288" d="M39.9771 53.3284H33.3206V59.9849H39.9771V53.3284Z" fill="#FF646C"/>
<path id="Vector_289" d="M46.6338 53.3284H39.9773V59.9849H46.6338V53.3284Z" fill="#FF646C"/>
<path id="Vector_290" d="M53.3282 53.3284H46.6716V59.9849H53.3282V53.3284Z" fill="#FF646C"/>
<path id="Vector_291" d="M59.9849 53.3284H53.3284V59.9849H59.9849V53.3284Z" fill="#FF646C"/>
<path id="Vector_292" d="M66.6414 53.3284H59.9849V59.9849H66.6414V53.3284Z" fill="#FF646C"/>
<path id="Vector_293" d="M73.2979 53.3284H66.6414V59.9849H73.2979V53.3284Z" fill="#FF646C"/>
<path id="Vector_294" d="M79.9925 53.3284H73.3359V59.9849H79.9925V53.3284Z" fill="#FF646C"/>
<path id="Vector_295" d="M86.649 53.3284H79.9924V59.9849H86.649V53.3284Z" fill="#FF646C"/>
<path id="Vector_296" d="M93.3054 53.3284H86.6489V59.9849H93.3054V53.3284Z" fill="#FF646C"/>
<path id="Vector_297" d="M99.9619 53.3284H93.3054V59.9849H99.9619V53.3284Z" fill="#FF646C"/>
<path id="Vector_298" d="M106.657 53.3284H100V59.9849H106.657V53.3284Z" fill="#FF646C"/>
<path id="Vector_299" d="M113.313 53.3284H106.656V59.9849H113.313V53.3284Z" fill="#FF646C"/>
<path id="Vector_300" d="M119.97 53.3284H113.313V59.9849H119.97V53.3284Z" fill="#FF646C"/>
<path id="Vector_301" d="M126.626 53.3284H119.969V59.9849H126.626V53.3284Z" fill="#FF646C"/>
<path id="Vector_302" d="M133.321 53.3284H126.664V59.9849H133.321V53.3284Z" fill="#FF646C"/>
<path id="Vector_303" d="M139.977 53.3284H133.321V59.9849H139.977V53.3284Z" fill="#FF646C"/>
<path id="Vector_304" d="M146.634 53.3284H139.977V59.9849H146.634V53.3284Z" fill="#FF646C"/>
<path id="Vector_305" d="M153.29 53.3284H146.634V59.9849H153.29V53.3284Z" fill="#FF646C"/>
<path id="Vector_306" d="M159.985 53.3284H153.328V59.9849H159.985V53.3284Z" fill="#FF646C"/>
<path id="Vector_307" d="M166.641 53.3284H159.985V59.9849H166.641V53.3284Z" fill="#FF646C"/>
<path id="Vector_308" d="M173.298 53.3284H166.641V59.9849H173.298V53.3284Z" fill="#FF646C"/>
<path id="Vector_309" d="M179.954 53.3284H173.298V59.9849H179.954V53.3284Z" fill="#FF646C"/>
<path id="Vector_310" d="M186.649 53.3284H179.992V59.9849H186.649V53.3284Z" fill="#FF646C"/>
<path id="Vector_311" d="M193.305 53.3284H186.649V59.9849H193.305V53.3284Z" fill="#FF646C"/>
<path id="Vector_312" d="M199.962 53.3284H193.305V59.9849H199.962V53.3284Z" fill="#FF646C"/>
<path id="Vector_313" d="M206.618 53.3284H199.962V59.9849H206.618V53.3284Z" fill="#FF646C"/>
<path id="Vector_314" d="M213.313 53.3284H206.656V59.9849H213.313V53.3284Z" fill="#FF646C"/>
<path id="Vector_315" d="M219.97 53.3284H213.313V59.9849H219.97V53.3284Z" fill="#FF646C"/>
<path id="Vector_316" d="M226.626 53.3284H219.969V59.9849H226.626V53.3284Z" fill="#FF646C"/>
<path id="Vector_317" d="M233.282 53.3284H226.626V59.9849H233.282V53.3284Z" fill="#F99898"/>
<path id="Vector_318" d="M239.977 53.3284H233.321V59.9849H239.977V53.3284Z" fill="#2B1805"/>
<path id="Vector_319" d="M6.65652 59.9849H0V66.6414H6.65652V59.9849Z" fill="#2B1805"/>
<path id="Vector_320" d="M13.313 59.9849H6.65649V66.6414H13.313V59.9849Z" fill="#F99898"/>
<path id="Vector_321" d="M19.9695 59.9849H13.313V66.6414H19.9695V59.9849Z" fill="#FF646C"/>
<path id="Vector_322" d="M26.6641 59.9849H20.0076V66.6414H26.6641V59.9849Z" fill="#FF646C"/>
<path id="Vector_323" d="M33.3206 59.9849H26.6641V66.6414H33.3206V59.9849Z" fill="#FF646C"/>
<path id="Vector_324" d="M39.9771 59.9849H33.3206V66.6414H39.9771V59.9849Z" fill="#FF646C"/>
<path id="Vector_325" d="M46.6338 59.9849H39.9773V66.6414H46.6338V59.9849Z" fill="#FF646C"/>
<path id="Vector_326" d="M53.3282 59.9849H46.6716V66.6414H53.3282V59.9849Z" fill="#FF646C"/>
<path id="Vector_327" d="M59.9849 59.9849H53.3284V66.6414H59.9849V59.9849Z" fill="#FF646C"/>
<path id="Vector_328" d="M66.6414 59.9849H59.9849V66.6414H66.6414V59.9849Z" fill="#FF646C"/>
<path id="Vector_329" d="M73.2979 59.9849H66.6414V66.6414H73.2979V59.9849Z" fill="#FF646C"/>
<path id="Vector_330" d="M79.9925 59.9849H73.3359V66.6414H79.9925V59.9849Z" fill="#FF646C"/>
<path id="Vector_331" d="M86.649 59.9849H79.9924V66.6414H86.649V59.9849Z" fill="#FF646C"/>
<path id="Vector_332" d="M93.3054 59.9849H86.6489V66.6414H93.3054V59.9849Z" fill="#FF646C"/>
<path id="Vector_333" d="M99.9619 59.9849H93.3054V66.6414H99.9619V59.9849Z" fill="#FF646C"/>
<path id="Vector_334" d="M106.657 59.9849H100V66.6414H106.657V59.9849Z" fill="#FF646C"/>
<path id="Vector_335" d="M113.313 59.9849H106.656V66.6414H113.313V59.9849Z" fill="#FF646C"/>
<path id="Vector_336" d="M119.97 59.9849H113.313V66.6414H119.97V59.9849Z" fill="#FF646C"/>
<path id="Vector_337" d="M126.626 59.9849H119.969V66.6414H126.626V59.9849Z" fill="#FF646C"/>
<path id="Vector_338" d="M133.321 59.9849H126.664V66.6414H133.321V59.9849Z" fill="#FF646C"/>
<path id="Vector_339" d="M139.977 59.9849H133.321V66.6414H139.977V59.9849Z" fill="#FF646C"/>
<path id="Vector_340" d="M146.634 59.9849H139.977V66.6414H146.634V59.9849Z" fill="#FF646C"/>
<path id="Vector_341" d="M153.29 59.9849H146.634V66.6414H153.29V59.9849Z" fill="#FF646C"/>
<path id="Vector_342" d="M159.985 59.9849H153.328V66.6414H159.985V59.9849Z" fill="#FF646C"/>
<path id="Vector_343" d="M166.641 59.9849H159.985V66.6414H166.641V59.9849Z" fill="#FF646C"/>
<path id="Vector_344" d="M173.298 59.9849H166.641V66.6414H173.298V59.9849Z" fill="#FF646C"/>
<path id="Vector_345" d="M179.954 59.9849H173.298V66.6414H179.954V59.9849Z" fill="#FF646C"/>
<path id="Vector_346" d="M186.649 59.9849H179.992V66.6414H186.649V59.9849Z" fill="#FF646C"/>
<path id="Vector_347" d="M193.305 59.9849H186.649V66.6414H193.305V59.9849Z" fill="#FF646C"/>
<path id="Vector_348" d="M199.962 59.9849H193.305V66.6414H199.962V59.9849Z" fill="#FF646C"/>
<path id="Vector_349" d="M206.618 59.9849H199.962V66.6414H206.618V59.9849Z" fill="#FF646C"/>
<path id="Vector_350" d="M213.313 59.9849H206.656V66.6414H213.313V59.9849Z" fill="#FF646C"/>
<path id="Vector_351" d="M219.97 59.9849H213.313V66.6414H219.97V59.9849Z" fill="#FF646C"/>
<path id="Vector_352" d="M226.626 59.9849H219.969V66.6414H226.626V59.9849Z" fill="#FF646C"/>
<path id="Vector_353" d="M233.282 59.9849H226.626V66.6414H233.282V59.9849Z" fill="#F99898"/>
<path id="Vector_354" d="M239.977 59.9849H233.321V66.6414H239.977V59.9849Z" fill="#2B1805"/>
<path id="Vector_355" d="M6.65652 66.6414H0V73.2979H6.65652V66.6414Z" fill="#2B1805"/>
<path id="Vector_356" d="M13.313 66.6414H6.65649V73.2979H13.313V66.6414Z" fill="#F23860"/>
<path id="Vector_357" d="M19.9695 66.6414H13.313V73.2979H19.9695V66.6414Z" fill="#F99898"/>
<path id="Vector_358" d="M26.6641 66.6414H20.0076V73.2979H26.6641V66.6414Z" fill="#F99898"/>
<path id="Vector_359" d="M33.3206 66.6414H26.6641V73.2979H33.3206V66.6414Z" fill="#F99898"/>
<path id="Vector_360" d="M39.9771 66.6414H33.3206V73.2979H39.9771V66.6414Z" fill="#F99898"/>
<path id="Vector_361" d="M46.6338 66.6414H39.9773V73.2979H46.6338V66.6414Z" fill="#F99898"/>
<path id="Vector_362" d="M53.3282 66.6414H46.6716V73.2979H53.3282V66.6414Z" fill="#F99898"/>
<path id="Vector_363" d="M59.9849 66.6414H53.3284V73.2979H59.9849V66.6414Z" fill="#F99898"/>
<path id="Vector_364" d="M66.6414 66.6414H59.9849V73.2979H66.6414V66.6414Z" fill="#F99898"/>
<path id="Vector_365" d="M73.2979 66.6414H66.6414V73.2979H73.2979V66.6414Z" fill="#F99898"/>
<path id="Vector_366" d="M79.9925 66.6414H73.3359V73.2979H79.9925V66.6414Z" fill="#F99898"/>
<path id="Vector_367" d="M86.649 66.6414H79.9924V73.2979H86.649V66.6414Z" fill="#F99898"/>
<path id="Vector_368" d="M93.3054 66.6414H86.6489V73.2979H93.3054V66.6414Z" fill="#F99898"/>
<path id="Vector_369" d="M99.9619 66.6414H93.3054V73.2979H99.9619V66.6414Z" fill="#F99898"/>
<path id="Vector_370" d="M106.657 66.6414H100V73.2979H106.657V66.6414Z" fill="#F99898"/>
<path id="Vector_371" d="M113.313 66.6414H106.656V73.2979H113.313V66.6414Z" fill="#F99898"/>
<path id="Vector_372" d="M119.97 66.6414H113.313V73.2979H119.97V66.6414Z" fill="#F99898"/>
<path id="Vector_373" d="M126.626 66.6414H119.969V73.2979H126.626V66.6414Z" fill="#F99898"/>
<path id="Vector_374" d="M133.321 66.6414H126.664V73.2979H133.321V66.6414Z" fill="#F99898"/>
<path id="Vector_375" d="M139.977 66.6414H133.321V73.2979H139.977V66.6414Z" fill="#F99898"/>
<path id="Vector_376" d="M146.634 66.6414H139.977V73.2979H146.634V66.6414Z" fill="#F99898"/>
<path id="Vector_377" d="M153.29 66.6414H146.634V73.2979H153.29V66.6414Z" fill="#F99898"/>
<path id="Vector_378" d="M159.985 66.6414H153.328V73.2979H159.985V66.6414Z" fill="#F99898"/>
<path id="Vector_379" d="M166.641 66.6414H159.985V73.2979H166.641V66.6414Z" fill="#F99898"/>
<path id="Vector_380" d="M173.298 66.6414H166.641V73.2979H173.298V66.6414Z" fill="#F99898"/>
<path id="Vector_381" d="M179.954 66.6414H173.298V73.2979H179.954V66.6414Z" fill="#F99898"/>
<path id="Vector_382" d="M186.649 66.6414H179.992V73.2979H186.649V66.6414Z" fill="#F99898"/>
<path id="Vector_383" d="M193.305 66.6414H186.649V73.2979H193.305V66.6414Z" fill="#F99898"/>
<path id="Vector_384" d="M199.962 66.6414H193.305V73.2979H199.962V66.6414Z" fill="#F99898"/>
<path id="Vector_385" d="M206.618 66.6414H199.962V73.2979H206.618V66.6414Z" fill="#F99898"/>
<path id="Vector_386" d="M213.313 66.6414H206.656V73.2979H213.313V66.6414Z" fill="#F99898"/>
<path id="Vector_387" d="M219.97 66.6414H213.313V73.2979H219.97V66.6414Z" fill="#F99898"/>
<path id="Vector_388" d="M226.626 66.6414H219.969V73.2979H226.626V66.6414Z" fill="#F99898"/>
<path id="Vector_389" d="M233.282 66.6414H226.626V73.2979H233.282V66.6414Z" fill="#F23860"/>
<path id="Vector_390" d="M239.977 66.6414H233.321V73.2979H239.977V66.6414Z" fill="#2B1805"/>
<path id="Vector_391" d="M6.65652 73.3359H0V79.9925H6.65652V73.3359Z" fill="#2B1805"/>
<path id="Vector_392" d="M13.313 73.3359H6.65649V79.9925H13.313V73.3359Z" fill="#F23860"/>
<path id="Vector_393" d="M19.9695 73.3359H13.313V79.9925H19.9695V73.3359Z" fill="#F23860"/>
<path id="Vector_394" d="M26.6641 73.3359H20.0076V79.9925H26.6641V73.3359Z" fill="#F23860"/>
<path id="Vector_395" d="M33.3206 73.3359H26.6641V79.9925H33.3206V73.3359Z" fill="#F23860"/>
<path id="Vector_396" d="M39.9771 73.3359H33.3206V79.9925H39.9771V73.3359Z" fill="#F23860"/>
<path id="Vector_397" d="M46.6338 73.3359H39.9773V79.9925H46.6338V73.3359Z" fill="#F23860"/>
<path id="Vector_398" d="M53.3282 73.3359H46.6716V79.9925H53.3282V73.3359Z" fill="#F23860"/>
<path id="Vector_399" d="M59.9849 73.3359H53.3284V79.9925H59.9849V73.3359Z" fill="#F23860"/>
<path id="Vector_400" d="M66.6414 73.3359H59.9849V79.9925H66.6414V73.3359Z" fill="#F23860"/>
<path id="Vector_401" d="M73.2979 73.3359H66.6414V79.9925H73.2979V73.3359Z" fill="#F23860"/>
<path id="Vector_402" d="M79.9925 73.3359H73.3359V79.9925H79.9925V73.3359Z" fill="#F23860"/>
<path id="Vector_403" d="M86.649 73.3359H79.9924V79.9925H86.649V73.3359Z" fill="#F23860"/>
<path id="Vector_404" d="M93.3054 73.3359H86.6489V79.9925H93.3054V73.3359Z" fill="#F23860"/>
<path id="Vector_405" d="M99.9619 73.3359H93.3054V79.9925H99.9619V73.3359Z" fill="#F23860"/>
<path id="Vector_406" d="M106.657 73.3359H100V79.9925H106.657V73.3359Z" fill="#F23860"/>
<path id="Vector_407" d="M113.313 73.3359H106.656V79.9925H113.313V73.3359Z" fill="#F23860"/>
<path id="Vector_408" d="M119.97 73.3359H113.313V79.9925H119.97V73.3359Z" fill="#F23860"/>
<path id="Vector_409" d="M126.626 73.3359H119.969V79.9925H126.626V73.3359Z" fill="#F23860"/>
<path id="Vector_410" d="M133.321 73.3359H126.664V79.9925H133.321V73.3359Z" fill="#F23860"/>
<path id="Vector_411" d="M139.977 73.3359H133.321V79.9925H139.977V73.3359Z" fill="#F23860"/>
<path id="Vector_412" d="M146.634 73.3359H139.977V79.9925H146.634V73.3359Z" fill="#F23860"/>
<path id="Vector_413" d="M153.29 73.3359H146.634V79.9925H153.29V73.3359Z" fill="#F23860"/>
<path id="Vector_414" d="M159.985 73.3359H153.328V79.9925H159.985V73.3359Z" fill="#F23860"/>
<path id="Vector_415" d="M166.641 73.3359H159.985V79.9925H166.641V73.3359Z" fill="#F23860"/>
<path id="Vector_416" d="M173.298 73.3359H166.641V79.9925H173.298V73.3359Z" fill="#F23860"/>
<path id="Vector_417" d="M179.954 73.3359H173.298V79.9925H179.954V73.3359Z" fill="#F23860"/>
<path id="Vector_418" d="M186.649 73.3359H179.992V79.9925H186.649V73.3359Z" fill="#F23860"/>
<path id="Vector_419" d="M193.305 73.3359H186.649V79.9925H193.305V73.3359Z" fill="#F23860"/>
<path id="Vector_420" d="M199.962 73.3359H193.305V79.9925H199.962V73.3359Z" fill="#F23860"/>
<path id="Vector_421" d="M206.618 73.3359H199.962V79.9925H206.618V73.3359Z" fill="#F23860"/>
<path id="Vector_422" d="M213.313 73.3359H206.656V79.9925H213.313V73.3359Z" fill="#F23860"/>
<path id="Vector_423" d="M219.97 73.3359H213.313V79.9925H219.97V73.3359Z" fill="#F23860"/>
<path id="Vector_424" d="M226.626 73.3359H219.969V79.9925H226.626V73.3359Z" fill="#F23860"/>
<path id="Vector_425" d="M233.282 73.3359H226.626V79.9925H233.282V73.3359Z" fill="#F23860"/>
<path id="Vector_426" d="M239.977 73.3359H233.321V79.9925H239.977V73.3359Z" fill="#2B1805"/>
<path id="Vector_427" d="M6.65652 79.9924H0V86.649H6.65652V79.9924Z" fill="#2B1805"/>
<path id="Vector_428" d="M13.313 79.9924H6.65649V86.649H13.313V79.9924Z" fill="#F23860"/>
<path id="Vector_429" d="M19.9695 79.9924H13.313V86.649H19.9695V79.9924Z" fill="#F23860"/>
<path id="Vector_430" d="M26.6641 79.9924H20.0076V86.649H26.6641V79.9924Z" fill="#F23860"/>
<path id="Vector_431" d="M33.3206 79.9924H26.6641V86.649H33.3206V79.9924Z" fill="#F23860"/>
<path id="Vector_432" d="M39.9771 79.9924H33.3206V86.649H39.9771V79.9924Z" fill="#F23860"/>
<path id="Vector_433" d="M46.6338 79.9924H39.9773V86.649H46.6338V79.9924Z" fill="#F23860"/>
<path id="Vector_434" d="M53.3282 79.9924H46.6716V86.649H53.3282V79.9924Z" fill="#F23860"/>
<path id="Vector_435" d="M59.9849 79.9924H53.3284V86.649H59.9849V79.9924Z" fill="#F23860"/>
<path id="Vector_436" d="M66.6414 79.9924H59.9849V86.649H66.6414V79.9924Z" fill="#F23860"/>
<path id="Vector_437" d="M73.2979 79.9924H66.6414V86.649H73.2979V79.9924Z" fill="#F23860"/>
<path id="Vector_438" d="M79.9925 79.9924H73.3359V86.649H79.9925V79.9924Z" fill="#F23860"/>
<path id="Vector_439" d="M86.649 79.9924H79.9924V86.649H86.649V79.9924Z" fill="#F23860"/>
<path id="Vector_440" d="M93.3054 79.9924H86.6489V86.649H93.3054V79.9924Z" fill="#F23860"/>
<path id="Vector_441" d="M99.9619 79.9924H93.3054V86.649H99.9619V79.9924Z" fill="#F23860"/>
<path id="Vector_442" d="M106.657 79.9924H100V86.649H106.657V79.9924Z" fill="#F23860"/>
<path id="Vector_443" d="M113.313 79.9924H106.656V86.649H113.313V79.9924Z" fill="#F23860"/>
<path id="Vector_444" d="M119.97 79.9924H113.313V86.649H119.97V79.9924Z" fill="#F23860"/>
<path id="Vector_445" d="M126.626 79.9924H119.969V86.649H126.626V79.9924Z" fill="#F23860"/>
<path id="Vector_446" d="M133.321 79.9924H126.664V86.649H133.321V79.9924Z" fill="#F23860"/>
<path id="Vector_447" d="M139.977 79.9924H133.321V86.649H139.977V79.9924Z" fill="#F23860"/>
<path id="Vector_448" d="M146.634 79.9924H139.977V86.649H146.634V79.9924Z" fill="#F23860"/>
<path id="Vector_449" d="M153.29 79.9924H146.634V86.649H153.29V79.9924Z" fill="#F23860"/>
<path id="Vector_450" d="M159.985 79.9924H153.328V86.649H159.985V79.9924Z" fill="#F23860"/>
<path id="Vector_451" d="M166.641 79.9924H159.985V86.649H166.641V79.9924Z" fill="#F23860"/>
<path id="Vector_452" d="M173.298 79.9924H166.641V86.649H173.298V79.9924Z" fill="#F23860"/>
<path id="Vector_453" d="M179.954 79.9924H173.298V86.649H179.954V79.9924Z" fill="#F23860"/>
<path id="Vector_454" d="M186.649 79.9924H179.992V86.649H186.649V79.9924Z" fill="#F23860"/>
<path id="Vector_455" d="M193.305 79.9924H186.649V86.649H193.305V79.9924Z" fill="#F23860"/>
<path id="Vector_456" d="M199.962 79.9924H193.305V86.649H199.962V79.9924Z" fill="#F23860"/>
<path id="Vector_457" d="M206.618 79.9924H199.962V86.649H206.618V79.9924Z" fill="#F23860"/>
<path id="Vector_458" d="M213.313 79.9924H206.656V86.649H213.313V79.9924Z" fill="#F23860"/>
<path id="Vector_459" d="M219.97 79.9924H213.313V86.649H219.97V79.9924Z" fill="#F23860"/>
<path id="Vector_460" d="M226.626 79.9924H219.969V86.649H226.626V79.9924Z" fill="#F23860"/>
<path id="Vector_461" d="M233.282 79.9924H226.626V86.649H233.282V79.9924Z" fill="#F23860"/>
<path id="Vector_462" d="M239.977 79.9924H233.321V86.649H239.977V79.9924Z" fill="#2B1805"/>
<path id="Vector_463" d="M13.313 86.6489H6.65649V93.3054H13.313V86.6489Z" fill="#2B1805"/>
<path id="Vector_464" d="M19.9695 86.6489H13.313V93.3054H19.9695V86.6489Z" fill="#F23860"/>
<path id="Vector_465" d="M26.6641 86.6489H20.0076V93.3054H26.6641V86.6489Z" fill="#F23860"/>
<path id="Vector_466" d="M33.3206 86.6489H26.6641V93.3054H33.3206V86.6489Z" fill="#F23860"/>
<path id="Vector_467" d="M39.9771 86.6489H33.3206V93.3054H39.9771V86.6489Z" fill="#F23860"/>
<path id="Vector_468" d="M46.6338 86.6489H39.9773V93.3054H46.6338V86.6489Z" fill="#F23860"/>
<path id="Vector_469" d="M53.3282 86.6489H46.6716V93.3054H53.3282V86.6489Z" fill="#F23860"/>
<path id="Vector_470" d="M59.9849 86.6489H53.3284V93.3054H59.9849V86.6489Z" fill="#F23860"/>
<path id="Vector_471" d="M66.6414 86.6489H59.9849V93.3054H66.6414V86.6489Z" fill="#F23860"/>
<path id="Vector_472" d="M73.2979 86.6489H66.6414V93.3054H73.2979V86.6489Z" fill="#F23860"/>
<path id="Vector_473" d="M79.9925 86.6489H73.3359V93.3054H79.9925V86.6489Z" fill="#F23860"/>
<path id="Vector_474" d="M86.649 86.6489H79.9924V93.3054H86.649V86.6489Z" fill="#F23860"/>
<path id="Vector_475" d="M93.3054 86.6489H86.6489V93.3054H93.3054V86.6489Z" fill="#F23860"/>
<path id="Vector_476" d="M99.9619 86.6489H93.3054V93.3054H99.9619V86.6489Z" fill="#F23860"/>
<path id="Vector_477" d="M106.657 86.6489H100V93.3054H106.657V86.6489Z" fill="#F23860"/>
<path id="Vector_478" d="M113.313 86.6489H106.656V93.3054H113.313V86.6489Z" fill="#F23860"/>
<path id="Vector_479" d="M119.97 86.6489H113.313V93.3054H119.97V86.6489Z" fill="#F23860"/>
<path id="Vector_480" d="M126.626 86.6489H119.969V93.3054H126.626V86.6489Z" fill="#F23860"/>
<path id="Vector_481" d="M133.321 86.6489H126.664V93.3054H133.321V86.6489Z" fill="#F23860"/>
<path id="Vector_482" d="M139.977 86.6489H133.321V93.3054H139.977V86.6489Z" fill="#F23860"/>
<path id="Vector_483" d="M146.634 86.6489H139.977V93.3054H146.634V86.6489Z" fill="#F23860"/>
<path id="Vector_484" d="M153.29 86.6489H146.634V93.3054H153.29V86.6489Z" fill="#F23860"/>
<path id="Vector_485" d="M159.985 86.6489H153.328V93.3054H159.985V86.6489Z" fill="#F23860"/>
<path id="Vector_486" d="M166.641 86.6489H159.985V93.3054H166.641V86.6489Z" fill="#F23860"/>
<path id="Vector_487" d="M173.298 86.6489H166.641V93.3054H173.298V86.6489Z" fill="#F23860"/>
<path id="Vector_488" d="M179.954 86.6489H173.298V93.3054H179.954V86.6489Z" fill="#F23860"/>
<path id="Vector_489" d="M186.649 86.6489H179.992V93.3054H186.649V86.6489Z" fill="#F23860"/>
<path id="Vector_490" d="M193.305 86.6489H186.649V93.3054H193.305V86.6489Z" fill="#F23860"/>
<path id="Vector_491" d="M199.962 86.6489H193.305V93.3054H199.962V86.6489Z" fill="#F23860"/>
<path id="Vector_492" d="M206.618 86.6489H199.962V93.3054H206.618V86.6489Z" fill="#F23860"/>
<path id="Vector_493" d="M213.313 86.6489H206.656V93.3054H213.313V86.6489Z" fill="#F23860"/>
<path id="Vector_494" d="M219.97 86.6489H213.313V93.3054H219.97V86.6489Z" fill="#F23860"/>
<path id="Vector_495" d="M226.626 86.6489H219.969V93.3054H226.626V86.6489Z" fill="#F23860"/>
<path id="Vector_496" d="M233.282 86.6489H226.626V93.3054H233.282V86.6489Z" fill="#2B1805"/>
<path id="Vector_497" d="M19.9695 93.3054H13.313V99.9619H19.9695V93.3054Z" fill="#2B1805"/>
<path id="Vector_498" d="M26.6641 93.3054H20.0076V99.9619H26.6641V93.3054Z" fill="#2B1805"/>
<path id="Vector_499" d="M33.3206 93.3054H26.6641V99.9619H33.3206V93.3054Z" fill="#2B1805"/>
<path id="Vector_500" d="M39.9771 93.3054H33.3206V99.9619H39.9771V93.3054Z" fill="#2B1805"/>
<path id="Vector_501" d="M46.6338 93.3054H39.9773V99.9619H46.6338V93.3054Z" fill="#2B1805"/>
<path id="Vector_502" d="M53.3282 93.3054H46.6716V99.9619H53.3282V93.3054Z" fill="#2B1805"/>
<path id="Vector_503" d="M59.9849 93.3054H53.3284V99.9619H59.9849V93.3054Z" fill="#2B1805"/>
<path id="Vector_504" d="M66.6414 93.3054H59.9849V99.9619H66.6414V93.3054Z" fill="#2B1805"/>
<path id="Vector_505" d="M73.2979 93.3054H66.6414V99.9619H73.2979V93.3054Z" fill="#2B1805"/>
<path id="Vector_506" d="M79.9925 93.3054H73.3359V99.9619H79.9925V93.3054Z" fill="#2B1805"/>
<path id="Vector_507" d="M86.649 93.3054H79.9924V99.9619H86.649V93.3054Z" fill="#2B1805"/>
<path id="Vector_508" d="M93.3054 93.3054H86.6489V99.9619H93.3054V93.3054Z" fill="#2B1805"/>
<path id="Vector_509" d="M99.9619 93.3054H93.3054V99.9619H99.9619V93.3054Z" fill="#2B1805"/>
<path id="Vector_510" d="M106.657 93.3054H100V99.9619H106.657V93.3054Z" fill="#2B1805"/>
<path id="Vector_511" d="M113.313 93.3054H106.656V99.9619H113.313V93.3054Z" fill="#2B1805"/>
<path id="Vector_512" d="M119.97 93.3054H113.313V99.9619H119.97V93.3054Z" fill="#2B1805"/>
<path id="Vector_513" d="M126.626 93.3054H119.969V99.9619H126.626V93.3054Z" fill="#2B1805"/>
<path id="Vector_514" d="M133.321 93.3054H126.664V99.9619H133.321V93.3054Z" fill="#2B1805"/>
<path id="Vector_515" d="M139.977 93.3054H133.321V99.9619H139.977V93.3054Z" fill="#2B1805"/>
<path id="Vector_516" d="M146.634 93.3054H139.977V99.9619H146.634V93.3054Z" fill="#2B1805"/>
<path id="Vector_517" d="M153.29 93.3054H146.634V99.9619H153.29V93.3054Z" fill="#2B1805"/>
<path id="Vector_518" d="M159.985 93.3054H153.328V99.9619H159.985V93.3054Z" fill="#2B1805"/>
<path id="Vector_519" d="M166.641 93.3054H159.985V99.9619H166.641V93.3054Z" fill="#2B1805"/>
<path id="Vector_520" d="M173.298 93.3054H166.641V99.9619H173.298V93.3054Z" fill="#2B1805"/>
<path id="Vector_521" d="M179.954 93.3054H173.298V99.9619H179.954V93.3054Z" fill="#2B1805"/>
<path id="Vector_522" d="M186.649 93.3054H179.992V99.9619H186.649V93.3054Z" fill="#2B1805"/>
<path id="Vector_523" d="M193.305 93.3054H186.649V99.9619H193.305V93.3054Z" fill="#2B1805"/>
<path id="Vector_524" d="M199.962 93.3054H193.305V99.9619H199.962V93.3054Z" fill="#2B1805"/>
<path id="Vector_525" d="M206.618 93.3054H199.962V99.9619H206.618V93.3054Z" fill="#2B1805"/>
<path id="Vector_526" d="M213.313 93.3054H206.656V99.9619H213.313V93.3054Z" fill="#2B1805"/>
<path id="Vector_527" d="M219.97 93.3054H213.313V99.9619H219.97V93.3054Z" fill="#2B1805"/>
<path id="Vector_528" d="M226.626 93.3054H219.969V99.9619H226.626V93.3054Z" fill="#2B1805"/>
</g>
<g id="Group_3">
<path id="Vector_529" d="M32.1035 49.2963H29.4409V46.6336V43.971V41.3084V38.6458V35.9832V33.3206V30.658V27.9954V25.3328H32.1035H34.7661H37.4287H40.0914H42.754H45.4166V27.9954H48.0792V30.658V33.3206V35.9832V38.6458H45.4166V41.3084H42.754H40.0914H37.4287H34.7661V43.971V46.6336V49.2963H32.1035ZM40.0914 35.9832H42.754V33.3206V30.658H40.0914H37.4287H34.7661V33.3206V35.9832H37.4287H40.0914Z" fill="white"/>
<path id="Vector_530" d="M66.7174 49.2963H64.0547H61.3921H58.7295H56.0669H53.4043H50.7417V46.6336V43.971V41.3084V38.6458V35.9832V33.3206V30.658V27.9954V25.3328H53.4043H56.0669V27.9954V30.658V33.3206V35.9832V38.6458V41.3084V43.971H58.7295H61.3921H64.0547H66.7174H69.38V46.6336V49.2963H66.7174Z" fill="white"/>
<path id="Vector_531" d="M88.0184 49.2963H85.3558V46.6336V43.971V41.3084H82.6932H80.0306H77.3679V43.971V46.6336V49.2963H74.7053H72.0427V46.6336V43.971V41.3084V38.6458V35.9832V33.3206V30.658H74.7053V27.9954H77.3679V25.3328H80.0306H82.6932H85.3558V27.9954H88.0184V30.658H90.681V33.3206V35.9832V38.6458V41.3084V43.971V46.6336V49.2963H88.0184ZM82.6932 35.9832H85.3558V33.3206V30.658H82.6932V27.9954H80.0306V30.658H77.3679V33.3206V35.9832H80.0306H82.6932Z" fill="white"/>
<path id="Vector_532" d="M101.331 49.2963H98.6687V46.6336V43.971V41.3084V38.6458H96.0061V35.9832H93.3435V33.3206V30.658V27.9954V25.3328H96.0061H98.6687V27.9954V30.658V33.3206H101.331H103.994V30.658V27.9954V25.3328H106.657H109.319V27.9954V30.658V33.3206V35.9832H106.657V38.6458H103.994V41.3084V43.971V46.6336V49.2963H101.331Z" fill="white"/>
<path id="Vector_533" d="M138.608 49.2963H135.945H133.283H130.62H127.958V46.6336H125.295V43.971V41.3084V38.6458V35.9832V33.3206V30.658V27.9954H127.958V25.3328H130.62H133.283H135.945H138.608H141.271V27.9954H143.933V30.658V33.3206H141.271H138.608V30.658H135.945H133.283H130.62V33.3206V35.9832V38.6458V41.3084V43.971H133.283H135.945H138.608V41.3084H135.945H133.283V38.6458V35.9832H135.945H138.608H141.271H143.933V38.6458V41.3084V43.971V46.6336H141.271V49.2963H138.608Z" fill="white"/>
<path id="Vector_534" d="M162.571 49.2963H159.909V46.6336V43.971V41.3084H157.246H154.584H151.921V43.971V46.6336V49.2963H149.258H146.596V46.6336V43.971V41.3084V38.6458V35.9832V33.3206V30.658H149.258V27.9954H151.921V25.3328H154.584H157.246H159.909V27.9954H162.571V30.658H165.234V33.3206V35.9832V38.6458V41.3084V43.971V46.6336V49.2963H162.571ZM157.246 35.9832H159.909V33.3206V30.658H157.246V27.9954H154.584V30.658H151.921V33.3206V35.9832H154.584H157.246Z" fill="white"/>
<path id="Vector_535" d="M175.884 41.3084V38.6458H173.222V41.3084V43.971V46.6336V49.2963H170.559H167.896V46.6336V43.971V41.3084V38.6458V35.9832V33.3206V30.658V27.9954V25.3328H170.559V27.9954H173.222V30.658H175.884V33.3206H178.547V30.658H181.21V27.9954H183.872V25.3328H186.535V27.9954V30.658V33.3206V35.9832V38.6458V41.3084V43.971V46.6336V49.2963H183.872H181.21V46.6336V43.971V41.3084V38.6458H178.547V41.3084H175.884Z" fill="white"/>
<path id="Vector_536" d="M205.173 49.2963H202.511H199.848H197.185H194.523H191.86H189.198V46.6336V43.971V41.3084V38.6458V35.9832V33.3206V30.658V27.9954V25.3328H191.86H194.523H197.185H199.848H202.511H205.173H207.836V27.9954V30.658H205.173H202.511H199.848H197.185H194.523V33.3206V35.9832V38.6458V41.3084V43.971H197.185H199.848H202.511H205.173H207.836V46.6336V49.2963H205.173ZM202.511 39.9771H199.848H197.185H194.523V37.3145V34.6519H197.185H199.848H202.511H205.173V37.3145V39.9771H202.511Z" fill="white"/>
</g>
</g>
</g>
<defs>
<clipPath id="clip0_53_30679">
<rect width="239.977" height="100" fill="white"/>
</clipPath>
</defs>
</svg>
