<svg width="240" height="94" viewBox="0 0 240 94" fill="none" xmlns="http://www.w3.org/2000/svg">
<path d="M19.9698 0H13.3132V6.6566H19.9698V0Z" fill="#2B1805"/>
<path d="M26.6644 0H20.0078V6.6566H26.6644V0Z" fill="#2B1805"/>
<path d="M33.3212 0H26.6646V6.6566H33.3212V0Z" fill="#2B1805"/>
<path d="M39.9776 0H33.321V6.6566H39.9776V0Z" fill="#2B1805"/>
<path d="M46.6344 0H39.9778V6.6566H46.6344V0Z" fill="#2B1805"/>
<path d="M53.329 0H46.6724V6.6566H53.329V0Z" fill="#2B1805"/>
<path d="M59.9855 0H53.3289V6.6566H59.9855V0Z" fill="#2B1805"/>
<path d="M66.642 0H59.9854V6.6566H66.642V0Z" fill="#2B1805"/>
<path d="M73.2987 0H66.6421V6.6566H73.2987V0Z" fill="#2B1805"/>
<path d="M79.9933 0H73.3367V6.6566H79.9933V0Z" fill="#2B1805"/>
<path d="M86.65 0H79.9934V6.6566H86.65V0Z" fill="#2B1805"/>
<path d="M93.3065 0H86.6499V6.6566H93.3065V0Z" fill="#2B1805"/>
<path d="M99.9632 0H93.3066V6.6566H99.9632V0Z" fill="#2B1805"/>
<path d="M106.658 0H100.001V6.6566H106.658V0Z" fill="#2B1805"/>
<path d="M113.314 0H106.658V6.6566H113.314V0Z" fill="#2B1805"/>
<path d="M119.971 0H113.314V6.6566H119.971V0Z" fill="#2B1805"/>
<path d="M126.628 0H119.971V6.6566H126.628V0Z" fill="#2B1805"/>
<path d="M133.322 0H126.666V6.6566H133.322V0Z" fill="#2B1805"/>
<path d="M139.979 0H133.322V6.6566H139.979V0Z" fill="#2B1805"/>
<path d="M146.635 0H139.979V6.6566H146.635V0Z" fill="#2B1805"/>
<path d="M153.292 0H146.635V6.6566H153.292V0Z" fill="#2B1805"/>
<path d="M159.987 0H153.33V6.6566H159.987V0Z" fill="#2B1805"/>
<path d="M166.643 0H159.987V6.6566H166.643V0Z" fill="#2B1805"/>
<path d="M173.3 0H166.643V6.6566H173.3V0Z" fill="#2B1805"/>
<path d="M179.956 0H173.3V6.6566H179.956V0Z" fill="#2B1805"/>
<path d="M186.651 0H179.994V6.6566H186.651V0Z" fill="#2B1805"/>
<path d="M193.308 0H186.651V6.6566H193.308V0Z" fill="#2B1805"/>
<path d="M199.964 0H193.308V6.6566H199.964V0Z" fill="#2B1805"/>
<path d="M206.621 0H199.964V6.6566H206.621V0Z" fill="#2B1805"/>
<path d="M213.316 0H206.659V6.6566H213.316V0Z" fill="#2B1805"/>
<path d="M219.972 0H213.316V6.6566H219.972V0Z" fill="#2B1805"/>
<path d="M226.629 0H219.972V6.6566H226.629V0Z" fill="#2B1805"/>
<path d="M13.3131 6.65649H6.65649V13.3131H13.3131V6.65649Z" fill="#2B1805"/>
<path d="M19.9698 6.65649H13.3132V13.3131H19.9698V6.65649Z" fill="#FF646C"/>
<path d="M26.6644 6.65649H20.0078V13.3131H26.6644V6.65649Z" fill="#FF646C"/>
<path d="M33.3212 6.65649H26.6646V13.3131H33.3212V6.65649Z" fill="#FF646C"/>
<path d="M39.9776 6.65649H33.321V13.3131H39.9776V6.65649Z" fill="#FF646C"/>
<path d="M46.6344 6.65649H39.9778V13.3131H46.6344V6.65649Z" fill="#FF646C"/>
<path d="M53.329 6.65649H46.6724V13.3131H53.329V6.65649Z" fill="#FF646C"/>
<path d="M59.9855 6.65649H53.3289V13.3131H59.9855V6.65649Z" fill="#FF646C"/>
<path d="M66.642 6.65649H59.9854V13.3131H66.642V6.65649Z" fill="#FF646C"/>
<path d="M73.2987 6.65649H66.6421V13.3131H73.2987V6.65649Z" fill="#FF646C"/>
<path d="M79.9933 6.65649H73.3367V13.3131H79.9933V6.65649Z" fill="#FF646C"/>
<path d="M86.65 6.65649H79.9934V13.3131H86.65V6.65649Z" fill="#FF646C"/>
<path d="M93.3065 6.65649H86.6499V13.3131H93.3065V6.65649Z" fill="#FF646C"/>
<path d="M99.9632 6.65649H93.3066V13.3131H99.9632V6.65649Z" fill="#FF646C"/>
<path d="M106.658 6.65649H100.001V13.3131H106.658V6.65649Z" fill="#FF646C"/>
<path d="M113.314 6.65649H106.658V13.3131H113.314V6.65649Z" fill="#FF646C"/>
<path d="M119.971 6.65649H113.314V13.3131H119.971V6.65649Z" fill="#FF646C"/>
<path d="M126.628 6.65649H119.971V13.3131H126.628V6.65649Z" fill="#FF646C"/>
<path d="M133.322 6.65649H126.666V13.3131H133.322V6.65649Z" fill="#FF646C"/>
<path d="M139.979 6.65649H133.322V13.3131H139.979V6.65649Z" fill="#FF646C"/>
<path d="M146.635 6.65649H139.979V13.3131H146.635V6.65649Z" fill="#FF646C"/>
<path d="M153.292 6.65649H146.635V13.3131H153.292V6.65649Z" fill="#FF646C"/>
<path d="M159.987 6.65649H153.33V13.3131H159.987V6.65649Z" fill="#FF646C"/>
<path d="M166.643 6.65649H159.987V13.3131H166.643V6.65649Z" fill="#FF646C"/>
<path d="M173.3 6.65649H166.643V13.3131H173.3V6.65649Z" fill="#FF646C"/>
<path d="M179.956 6.65649H173.3V13.3131H179.956V6.65649Z" fill="#FF646C"/>
<path d="M186.651 6.65649H179.994V13.3131H186.651V6.65649Z" fill="#FF646C"/>
<path d="M193.308 6.65649H186.651V13.3131H193.308V6.65649Z" fill="#FF646C"/>
<path d="M199.964 6.65649H193.308V13.3131H199.964V6.65649Z" fill="#FF646C"/>
<path d="M206.621 6.65649H199.964V13.3131H206.621V6.65649Z" fill="#FF646C"/>
<path d="M213.316 6.65649H206.659V13.3131H213.316V6.65649Z" fill="#FF646C"/>
<path d="M219.972 6.65649H213.316V13.3131H219.972V6.65649Z" fill="#FF646C"/>
<path d="M226.629 6.65649H219.972V13.3131H226.629V6.65649Z" fill="#FF646C"/>
<path d="M233.285 6.65649H226.629V13.3131H233.285V6.65649Z" fill="#2B1805"/>
<path d="M6.6566 13.3132H0V19.9698H6.6566V13.3132Z" fill="#2B1805"/>
<path d="M13.3131 13.3132H6.65649V19.9698H13.3131V13.3132Z" fill="#FF646C"/>
<path d="M19.9698 13.3132H13.3132V19.9698H19.9698V13.3132Z" fill="#FF646C"/>
<path d="M26.6644 13.3132H20.0078V19.9698H26.6644V13.3132Z" fill="#FF646C"/>
<path d="M33.3212 13.3132H26.6646V19.9698H33.3212V13.3132Z" fill="#FF646C"/>
<path d="M39.9776 13.3132H33.321V19.9698H39.9776V13.3132Z" fill="#FF646C"/>
<path d="M46.6344 13.3132H39.9778V19.9698H46.6344V13.3132Z" fill="#FF646C"/>
<path d="M53.329 13.3132H46.6724V19.9698H53.329V13.3132Z" fill="#FF646C"/>
<path d="M59.9855 13.3132H53.3289V19.9698H59.9855V13.3132Z" fill="#FF646C"/>
<path d="M66.642 13.3132H59.9854V19.9698H66.642V13.3132Z" fill="#FF646C"/>
<path d="M73.2987 13.3132H66.6421V19.9698H73.2987V13.3132Z" fill="#FF646C"/>
<path d="M79.9933 13.3132H73.3367V19.9698H79.9933V13.3132Z" fill="#FF646C"/>
<path d="M86.65 13.3132H79.9934V19.9698H86.65V13.3132Z" fill="#FF646C"/>
<path d="M93.3065 13.3132H86.6499V19.9698H93.3065V13.3132Z" fill="#FF646C"/>
<path d="M99.9632 13.3132H93.3066V19.9698H99.9632V13.3132Z" fill="#FF646C"/>
<path d="M106.658 13.3132H100.001V19.9698H106.658V13.3132Z" fill="#FF646C"/>
<path d="M113.314 13.3132H106.658V19.9698H113.314V13.3132Z" fill="#FF646C"/>
<path d="M119.971 13.3132H113.314V19.9698H119.971V13.3132Z" fill="#FF646C"/>
<path d="M126.628 13.3132H119.971V19.9698H126.628V13.3132Z" fill="#FF646C"/>
<path d="M133.322 13.3132H126.666V19.9698H133.322V13.3132Z" fill="#FF646C"/>
<path d="M139.979 13.3132H133.322V19.9698H139.979V13.3132Z" fill="#FF646C"/>
<path d="M146.635 13.3132H139.979V19.9698H146.635V13.3132Z" fill="#FF646C"/>
<path d="M153.292 13.3132H146.635V19.9698H153.292V13.3132Z" fill="#FF646C"/>
<path d="M159.987 13.3132H153.33V19.9698H159.987V13.3132Z" fill="#FF646C"/>
<path d="M166.643 13.3132H159.987V19.9698H166.643V13.3132Z" fill="#FF646C"/>
<path d="M173.3 13.3132H166.643V19.9698H173.3V13.3132Z" fill="#FF646C"/>
<path d="M179.956 13.3132H173.3V19.9698H179.956V13.3132Z" fill="#FF646C"/>
<path d="M186.651 13.3132H179.994V19.9698H186.651V13.3132Z" fill="#FF646C"/>
<path d="M193.308 13.3132H186.651V19.9698H193.308V13.3132Z" fill="#FF646C"/>
<path d="M199.964 13.3132H193.308V19.9698H199.964V13.3132Z" fill="#FF646C"/>
<path d="M206.621 13.3132H199.964V19.9698H206.621V13.3132Z" fill="#FF646C"/>
<path d="M213.316 13.3132H206.659V19.9698H213.316V13.3132Z" fill="#FF646C"/>
<path d="M219.972 13.3132H213.316V19.9698H219.972V13.3132Z" fill="#FF646C"/>
<path d="M226.629 13.3132H219.972V19.9698H226.629V13.3132Z" fill="#FF646C"/>
<path d="M233.285 13.3132H226.629V19.9698H233.285V13.3132Z" fill="#F99898"/>
<path d="M239.98 13.3132H233.323V19.9698H239.98V13.3132Z" fill="#2B1805"/>
<path d="M6.6566 13.3132H0V19.9698H6.6566V13.3132Z" fill="#2B1805"/>
<path d="M13.3131 13.3132H6.65649V19.9698H13.3131V13.3132Z" fill="#FF646C"/>
<path d="M19.9698 13.3132H13.3132V19.9698H19.9698V13.3132Z" fill="#FF646C"/>
<path d="M26.6644 13.3132H20.0078V19.9698H26.6644V13.3132Z" fill="#FF646C"/>
<path d="M33.3212 13.3132H26.6646V19.9698H33.3212V13.3132Z" fill="#FF646C"/>
<path d="M39.9776 13.3132H33.321V19.9698H39.9776V13.3132Z" fill="#FF646C"/>
<path d="M46.6344 13.3132H39.9778V19.9698H46.6344V13.3132Z" fill="#FF646C"/>
<path d="M53.329 13.3132H46.6724V19.9698H53.329V13.3132Z" fill="#FF646C"/>
<path d="M59.9855 13.3132H53.3289V19.9698H59.9855V13.3132Z" fill="#FF646C"/>
<path d="M66.642 13.3132H59.9854V19.9698H66.642V13.3132Z" fill="#FF646C"/>
<path d="M73.2987 13.3132H66.6421V19.9698H73.2987V13.3132Z" fill="#FF646C"/>
<path d="M79.9933 13.3132H73.3367V19.9698H79.9933V13.3132Z" fill="#FF646C"/>
<path d="M86.65 13.3132H79.9934V19.9698H86.65V13.3132Z" fill="#FF646C"/>
<path d="M93.3065 13.3132H86.6499V19.9698H93.3065V13.3132Z" fill="#FF646C"/>
<path d="M99.9632 13.3132H93.3066V19.9698H99.9632V13.3132Z" fill="#FF646C"/>
<path d="M106.658 13.3132H100.001V19.9698H106.658V13.3132Z" fill="#FF646C"/>
<path d="M113.314 13.3132H106.658V19.9698H113.314V13.3132Z" fill="#FF646C"/>
<path d="M119.971 13.3132H113.314V19.9698H119.971V13.3132Z" fill="#FF646C"/>
<path d="M126.628 13.3132H119.971V19.9698H126.628V13.3132Z" fill="#FF646C"/>
<path d="M133.322 13.3132H126.666V19.9698H133.322V13.3132Z" fill="#FF646C"/>
<path d="M139.979 13.3132H133.322V19.9698H139.979V13.3132Z" fill="#FF646C"/>
<path d="M146.635 13.3132H139.979V19.9698H146.635V13.3132Z" fill="#FF646C"/>
<path d="M153.292 13.3132H146.635V19.9698H153.292V13.3132Z" fill="#FF646C"/>
<path d="M159.987 13.3132H153.33V19.9698H159.987V13.3132Z" fill="#FF646C"/>
<path d="M166.643 13.3132H159.987V19.9698H166.643V13.3132Z" fill="#FF646C"/>
<path d="M173.3 13.3132H166.643V19.9698H173.3V13.3132Z" fill="#FF646C"/>
<path d="M179.956 13.3132H173.3V19.9698H179.956V13.3132Z" fill="#FF646C"/>
<path d="M186.651 13.3132H179.994V19.9698H186.651V13.3132Z" fill="#FF646C"/>
<path d="M193.308 13.3132H186.651V19.9698H193.308V13.3132Z" fill="#FF646C"/>
<path d="M199.964 13.3132H193.308V19.9698H199.964V13.3132Z" fill="#FF646C"/>
<path d="M206.621 13.3132H199.964V19.9698H206.621V13.3132Z" fill="#FF646C"/>
<path d="M213.316 13.3132H206.659V19.9698H213.316V13.3132Z" fill="#FF646C"/>
<path d="M219.972 13.3132H213.316V19.9698H219.972V13.3132Z" fill="#FF646C"/>
<path d="M226.629 13.3132H219.972V19.9698H226.629V13.3132Z" fill="#FF646C"/>
<path d="M233.285 13.3132H226.629V19.9698H233.285V13.3132Z" fill="#F99898"/>
<path d="M239.98 13.3132H233.323V19.9698H239.98V13.3132Z" fill="#2B1805"/>
<path d="M6.6566 19.9697H0V26.6263H6.6566V19.9697Z" fill="#2B1805"/>
<path d="M13.3131 19.9697H6.65649V26.6263H13.3131V19.9697Z" fill="#FF646C"/>
<path d="M19.9698 19.9697H13.3132V26.6263H19.9698V19.9697Z" fill="#FF646C"/>
<path d="M26.6644 19.9697H20.0078V26.6263H26.6644V19.9697Z" fill="#FF646C"/>
<path d="M33.3212 19.9697H26.6646V26.6263H33.3212V19.9697Z" fill="#FF646C"/>
<path d="M39.9776 19.9697H33.321V26.6263H39.9776V19.9697Z" fill="#FF646C"/>
<path d="M46.6344 19.9697H39.9778V26.6263H46.6344V19.9697Z" fill="#FF646C"/>
<path d="M53.329 19.9697H46.6724V26.6263H53.329V19.9697Z" fill="#FF646C"/>
<path d="M59.9855 19.9697H53.3289V26.6263H59.9855V19.9697Z" fill="#FF646C"/>
<path d="M66.642 19.9697H59.9854V26.6263H66.642V19.9697Z" fill="#FF646C"/>
<path d="M73.2987 19.9697H66.6421V26.6263H73.2987V19.9697Z" fill="#FF646C"/>
<path d="M79.9933 19.9697H73.3367V26.6263H79.9933V19.9697Z" fill="#FF646C"/>
<path d="M86.65 19.9697H79.9934V26.6263H86.65V19.9697Z" fill="#FF646C"/>
<path d="M93.3065 19.9697H86.6499V26.6263H93.3065V19.9697Z" fill="#FF646C"/>
<path d="M99.9632 19.9697H93.3066V26.6263H99.9632V19.9697Z" fill="#FF646C"/>
<path d="M106.658 19.9697H100.001V26.6263H106.658V19.9697Z" fill="#FF646C"/>
<path d="M113.314 19.9697H106.658V26.6263H113.314V19.9697Z" fill="#FF646C"/>
<path d="M119.971 19.9697H113.314V26.6263H119.971V19.9697Z" fill="#FF646C"/>
<path d="M126.628 19.9697H119.971V26.6263H126.628V19.9697Z" fill="#FF646C"/>
<path d="M133.322 19.9697H126.666V26.6263H133.322V19.9697Z" fill="#FF646C"/>
<path d="M139.979 19.9697H133.322V26.6263H139.979V19.9697Z" fill="#FF646C"/>
<path d="M146.635 19.9697H139.979V26.6263H146.635V19.9697Z" fill="#FF646C"/>
<path d="M153.292 19.9697H146.635V26.6263H153.292V19.9697Z" fill="#FF646C"/>
<path d="M159.987 19.9697H153.33V26.6263H159.987V19.9697Z" fill="#FF646C"/>
<path d="M166.643 19.9697H159.987V26.6263H166.643V19.9697Z" fill="#FF646C"/>
<path d="M173.3 19.9697H166.643V26.6263H173.3V19.9697Z" fill="#FF646C"/>
<path d="M179.956 19.9697H173.3V26.6263H179.956V19.9697Z" fill="#FF646C"/>
<path d="M186.651 19.9697H179.994V26.6263H186.651V19.9697Z" fill="#FF646C"/>
<path d="M193.308 19.9697H186.651V26.6263H193.308V19.9697Z" fill="#FF646C"/>
<path d="M199.964 19.9697H193.308V26.6263H199.964V19.9697Z" fill="#FF646C"/>
<path d="M206.621 19.9697H199.964V26.6263H206.621V19.9697Z" fill="#FF646C"/>
<path d="M213.316 19.9697H206.659V26.6263H213.316V19.9697Z" fill="#FF646C"/>
<path d="M219.972 19.9697H213.316V26.6263H219.972V19.9697Z" fill="#FF646C"/>
<path d="M226.629 19.9697H219.972V26.6263H226.629V19.9697Z" fill="#FF646C"/>
<path d="M233.285 19.9697H226.629V26.6263H233.285V19.9697Z" fill="#F99898"/>
<path d="M239.98 19.9697H233.323V26.6263H239.98V19.9697Z" fill="#2B1805"/>
<path d="M6.6566 26.6643H0V33.3209H6.6566V26.6643Z" fill="#2B1805"/>
<path d="M13.3131 26.6643H6.65649V33.3209H13.3131V26.6643Z" fill="#FF646C"/>
<path d="M19.9698 26.6643H13.3132V33.3209H19.9698V26.6643Z" fill="#FF646C"/>
<path d="M26.6644 26.6643H20.0078V33.3209H26.6644V26.6643Z" fill="#FF646C"/>
<path d="M33.3212 26.6643H26.6646V33.3209H33.3212V26.6643Z" fill="#FF646C"/>
<path d="M39.9776 26.6643H33.321V33.3209H39.9776V26.6643Z" fill="#FF646C"/>
<path d="M46.6344 26.6643H39.9778V33.3209H46.6344V26.6643Z" fill="#FF646C"/>
<path d="M53.329 26.6643H46.6724V33.3209H53.329V26.6643Z" fill="#FF646C"/>
<path d="M59.9855 26.6643H53.3289V33.3209H59.9855V26.6643Z" fill="#FF646C"/>
<path d="M66.642 26.6643H59.9854V33.3209H66.642V26.6643Z" fill="#FF646C"/>
<path d="M73.2987 26.6643H66.6421V33.3209H73.2987V26.6643Z" fill="#FF646C"/>
<path d="M79.9933 26.6643H73.3367V33.3209H79.9933V26.6643Z" fill="#FF646C"/>
<path d="M86.65 26.6643H79.9934V33.3209H86.65V26.6643Z" fill="#FF646C"/>
<path d="M93.3065 26.6643H86.6499V33.3209H93.3065V26.6643Z" fill="#FF646C"/>
<path d="M99.9632 26.6643H93.3066V33.3209H99.9632V26.6643Z" fill="#FF646C"/>
<path d="M106.658 26.6643H100.001V33.3209H106.658V26.6643Z" fill="#FF646C"/>
<path d="M113.314 26.6643H106.658V33.3209H113.314V26.6643Z" fill="#FF646C"/>
<path d="M119.971 26.6643H113.314V33.3209H119.971V26.6643Z" fill="#FF646C"/>
<path d="M126.628 26.6643H119.971V33.3209H126.628V26.6643Z" fill="#FF646C"/>
<path d="M133.322 26.6643H126.666V33.3209H133.322V26.6643Z" fill="#FF646C"/>
<path d="M139.979 26.6643H133.322V33.3209H139.979V26.6643Z" fill="#FF646C"/>
<path d="M146.635 26.6643H139.979V33.3209H146.635V26.6643Z" fill="#FF646C"/>
<path d="M153.292 26.6643H146.635V33.3209H153.292V26.6643Z" fill="#FF646C"/>
<path d="M159.987 26.6643H153.33V33.3209H159.987V26.6643Z" fill="#FF646C"/>
<path d="M166.643 26.6643H159.987V33.3209H166.643V26.6643Z" fill="#FF646C"/>
<path d="M173.3 26.6643H166.643V33.3209H173.3V26.6643Z" fill="#FF646C"/>
<path d="M179.956 26.6643H173.3V33.3209H179.956V26.6643Z" fill="#FF646C"/>
<path d="M186.651 26.6643H179.994V33.3209H186.651V26.6643Z" fill="#FF646C"/>
<path d="M193.308 26.6643H186.651V33.3209H193.308V26.6643Z" fill="#FF646C"/>
<path d="M199.964 26.6643H193.308V33.3209H199.964V26.6643Z" fill="#FF646C"/>
<path d="M206.621 26.6643H199.964V33.3209H206.621V26.6643Z" fill="#FF646C"/>
<path d="M213.316 26.6643H206.659V33.3209H213.316V26.6643Z" fill="#FF646C"/>
<path d="M219.972 26.6643H213.316V33.3209H219.972V26.6643Z" fill="#FF646C"/>
<path d="M226.629 26.6643H219.972V33.3209H226.629V26.6643Z" fill="#FF646C"/>
<path d="M233.285 26.6643H226.629V33.3209H233.285V26.6643Z" fill="#F99898"/>
<path d="M239.98 26.6643H233.323V33.3209H239.98V26.6643Z" fill="#2B1805"/>
<path d="M6.6566 33.321H0V39.9776H6.6566V33.321Z" fill="#2B1805"/>
<path d="M13.3131 33.321H6.65649V39.9776H13.3131V33.321Z" fill="#FF646C"/>
<path d="M19.9698 33.321H13.3132V39.9776H19.9698V33.321Z" fill="#FF646C"/>
<path d="M26.6644 33.321H20.0078V39.9776H26.6644V33.321Z" fill="#FF646C"/>
<path d="M33.3212 33.321H26.6646V39.9776H33.3212V33.321Z" fill="#FF646C"/>
<path d="M39.9776 33.321H33.321V39.9776H39.9776V33.321Z" fill="#FF646C"/>
<path d="M46.6344 33.321H39.9778V39.9776H46.6344V33.321Z" fill="#FF646C"/>
<path d="M53.329 33.321H46.6724V39.9776H53.329V33.321Z" fill="#FF646C"/>
<path d="M59.9855 33.321H53.3289V39.9776H59.9855V33.321Z" fill="#FF646C"/>
<path d="M66.642 33.321H59.9854V39.9776H66.642V33.321Z" fill="#FF646C"/>
<path d="M73.2987 33.321H66.6421V39.9776H73.2987V33.321Z" fill="#FF646C"/>
<path d="M79.9933 33.321H73.3367V39.9776H79.9933V33.321Z" fill="#FF646C"/>
<path d="M86.65 33.321H79.9934V39.9776H86.65V33.321Z" fill="#FF646C"/>
<path d="M93.3065 33.321H86.6499V39.9776H93.3065V33.321Z" fill="#FF646C"/>
<path d="M99.9632 33.321H93.3066V39.9776H99.9632V33.321Z" fill="#FF646C"/>
<path d="M106.658 33.321H100.001V39.9776H106.658V33.321Z" fill="#FF646C"/>
<path d="M113.314 33.321H106.658V39.9776H113.314V33.321Z" fill="#FF646C"/>
<path d="M119.971 33.321H113.314V39.9776H119.971V33.321Z" fill="#FF646C"/>
<path d="M126.628 33.321H119.971V39.9776H126.628V33.321Z" fill="#FF646C"/>
<path d="M133.322 33.321H126.666V39.9776H133.322V33.321Z" fill="#FF646C"/>
<path d="M139.979 33.321H133.322V39.9776H139.979V33.321Z" fill="#FF646C"/>
<path d="M146.635 33.321H139.979V39.9776H146.635V33.321Z" fill="#FF646C"/>
<path d="M153.292 33.321H146.635V39.9776H153.292V33.321Z" fill="#FF646C"/>
<path d="M159.987 33.321H153.33V39.9776H159.987V33.321Z" fill="#FF646C"/>
<path d="M166.643 33.321H159.987V39.9776H166.643V33.321Z" fill="#FF646C"/>
<path d="M173.3 33.321H166.643V39.9776H173.3V33.321Z" fill="#FF646C"/>
<path d="M179.956 33.321H173.3V39.9776H179.956V33.321Z" fill="#FF646C"/>
<path d="M186.651 33.321H179.994V39.9776H186.651V33.321Z" fill="#FF646C"/>
<path d="M193.308 33.321H186.651V39.9776H193.308V33.321Z" fill="#FF646C"/>
<path d="M199.964 33.321H193.308V39.9776H199.964V33.321Z" fill="#FF646C"/>
<path d="M206.621 33.321H199.964V39.9776H206.621V33.321Z" fill="#FF646C"/>
<path d="M213.316 33.321H206.659V39.9776H213.316V33.321Z" fill="#FF646C"/>
<path d="M219.972 33.321H213.316V39.9776H219.972V33.321Z" fill="#FF646C"/>
<path d="M226.629 33.321H219.972V39.9776H226.629V33.321Z" fill="#FF646C"/>
<path d="M233.285 33.321H226.629V39.9776H233.285V33.321Z" fill="#F99898"/>
<path d="M239.98 33.321H233.323V39.9776H239.98V33.321Z" fill="#2B1805"/>
<path d="M6.6566 39.9775H0V46.6341H6.6566V39.9775Z" fill="#2B1805"/>
<path d="M13.3131 39.9775H6.65649V46.6341H13.3131V39.9775Z" fill="#FF646C"/>
<path d="M19.9698 39.9775H13.3132V46.6341H19.9698V39.9775Z" fill="#FF646C"/>
<path d="M26.6644 39.9775H20.0078V46.6341H26.6644V39.9775Z" fill="#FF646C"/>
<path d="M33.3212 39.9775H26.6646V46.6341H33.3212V39.9775Z" fill="#FF646C"/>
<path d="M39.9776 39.9775H33.321V46.6341H39.9776V39.9775Z" fill="#FF646C"/>
<path d="M46.6344 39.9775H39.9778V46.6341H46.6344V39.9775Z" fill="#FF646C"/>
<path d="M53.329 39.9775H46.6724V46.6341H53.329V39.9775Z" fill="#FF646C"/>
<path d="M59.9855 39.9775H53.3289V46.6341H59.9855V39.9775Z" fill="#FF646C"/>
<path d="M66.642 39.9775H59.9854V46.6341H66.642V39.9775Z" fill="#FF646C"/>
<path d="M73.2987 39.9775H66.6421V46.6341H73.2987V39.9775Z" fill="#FF646C"/>
<path d="M79.9933 39.9775H73.3367V46.6341H79.9933V39.9775Z" fill="#FF646C"/>
<path d="M86.65 39.9775H79.9934V46.6341H86.65V39.9775Z" fill="#FF646C"/>
<path d="M93.3065 39.9775H86.6499V46.6341H93.3065V39.9775Z" fill="#FF646C"/>
<path d="M99.9632 39.9775H93.3066V46.6341H99.9632V39.9775Z" fill="#FF646C"/>
<path d="M106.658 39.9775H100.001V46.6341H106.658V39.9775Z" fill="#FF646C"/>
<path d="M113.314 39.9775H106.658V46.6341H113.314V39.9775Z" fill="#FF646C"/>
<path d="M119.971 39.9775H113.314V46.6341H119.971V39.9775Z" fill="#FF646C"/>
<path d="M126.628 39.9775H119.971V46.6341H126.628V39.9775Z" fill="#FF646C"/>
<path d="M133.322 39.9775H126.666V46.6341H133.322V39.9775Z" fill="#FF646C"/>
<path d="M139.979 39.9775H133.322V46.6341H139.979V39.9775Z" fill="#FF646C"/>
<path d="M146.635 39.9775H139.979V46.6341H146.635V39.9775Z" fill="#FF646C"/>
<path d="M153.292 39.9775H146.635V46.6341H153.292V39.9775Z" fill="#FF646C"/>
<path d="M159.987 39.9775H153.33V46.6341H159.987V39.9775Z" fill="#FF646C"/>
<path d="M166.643 39.9775H159.987V46.6341H166.643V39.9775Z" fill="#FF646C"/>
<path d="M173.3 39.9775H166.643V46.6341H173.3V39.9775Z" fill="#FF646C"/>
<path d="M179.956 39.9775H173.3V46.6341H179.956V39.9775Z" fill="#FF646C"/>
<path d="M186.651 39.9775H179.994V46.6341H186.651V39.9775Z" fill="#FF646C"/>
<path d="M193.308 39.9775H186.651V46.6341H193.308V39.9775Z" fill="#FF646C"/>
<path d="M199.964 39.9775H193.308V46.6341H199.964V39.9775Z" fill="#FF646C"/>
<path d="M206.621 39.9775H199.964V46.6341H206.621V39.9775Z" fill="#FF646C"/>
<path d="M213.316 39.9775H206.659V46.6341H213.316V39.9775Z" fill="#FF646C"/>
<path d="M219.972 39.9775H213.316V46.6341H219.972V39.9775Z" fill="#FF646C"/>
<path d="M226.629 39.9775H219.972V46.6341H226.629V39.9775Z" fill="#FF646C"/>
<path d="M233.285 39.9775H226.629V46.6341H233.285V39.9775Z" fill="#F99898"/>
<path d="M239.98 39.9775H233.323V46.6341H239.98V39.9775Z" fill="#2B1805"/>
<path d="M6.6566 46.6343H0V53.2909H6.6566V46.6343Z" fill="#2B1805"/>
<path d="M13.3131 46.6343H6.65649V53.2909H13.3131V46.6343Z" fill="#FF646C"/>
<path d="M19.9698 46.6343H13.3132V53.2909H19.9698V46.6343Z" fill="#FF646C"/>
<path d="M26.6644 46.6343H20.0078V53.2909H26.6644V46.6343Z" fill="#FF646C"/>
<path d="M33.3212 46.6343H26.6646V53.2909H33.3212V46.6343Z" fill="#FF646C"/>
<path d="M39.9776 46.6343H33.321V53.2909H39.9776V46.6343Z" fill="#FF646C"/>
<path d="M46.6344 46.6343H39.9778V53.2909H46.6344V46.6343Z" fill="#FF646C"/>
<path d="M53.329 46.6343H46.6724V53.2909H53.329V46.6343Z" fill="#FF646C"/>
<path d="M59.9855 46.6343H53.3289V53.2909H59.9855V46.6343Z" fill="#FF646C"/>
<path d="M66.642 46.6343H59.9854V53.2909H66.642V46.6343Z" fill="#FF646C"/>
<path d="M73.2987 46.6343H66.6421V53.2909H73.2987V46.6343Z" fill="#FF646C"/>
<path d="M79.9933 46.6343H73.3367V53.2909H79.9933V46.6343Z" fill="#FF646C"/>
<path d="M86.65 46.6343H79.9934V53.2909H86.65V46.6343Z" fill="#FF646C"/>
<path d="M93.3065 46.6343H86.6499V53.2909H93.3065V46.6343Z" fill="#FF646C"/>
<path d="M99.9632 46.6343H93.3066V53.2909H99.9632V46.6343Z" fill="#FF646C"/>
<path d="M106.658 46.6343H100.001V53.2909H106.658V46.6343Z" fill="#FF646C"/>
<path d="M113.314 46.6343H106.658V53.2909H113.314V46.6343Z" fill="#FF646C"/>
<path d="M119.971 46.6343H113.314V53.2909H119.971V46.6343Z" fill="#FF646C"/>
<path d="M126.628 46.6343H119.971V53.2909H126.628V46.6343Z" fill="#FF646C"/>
<path d="M133.322 46.6343H126.666V53.2909H133.322V46.6343Z" fill="#FF646C"/>
<path d="M139.979 46.6343H133.322V53.2909H139.979V46.6343Z" fill="#FF646C"/>
<path d="M146.635 46.6343H139.979V53.2909H146.635V46.6343Z" fill="#FF646C"/>
<path d="M153.292 46.6343H146.635V53.2909H153.292V46.6343Z" fill="#FF646C"/>
<path d="M159.987 46.6343H153.33V53.2909H159.987V46.6343Z" fill="#FF646C"/>
<path d="M166.643 46.6343H159.987V53.2909H166.643V46.6343Z" fill="#FF646C"/>
<path d="M173.3 46.6343H166.643V53.2909H173.3V46.6343Z" fill="#FF646C"/>
<path d="M179.956 46.6343H173.3V53.2909H179.956V46.6343Z" fill="#FF646C"/>
<path d="M186.651 46.6343H179.994V53.2909H186.651V46.6343Z" fill="#FF646C"/>
<path d="M193.308 46.6343H186.651V53.2909H193.308V46.6343Z" fill="#FF646C"/>
<path d="M199.964 46.6343H193.308V53.2909H199.964V46.6343Z" fill="#FF646C"/>
<path d="M206.621 46.6343H199.964V53.2909H206.621V46.6343Z" fill="#FF646C"/>
<path d="M213.316 46.6343H206.659V53.2909H213.316V46.6343Z" fill="#FF646C"/>
<path d="M219.972 46.6343H213.316V53.2909H219.972V46.6343Z" fill="#FF646C"/>
<path d="M226.629 46.6343H219.972V53.2909H226.629V46.6343Z" fill="#FF646C"/>
<path d="M233.285 46.6343H226.629V53.2909H233.285V46.6343Z" fill="#F99898"/>
<path d="M239.98 46.6343H233.323V53.2909H239.98V46.6343Z" fill="#2B1805"/>
<path d="M6.6566 53.2908H0V59.9474H6.6566V53.2908Z" fill="#2B1805"/>
<path d="M13.3131 53.2908H6.65649V59.9474H13.3131V53.2908Z" fill="#F99898"/>
<path d="M19.9698 53.2908H13.3132V59.9474H19.9698V53.2908Z" fill="#FF646C"/>
<path d="M26.6644 53.2908H20.0078V59.9474H26.6644V53.2908Z" fill="#FF646C"/>
<path d="M33.3212 53.2908H26.6646V59.9474H33.3212V53.2908Z" fill="#FF646C"/>
<path d="M39.9776 53.2908H33.321V59.9474H39.9776V53.2908Z" fill="#FF646C"/>
<path d="M46.6344 53.2908H39.9778V59.9474H46.6344V53.2908Z" fill="#FF646C"/>
<path d="M53.329 53.2908H46.6724V59.9474H53.329V53.2908Z" fill="#FF646C"/>
<path d="M59.9855 53.2908H53.3289V59.9474H59.9855V53.2908Z" fill="#FF646C"/>
<path d="M66.642 53.2908H59.9854V59.9474H66.642V53.2908Z" fill="#FF646C"/>
<path d="M73.2987 53.2908H66.6421V59.9474H73.2987V53.2908Z" fill="#FF646C"/>
<path d="M79.9933 53.2908H73.3367V59.9474H79.9933V53.2908Z" fill="#FF646C"/>
<path d="M86.65 53.2908H79.9934V59.9474H86.65V53.2908Z" fill="#FF646C"/>
<path d="M93.3065 53.2908H86.6499V59.9474H93.3065V53.2908Z" fill="#FF646C"/>
<path d="M99.9632 53.2908H93.3066V59.9474H99.9632V53.2908Z" fill="#FF646C"/>
<path d="M106.658 53.2908H100.001V59.9474H106.658V53.2908Z" fill="#FF646C"/>
<path d="M113.314 53.2908H106.658V59.9474H113.314V53.2908Z" fill="#FF646C"/>
<path d="M119.971 53.2908H113.314V59.9474H119.971V53.2908Z" fill="#FF646C"/>
<path d="M126.628 53.2908H119.971V59.9474H126.628V53.2908Z" fill="#FF646C"/>
<path d="M133.322 53.2908H126.666V59.9474H133.322V53.2908Z" fill="#FF646C"/>
<path d="M139.979 53.2908H133.322V59.9474H139.979V53.2908Z" fill="#FF646C"/>
<path d="M146.635 53.2908H139.979V59.9474H146.635V53.2908Z" fill="#FF646C"/>
<path d="M153.292 53.2908H146.635V59.9474H153.292V53.2908Z" fill="#FF646C"/>
<path d="M159.987 53.2908H153.33V59.9474H159.987V53.2908Z" fill="#FF646C"/>
<path d="M166.643 53.2908H159.987V59.9474H166.643V53.2908Z" fill="#FF646C"/>
<path d="M173.3 53.2908H166.643V59.9474H173.3V53.2908Z" fill="#FF646C"/>
<path d="M179.956 53.2908H173.3V59.9474H179.956V53.2908Z" fill="#FF646C"/>
<path d="M186.651 53.2908H179.994V59.9474H186.651V53.2908Z" fill="#FF646C"/>
<path d="M193.308 53.2908H186.651V59.9474H193.308V53.2908Z" fill="#FF646C"/>
<path d="M199.964 53.2908H193.308V59.9474H199.964V53.2908Z" fill="#FF646C"/>
<path d="M206.621 53.2908H199.964V59.9474H206.621V53.2908Z" fill="#FF646C"/>
<path d="M213.316 53.2908H206.659V59.9474H213.316V53.2908Z" fill="#FF646C"/>
<path d="M219.972 53.2908H213.316V59.9474H219.972V53.2908Z" fill="#FF646C"/>
<path d="M226.629 53.2908H219.972V59.9474H226.629V53.2908Z" fill="#FF646C"/>
<path d="M233.285 53.2908H226.629V59.9474H233.285V53.2908Z" fill="#F99898"/>
<path d="M239.98 53.2908H233.323V59.9474H239.98V53.2908Z" fill="#2B1805"/>
<path d="M6.6566 59.9854H0V66.642H6.6566V59.9854Z" fill="#2B1805"/>
<path d="M13.3131 59.9854H6.65649V66.642H13.3131V59.9854Z" fill="#F23860"/>
<path d="M19.9698 59.9854H13.3132V66.642H19.9698V59.9854Z" fill="#F99898"/>
<path d="M26.6644 59.9854H20.0078V66.642H26.6644V59.9854Z" fill="#F99898"/>
<path d="M33.3212 59.9854H26.6646V66.642H33.3212V59.9854Z" fill="#F99898"/>
<path d="M39.9776 59.9854H33.321V66.642H39.9776V59.9854Z" fill="#F99898"/>
<path d="M46.6344 59.9854H39.9778V66.642H46.6344V59.9854Z" fill="#F99898"/>
<path d="M53.329 59.9854H46.6724V66.642H53.329V59.9854Z" fill="#F99898"/>
<path d="M59.9855 59.9854H53.3289V66.642H59.9855V59.9854Z" fill="#F99898"/>
<path d="M66.642 59.9854H59.9854V66.642H66.642V59.9854Z" fill="#F99898"/>
<path d="M73.2987 59.9854H66.6421V66.642H73.2987V59.9854Z" fill="#F99898"/>
<path d="M79.9933 59.9854H73.3367V66.642H79.9933V59.9854Z" fill="#F99898"/>
<path d="M86.65 59.9854H79.9934V66.642H86.65V59.9854Z" fill="#F99898"/>
<path d="M93.3065 59.9854H86.6499V66.642H93.3065V59.9854Z" fill="#F99898"/>
<path d="M99.9632 59.9854H93.3066V66.642H99.9632V59.9854Z" fill="#F99898"/>
<path d="M106.658 59.9854H100.001V66.642H106.658V59.9854Z" fill="#F99898"/>
<path d="M113.314 59.9854H106.658V66.642H113.314V59.9854Z" fill="#F99898"/>
<path d="M119.971 59.9854H113.314V66.642H119.971V59.9854Z" fill="#F99898"/>
<path d="M126.628 59.9854H119.971V66.642H126.628V59.9854Z" fill="#F99898"/>
<path d="M133.322 59.9854H126.666V66.642H133.322V59.9854Z" fill="#F99898"/>
<path d="M139.979 59.9854H133.322V66.642H139.979V59.9854Z" fill="#F99898"/>
<path d="M146.635 59.9854H139.979V66.642H146.635V59.9854Z" fill="#F99898"/>
<path d="M153.292 59.9854H146.635V66.642H153.292V59.9854Z" fill="#F99898"/>
<path d="M159.987 59.9854H153.33V66.642H159.987V59.9854Z" fill="#F99898"/>
<path d="M166.643 59.9854H159.987V66.642H166.643V59.9854Z" fill="#F99898"/>
<path d="M173.3 59.9854H166.643V66.642H173.3V59.9854Z" fill="#F99898"/>
<path d="M179.956 59.9854H173.3V66.642H179.956V59.9854Z" fill="#F99898"/>
<path d="M186.651 59.9854H179.994V66.642H186.651V59.9854Z" fill="#F99898"/>
<path d="M193.308 59.9854H186.651V66.642H193.308V59.9854Z" fill="#F99898"/>
<path d="M199.964 59.9854H193.308V66.642H199.964V59.9854Z" fill="#F99898"/>
<path d="M206.621 59.9854H199.964V66.642H206.621V59.9854Z" fill="#F99898"/>
<path d="M213.316 59.9854H206.659V66.642H213.316V59.9854Z" fill="#F99898"/>
<path d="M219.972 59.9854H213.316V66.642H219.972V59.9854Z" fill="#F99898"/>
<path d="M226.629 59.9854H219.972V66.642H226.629V59.9854Z" fill="#F99898"/>
<path d="M233.285 59.9854H226.629V66.642H233.285V59.9854Z" fill="#F23860"/>
<path d="M239.98 59.9854H233.323V66.642H239.98V59.9854Z" fill="#2B1805"/>
<path d="M6.6566 66.6421H0V73.2987H6.6566V66.6421Z" fill="#2B1805"/>
<path d="M13.3131 66.6421H6.65649V73.2987H13.3131V66.6421Z" fill="#F23860"/>
<path d="M19.9698 66.6421H13.3132V73.2987H19.9698V66.6421Z" fill="#F23860"/>
<path d="M26.6644 66.6421H20.0078V73.2987H26.6644V66.6421Z" fill="#F23860"/>
<path d="M33.3212 66.6421H26.6646V73.2987H33.3212V66.6421Z" fill="#F23860"/>
<path d="M39.9776 66.6421H33.321V73.2987H39.9776V66.6421Z" fill="#F23860"/>
<path d="M46.6344 66.6421H39.9778V73.2987H46.6344V66.6421Z" fill="#F23860"/>
<path d="M53.329 66.6421H46.6724V73.2987H53.329V66.6421Z" fill="#F23860"/>
<path d="M59.9855 66.6421H53.3289V73.2987H59.9855V66.6421Z" fill="#F23860"/>
<path d="M66.642 66.6421H59.9854V73.2987H66.642V66.6421Z" fill="#F23860"/>
<path d="M73.2987 66.6421H66.6421V73.2987H73.2987V66.6421Z" fill="#F23860"/>
<path d="M79.9933 66.6421H73.3367V73.2987H79.9933V66.6421Z" fill="#F23860"/>
<path d="M86.65 66.6421H79.9934V73.2987H86.65V66.6421Z" fill="#F23860"/>
<path d="M93.3065 66.6421H86.6499V73.2987H93.3065V66.6421Z" fill="#F23860"/>
<path d="M99.9632 66.6421H93.3066V73.2987H99.9632V66.6421Z" fill="#F23860"/>
<path d="M106.658 66.6421H100.001V73.2987H106.658V66.6421Z" fill="#F23860"/>
<path d="M113.314 66.6421H106.658V73.2987H113.314V66.6421Z" fill="#F23860"/>
<path d="M119.971 66.6421H113.314V73.2987H119.971V66.6421Z" fill="#F23860"/>
<path d="M126.628 66.6421H119.971V73.2987H126.628V66.6421Z" fill="#F23860"/>
<path d="M133.322 66.6421H126.666V73.2987H133.322V66.6421Z" fill="#F23860"/>
<path d="M139.979 66.6421H133.322V73.2987H139.979V66.6421Z" fill="#F23860"/>
<path d="M146.635 66.6421H139.979V73.2987H146.635V66.6421Z" fill="#F23860"/>
<path d="M153.292 66.6421H146.635V73.2987H153.292V66.6421Z" fill="#F23860"/>
<path d="M159.987 66.6421H153.33V73.2987H159.987V66.6421Z" fill="#F23860"/>
<path d="M166.643 66.6421H159.987V73.2987H166.643V66.6421Z" fill="#F23860"/>
<path d="M173.3 66.6421H166.643V73.2987H173.3V66.6421Z" fill="#F23860"/>
<path d="M179.956 66.6421H173.3V73.2987H179.956V66.6421Z" fill="#F23860"/>
<path d="M186.651 66.6421H179.994V73.2987H186.651V66.6421Z" fill="#F23860"/>
<path d="M193.308 66.6421H186.651V73.2987H193.308V66.6421Z" fill="#F23860"/>
<path d="M199.964 66.6421H193.308V73.2987H199.964V66.6421Z" fill="#F23860"/>
<path d="M206.621 66.6421H199.964V73.2987H206.621V66.6421Z" fill="#F23860"/>
<path d="M213.316 66.6421H206.659V73.2987H213.316V66.6421Z" fill="#F23860"/>
<path d="M219.972 66.6421H213.316V73.2987H219.972V66.6421Z" fill="#F23860"/>
<path d="M226.629 66.6421H219.972V73.2987H226.629V66.6421Z" fill="#F23860"/>
<path d="M233.285 66.6421H226.629V73.2987H233.285V66.6421Z" fill="#F23860"/>
<path d="M239.98 66.6421H233.323V73.2987H239.98V66.6421Z" fill="#2B1805"/>
<path d="M6.6566 73.2986H0V79.9552H6.6566V73.2986Z" fill="#2B1805"/>
<path d="M13.3131 73.2986H6.65649V79.9552H13.3131V73.2986Z" fill="#F23860"/>
<path d="M19.9698 73.2986H13.3132V79.9552H19.9698V73.2986Z" fill="#F23860"/>
<path d="M26.6644 73.2986H20.0078V79.9552H26.6644V73.2986Z" fill="#F23860"/>
<path d="M33.3212 73.2986H26.6646V79.9552H33.3212V73.2986Z" fill="#F23860"/>
<path d="M39.9776 73.2986H33.321V79.9552H39.9776V73.2986Z" fill="#F23860"/>
<path d="M46.6344 73.2986H39.9778V79.9552H46.6344V73.2986Z" fill="#F23860"/>
<path d="M53.329 73.2986H46.6724V79.9552H53.329V73.2986Z" fill="#F23860"/>
<path d="M59.9855 73.2986H53.3289V79.9552H59.9855V73.2986Z" fill="#F23860"/>
<path d="M66.642 73.2986H59.9854V79.9552H66.642V73.2986Z" fill="#F23860"/>
<path d="M73.2987 73.2986H66.6421V79.9552H73.2987V73.2986Z" fill="#F23860"/>
<path d="M79.9933 73.2986H73.3367V79.9552H79.9933V73.2986Z" fill="#F23860"/>
<path d="M86.65 73.2986H79.9934V79.9552H86.65V73.2986Z" fill="#F23860"/>
<path d="M93.3065 73.2986H86.6499V79.9552H93.3065V73.2986Z" fill="#F23860"/>
<path d="M99.9632 73.2986H93.3066V79.9552H99.9632V73.2986Z" fill="#F23860"/>
<path d="M106.658 73.2986H100.001V79.9552H106.658V73.2986Z" fill="#F23860"/>
<path d="M113.314 73.2986H106.658V79.9552H113.314V73.2986Z" fill="#F23860"/>
<path d="M119.971 73.2986H113.314V79.9552H119.971V73.2986Z" fill="#F23860"/>
<path d="M126.628 73.2986H119.971V79.9552H126.628V73.2986Z" fill="#F23860"/>
<path d="M133.322 73.2986H126.666V79.9552H133.322V73.2986Z" fill="#F23860"/>
<path d="M139.979 73.2986H133.322V79.9552H139.979V73.2986Z" fill="#F23860"/>
<path d="M146.635 73.2986H139.979V79.9552H146.635V73.2986Z" fill="#F23860"/>
<path d="M153.292 73.2986H146.635V79.9552H153.292V73.2986Z" fill="#F23860"/>
<path d="M159.987 73.2986H153.33V79.9552H159.987V73.2986Z" fill="#F23860"/>
<path d="M166.643 73.2986H159.987V79.9552H166.643V73.2986Z" fill="#F23860"/>
<path d="M173.3 73.2986H166.643V79.9552H173.3V73.2986Z" fill="#F23860"/>
<path d="M179.956 73.2986H173.3V79.9552H179.956V73.2986Z" fill="#F23860"/>
<path d="M186.651 73.2986H179.994V79.9552H186.651V73.2986Z" fill="#F23860"/>
<path d="M193.308 73.2986H186.651V79.9552H193.308V73.2986Z" fill="#F23860"/>
<path d="M199.964 73.2986H193.308V79.9552H199.964V73.2986Z" fill="#F23860"/>
<path d="M206.621 73.2986H199.964V79.9552H206.621V73.2986Z" fill="#F23860"/>
<path d="M213.316 73.2986H206.659V79.9552H213.316V73.2986Z" fill="#F23860"/>
<path d="M219.972 73.2986H213.316V79.9552H219.972V73.2986Z" fill="#F23860"/>
<path d="M226.629 73.2986H219.972V79.9552H226.629V73.2986Z" fill="#F23860"/>
<path d="M233.285 73.2986H226.629V79.9552H233.285V73.2986Z" fill="#F23860"/>
<path d="M239.98 73.2986H233.323V79.9552H239.98V73.2986Z" fill="#2B1805"/>
<path d="M13.3131 79.9553H6.65649V86.6119H13.3131V79.9553Z" fill="#2B1805"/>
<path d="M19.9698 79.9553H13.3132V86.6119H19.9698V79.9553Z" fill="#F23860"/>
<path d="M26.6644 79.9553H20.0078V86.6119H26.6644V79.9553Z" fill="#F23860"/>
<path d="M33.3212 79.9553H26.6646V86.6119H33.3212V79.9553Z" fill="#F23860"/>
<path d="M39.9776 79.9553H33.321V86.6119H39.9776V79.9553Z" fill="#F23860"/>
<path d="M46.6344 79.9553H39.9778V86.6119H46.6344V79.9553Z" fill="#F23860"/>
<path d="M53.329 79.9553H46.6724V86.6119H53.329V79.9553Z" fill="#F23860"/>
<path d="M59.9855 79.9553H53.3289V86.6119H59.9855V79.9553Z" fill="#F23860"/>
<path d="M66.642 79.9553H59.9854V86.6119H66.642V79.9553Z" fill="#F23860"/>
<path d="M73.2987 79.9553H66.6421V86.6119H73.2987V79.9553Z" fill="#F23860"/>
<path d="M79.9933 79.9553H73.3367V86.6119H79.9933V79.9553Z" fill="#F23860"/>
<path d="M86.65 79.9553H79.9934V86.6119H86.65V79.9553Z" fill="#F23860"/>
<path d="M93.3065 79.9553H86.6499V86.6119H93.3065V79.9553Z" fill="#F23860"/>
<path d="M99.9632 79.9553H93.3066V86.6119H99.9632V79.9553Z" fill="#F23860"/>
<path d="M106.658 79.9553H100.001V86.6119H106.658V79.9553Z" fill="#F23860"/>
<path d="M113.314 79.9553H106.658V86.6119H113.314V79.9553Z" fill="#F23860"/>
<path d="M119.971 79.9553H113.314V86.6119H119.971V79.9553Z" fill="#F23860"/>
<path d="M126.628 79.9553H119.971V86.6119H126.628V79.9553Z" fill="#F23860"/>
<path d="M133.322 79.9553H126.666V86.6119H133.322V79.9553Z" fill="#F23860"/>
<path d="M139.979 79.9553H133.322V86.6119H139.979V79.9553Z" fill="#F23860"/>
<path d="M146.635 79.9553H139.979V86.6119H146.635V79.9553Z" fill="#F23860"/>
<path d="M153.292 79.9553H146.635V86.6119H153.292V79.9553Z" fill="#F23860"/>
<path d="M159.987 79.9553H153.33V86.6119H159.987V79.9553Z" fill="#F23860"/>
<path d="M166.643 79.9553H159.987V86.6119H166.643V79.9553Z" fill="#F23860"/>
<path d="M173.3 79.9553H166.643V86.6119H173.3V79.9553Z" fill="#F23860"/>
<path d="M179.956 79.9553H173.3V86.6119H179.956V79.9553Z" fill="#F23860"/>
<path d="M186.651 79.9553H179.994V86.6119H186.651V79.9553Z" fill="#F23860"/>
<path d="M193.308 79.9553H186.651V86.6119H193.308V79.9553Z" fill="#F23860"/>
<path d="M199.964 79.9553H193.308V86.6119H199.964V79.9553Z" fill="#F23860"/>
<path d="M206.621 79.9553H199.964V86.6119H206.621V79.9553Z" fill="#F23860"/>
<path d="M213.316 79.9553H206.659V86.6119H213.316V79.9553Z" fill="#F23860"/>
<path d="M219.972 79.9553H213.316V86.6119H219.972V79.9553Z" fill="#F23860"/>
<path d="M226.629 79.9553H219.972V86.6119H226.629V79.9553Z" fill="#F23860"/>
<path d="M233.285 79.9553H226.629V86.6119H233.285V79.9553Z" fill="#2B1805"/>
<path d="M19.9698 86.6499H13.3132V93.3065H19.9698V86.6499Z" fill="#2B1805"/>
<path d="M26.6644 86.6499H20.0078V93.3065H26.6644V86.6499Z" fill="#2B1805"/>
<path d="M33.3212 86.6499H26.6646V93.3065H33.3212V86.6499Z" fill="#2B1805"/>
<path d="M39.9776 86.6499H33.321V93.3065H39.9776V86.6499Z" fill="#2B1805"/>
<path d="M46.6344 86.6499H39.9778V93.3065H46.6344V86.6499Z" fill="#2B1805"/>
<path d="M53.329 86.6499H46.6724V93.3065H53.329V86.6499Z" fill="#2B1805"/>
<path d="M59.9855 86.6499H53.3289V93.3065H59.9855V86.6499Z" fill="#2B1805"/>
<path d="M66.642 86.6499H59.9854V93.3065H66.642V86.6499Z" fill="#2B1805"/>
<path d="M73.2987 86.6499H66.6421V93.3065H73.2987V86.6499Z" fill="#2B1805"/>
<path d="M79.9933 86.6499H73.3367V93.3065H79.9933V86.6499Z" fill="#2B1805"/>
<path d="M86.65 86.6499H79.9934V93.3065H86.65V86.6499Z" fill="#2B1805"/>
<path d="M93.3065 86.6499H86.6499V93.3065H93.3065V86.6499Z" fill="#2B1805"/>
<path d="M99.9632 86.6499H93.3066V93.3065H99.9632V86.6499Z" fill="#2B1805"/>
<path d="M106.658 86.6499H100.001V93.3065H106.658V86.6499Z" fill="#2B1805"/>
<path d="M113.314 86.6499H106.658V93.3065H113.314V86.6499Z" fill="#2B1805"/>
<path d="M119.971 86.6499H113.314V93.3065H119.971V86.6499Z" fill="#2B1805"/>
<path d="M126.628 86.6499H119.971V93.3065H126.628V86.6499Z" fill="#2B1805"/>
<path d="M133.322 86.6499H126.666V93.3065H133.322V86.6499Z" fill="#2B1805"/>
<path d="M139.979 86.6499H133.322V93.3065H139.979V86.6499Z" fill="#2B1805"/>
<path d="M146.635 86.6499H139.979V93.3065H146.635V86.6499Z" fill="#2B1805"/>
<path d="M153.292 86.6499H146.635V93.3065H153.292V86.6499Z" fill="#2B1805"/>
<path d="M159.987 86.6499H153.33V93.3065H159.987V86.6499Z" fill="#2B1805"/>
<path d="M166.643 86.6499H159.987V93.3065H166.643V86.6499Z" fill="#2B1805"/>
<path d="M173.3 86.6499H166.643V93.3065H173.3V86.6499Z" fill="#2B1805"/>
<path d="M179.956 86.6499H173.3V93.3065H179.956V86.6499Z" fill="#2B1805"/>
<path d="M186.651 86.6499H179.994V93.3065H186.651V86.6499Z" fill="#2B1805"/>
<path d="M193.308 86.6499H186.651V93.3065H193.308V86.6499Z" fill="#2B1805"/>
<path d="M199.964 86.6499H193.308V93.3065H199.964V86.6499Z" fill="#2B1805"/>
<path d="M206.621 86.6499H199.964V93.3065H206.621V86.6499Z" fill="#2B1805"/>
<path d="M213.316 86.6499H206.659V93.3065H213.316V86.6499Z" fill="#2B1805"/>
<path d="M219.972 86.6499H213.316V93.3065H219.972V86.6499Z" fill="#2B1805"/>
<path d="M226.629 86.6499H219.972V93.3065H226.629V86.6499Z" fill="#2B1805"/>
<path d="M32.1038 43.9335H29.4412V41.2708V38.6082V35.9456V33.2829V30.6203V27.9576V25.295V22.6324V19.9697H32.1038H34.7664H37.4291H40.0917H42.7544H45.417V22.6324H48.0796V25.295V27.9576V30.6203V33.2829H45.417V35.9456H42.7544H40.0917H37.4291H34.7664V38.6082V41.2708V43.9335H32.1038ZM40.0917 30.6203H42.7544V27.9576V25.295H40.0917H37.4291H34.7664V27.9576V30.6203H37.4291H40.0917Z" fill="white"/>
<path d="M66.718 43.9335H64.0554H61.3927H58.7301H56.0675H53.4048H50.7422V41.2708V38.6082V35.9456V33.2829V30.6203V27.9576V25.295V22.6324V19.9697H53.4048H56.0675V22.6324V25.295V27.9576V30.6203V33.2829V35.9456V38.6082H58.7301H61.3927H64.0554H66.718H69.3807V41.2708V43.9335H66.718Z" fill="white"/>
<path d="M88.0193 43.9335H85.3567V41.2708V38.6082V35.9456H82.694H80.0314H77.3687V38.6082V41.2708V43.9335H74.7061H72.0435V41.2708V38.6082V35.9456V33.2829V30.6203V27.9576V25.295H74.7061V22.6324H77.3687V19.9697H80.0314H82.694H85.3567V22.6324H88.0193V25.295H90.6819V27.9576V30.6203V33.2829V35.9456V38.6082V41.2708V43.9335H88.0193ZM82.694 30.6203H85.3567V27.9576V25.295H82.694V22.6324H80.0314V25.295H77.3687V27.9576V30.6203H80.0314H82.694Z" fill="white"/>
<path d="M101.332 43.9335H98.6698V41.2708V38.6082V35.9456V33.2829H96.0071V30.6203H93.3445V27.9576V25.295V22.6324V19.9697H96.0071H98.6698V22.6324V25.295V27.9576H101.332H103.995V25.295V22.6324V19.9697H106.658H109.32V22.6324V25.295V27.9576V30.6203H106.658V33.2829H103.995V35.9456V38.6082V41.2708V43.9335H101.332Z" fill="white"/>
<path d="M138.609 43.9335H135.947H133.284H130.621H127.959V41.2708H125.296V38.6082V35.9456V33.2829V30.6203V27.9576V25.295V22.6324H127.959V19.9697H130.621H133.284H135.947H138.609H141.272V22.6324H143.935V25.295V27.9576H141.272H138.609V25.295H135.947H133.284H130.621V27.9576V30.6203V33.2829V35.9456V38.6082H133.284H135.947H138.609V35.9456H135.947H133.284V33.2829V30.6203H135.947H138.609H141.272H143.935V33.2829V35.9456V38.6082V41.2708H141.272V43.9335H138.609Z" fill="white"/>
<path d="M162.573 43.9335H159.911V41.2708V38.6082V35.9456H157.248H154.585H151.923V38.6082V41.2708V43.9335H149.26H146.597V41.2708V38.6082V35.9456V33.2829V30.6203V27.9576V25.295H149.26V22.6324H151.923V19.9697H154.585H157.248H159.911V22.6324H162.573V25.295H165.236V27.9576V30.6203V33.2829V35.9456V38.6082V41.2708V43.9335H162.573ZM157.248 30.6203H159.911V27.9576V25.295H157.248V22.6324H154.585V25.295H151.923V27.9576V30.6203H154.585H157.248Z" fill="white"/>
<path d="M175.886 35.9456V33.2829H173.224V35.9456V38.6082V41.2708V43.9335H170.561H167.898V41.2708V38.6082V35.9456V33.2829V30.6203V27.9576V25.295V22.6324V19.9697H170.561V22.6324H173.224V25.295H175.886V27.9576H178.549V25.295H181.212V22.6324H183.874V19.9697H186.537V22.6324V25.295V27.9576V30.6203V33.2829V35.9456V38.6082V41.2708V43.9335H183.874H181.212V41.2708V38.6082V35.9456V33.2829H178.549V35.9456H175.886Z" fill="white"/>
<path d="M205.176 43.9335H202.513H199.85H197.188H194.525H191.862H189.2V41.2708V38.6082V35.9456V33.2829V30.6203V27.9576V25.295V22.6324V19.9697H191.862H194.525H197.188H199.85H202.513H205.176H207.838V22.6324V25.295H205.176H202.513H199.85H197.188H194.525V27.9576V30.6203V33.2829V35.9456V38.6082H197.188H199.85H202.513H205.176H207.838V41.2708V43.9335H205.176ZM202.513 34.6142H199.85H197.188H194.525V31.9516V29.289H197.188H199.85H202.513H205.176V31.9516V34.6142H202.513Z" fill="white"/>
</svg>
