<svg width="60" height="60" viewBox="0 0 60 60" fill="none" xmlns="http://www.w3.org/2000/svg">
<g id="song">
<path id="Vector" d="M11.2558 0H7.51147V3.74429H11.2558V0Z" fill="#2B1805"/>
<path id="Vector_2" d="M14.9999 0H11.2556V3.74429H14.9999V0Z" fill="#2B1805"/>
<path id="Vector_3" d="M18.7443 0H15V3.74429H18.7443V0Z" fill="#2B1805"/>
<path id="Vector_4" d="M22.4887 0H18.7444V3.74429H22.4887V0Z" fill="#2B1805"/>
<path id="Vector_5" d="M26.2555 0H22.5112V3.74429H26.2555V0Z" fill="#2B1805"/>
<path id="Vector_6" d="M29.9999 0H26.2556V3.74429H29.9999V0Z" fill="#2B1805"/>
<path id="Vector_7" d="M33.7443 0H30V3.74429H33.7443V0Z" fill="#2B1805"/>
<path id="Vector_8" d="M37.5114 0H33.7671V3.74429H37.5114V0Z" fill="#2B1805"/>
<path id="Vector_9" d="M41.2558 0H37.5115V3.74429H41.2558V0Z" fill="#2B1805"/>
<path id="Vector_10" d="M44.9999 0H41.2556V3.74429H44.9999V0Z" fill="#2B1805"/>
<path id="Vector_11" d="M48.7672 0H45.0229V3.74429H48.7672V0Z" fill="#2B1805"/>
<path id="Vector_12" d="M52.5114 0H48.7671V3.74429H52.5114V0Z" fill="#2B1805"/>
<path id="Vector_13" d="M7.48868 3.74438H3.74438V7.48868H7.48868V3.74438Z" fill="#2B1805"/>
<path id="Vector_14" d="M11.2558 3.74438H7.51147V7.48868H11.2558V3.74438Z" fill="#9455F9"/>
<path id="Vector_15" d="M14.9999 3.74438H11.2556V7.48868H14.9999V3.74438Z" fill="#9455F9"/>
<path id="Vector_16" d="M18.7443 3.74438H15V7.48868H18.7443V3.74438Z" fill="#9455F9"/>
<path id="Vector_17" d="M22.4887 3.74438H18.7444V7.48868H22.4887V3.74438Z" fill="#9455F9"/>
<path id="Vector_18" d="M26.2555 3.74438H22.5112V7.48868H26.2555V3.74438Z" fill="#9455F9"/>
<path id="Vector_19" d="M29.9999 3.74438H26.2556V7.48868H29.9999V3.74438Z" fill="#9455F9"/>
<path id="Vector_20" d="M33.7443 3.74438H30V7.48868H33.7443V3.74438Z" fill="#9455F9"/>
<path id="Vector_21" d="M37.5114 3.74438H33.7671V7.48868H37.5114V3.74438Z" fill="#9455F9"/>
<path id="Vector_22" d="M41.2558 3.74438H37.5115V7.48868H41.2558V3.74438Z" fill="#9455F9"/>
<path id="Vector_23" d="M44.9999 3.74438H41.2556V7.48868H44.9999V3.74438Z" fill="#9455F9"/>
<path id="Vector_24" d="M48.7672 3.74438H45.0229V7.48868H48.7672V3.74438Z" fill="#9455F9"/>
<path id="Vector_25" d="M52.5114 3.74438H48.7671V7.48868H52.5114V3.74438Z" fill="#9455F9"/>
<path id="Vector_26" d="M56.2558 3.74438H52.5115V7.48868H56.2558V3.74438Z" fill="#2B1805"/>
<path id="Vector_27" d="M3.74429 7.51147H0V11.2558H3.74429V7.51147Z" fill="#2B1805"/>
<path id="Vector_28" d="M7.48868 7.51147H3.74438V11.2558H7.48868V7.51147Z" fill="#9455F9"/>
<path id="Vector_29" d="M11.2558 7.51147H7.51147V11.2558H11.2558V7.51147Z" fill="#9455F9"/>
<path id="Vector_30" d="M14.9999 7.51147H11.2556V11.2558H14.9999V7.51147Z" fill="#9455F9"/>
<path id="Vector_31" d="M18.7443 7.51147H15V11.2558H18.7443V7.51147Z" fill="#9455F9"/>
<path id="Vector_32" d="M22.4887 7.51147H18.7444V11.2558H22.4887V7.51147Z" fill="#9455F9"/>
<path id="Vector_33" d="M26.2555 7.51147H22.5112V11.2558H26.2555V7.51147Z" fill="#9455F9"/>
<path id="Vector_34" d="M29.9999 7.51147H26.2556V11.2558H29.9999V7.51147Z" fill="#9455F9"/>
<path id="Vector_35" d="M33.7443 7.51147H30V11.2558H33.7443V7.51147Z" fill="#FFFDFF"/>
<path id="Vector_36" d="M37.5114 7.51147H33.7671V11.2558H37.5114V7.51147Z" fill="#FFFDFF"/>
<path id="Vector_37" d="M41.2558 7.51147H37.5115V11.2558H41.2558V7.51147Z" fill="#9455F9"/>
<path id="Vector_38" d="M44.9999 7.51147H41.2556V11.2558H44.9999V7.51147Z" fill="#9455F9"/>
<path id="Vector_39" d="M48.7672 7.51147H45.0229V11.2558H48.7672V7.51147Z" fill="#9455F9"/>
<path id="Vector_40" d="M52.5114 7.51147H48.7671V11.2558H52.5114V7.51147Z" fill="#9455F9"/>
<path id="Vector_41" d="M56.2558 7.51147H52.5115V11.2558H56.2558V7.51147Z" fill="#AB7AF9"/>
<path id="Vector_42" d="M59.9999 7.51147H56.2556V11.2558H59.9999V7.51147Z" fill="#2B1805"/>
<path id="Vector_43" d="M3.74429 11.2556H0V14.9999H3.74429V11.2556Z" fill="#2B1805"/>
<path id="Vector_44" d="M7.48868 11.2556H3.74438V14.9999H7.48868V11.2556Z" fill="#9455F9"/>
<path id="Vector_45" d="M11.2558 11.2556H7.51147V14.9999H11.2558V11.2556Z" fill="#9455F9"/>
<path id="Vector_46" d="M14.9999 11.2556H11.2556V14.9999H14.9999V11.2556Z" fill="#9455F9"/>
<path id="Vector_47" d="M18.7443 11.2556H15V14.9999H18.7443V11.2556Z" fill="#9455F9"/>
<path id="Vector_48" d="M22.4887 11.2556H18.7444V14.9999H22.4887V11.2556Z" fill="#9455F9"/>
<path id="Vector_49" d="M26.2555 11.2556H22.5112V14.9999H26.2555V11.2556Z" fill="#9455F9"/>
<path id="Vector_50" d="M29.9999 11.2556H26.2556V14.9999H29.9999V11.2556Z" fill="#9455F9"/>
<path id="Vector_51" d="M33.7443 11.2556H30V14.9999H33.7443V11.2556Z" fill="#FFFDFF"/>
<path id="Vector_52" d="M37.5114 11.2556H33.7671V14.9999H37.5114V11.2556Z" fill="#FFFDFF"/>
<path id="Vector_53" d="M41.2558 11.2556H37.5115V14.9999H41.2558V11.2556Z" fill="#FFFDFF"/>
<path id="Vector_54" d="M44.9999 11.2556H41.2556V14.9999H44.9999V11.2556Z" fill="#9455F9"/>
<path id="Vector_55" d="M48.7672 11.2556H45.0229V14.9999H48.7672V11.2556Z" fill="#9455F9"/>
<path id="Vector_56" d="M52.5114 11.2556H48.7671V14.9999H52.5114V11.2556Z" fill="#9455F9"/>
<path id="Vector_57" d="M56.2558 11.2556H52.5115V14.9999H56.2558V11.2556Z" fill="#AB7AF9"/>
<path id="Vector_58" d="M59.9999 11.2556H56.2556V14.9999H59.9999V11.2556Z" fill="#2B1805"/>
<path id="Vector_59" d="M3.74429 15H0V18.7443H3.74429V15Z" fill="#2B1805"/>
<path id="Vector_60" d="M7.48868 15H3.74438V18.7443H7.48868V15Z" fill="#9455F9"/>
<path id="Vector_61" d="M11.2558 15H7.51147V18.7443H11.2558V15Z" fill="#9455F9"/>
<path id="Vector_62" d="M14.9999 15H11.2556V18.7443H14.9999V15Z" fill="#9455F9"/>
<path id="Vector_63" d="M18.7443 15H15V18.7443H18.7443V15Z" fill="#9455F9"/>
<path id="Vector_64" d="M22.4887 15H18.7444V18.7443H22.4887V15Z" fill="#9455F9"/>
<path id="Vector_65" d="M26.2555 15H22.5112V18.7443H26.2555V15Z" fill="#9455F9"/>
<path id="Vector_66" d="M29.9999 15H26.2556V18.7443H29.9999V15Z" fill="#9455F9"/>
<path id="Vector_67" d="M33.7443 15H30V18.7443H33.7443V15Z" fill="#FFFDFF"/>
<path id="Vector_68" d="M37.5114 15H33.7671V18.7443H37.5114V15Z" fill="#9455F9"/>
<path id="Vector_69" d="M41.2558 15H37.5115V18.7443H41.2558V15Z" fill="#FFFDFF"/>
<path id="Vector_70" d="M44.9999 15H41.2556V18.7443H44.9999V15Z" fill="#FFFDFF"/>
<path id="Vector_71" d="M48.7672 15H45.0229V18.7443H48.7672V15Z" fill="#9455F9"/>
<path id="Vector_72" d="M52.5114 15H48.7671V18.7443H52.5114V15Z" fill="#9455F9"/>
<path id="Vector_73" d="M56.2558 15H52.5115V18.7443H56.2558V15Z" fill="#AB7AF9"/>
<path id="Vector_74" d="M59.9999 15H56.2556V18.7443H59.9999V15Z" fill="#2B1805"/>
<path id="Vector_75" d="M3.74429 18.7444H0V22.4887H3.74429V18.7444Z" fill="#2B1805"/>
<path id="Vector_76" d="M7.48868 18.7444H3.74438V22.4887H7.48868V18.7444Z" fill="#9455F9"/>
<path id="Vector_77" d="M11.2558 18.7444H7.51147V22.4887H11.2558V18.7444Z" fill="#9455F9"/>
<path id="Vector_78" d="M14.9999 18.7444H11.2556V22.4887H14.9999V18.7444Z" fill="#9455F9"/>
<path id="Vector_79" d="M18.7443 18.7444H15V22.4887H18.7443V18.7444Z" fill="#9455F9"/>
<path id="Vector_80" d="M22.4887 18.7444H18.7444V22.4887H22.4887V18.7444Z" fill="#9455F9"/>
<path id="Vector_81" d="M26.2555 18.7444H22.5112V22.4887H26.2555V18.7444Z" fill="#9455F9"/>
<path id="Vector_82" d="M29.9999 18.7444H26.2556V22.4887H29.9999V18.7444Z" fill="#9455F9"/>
<path id="Vector_83" d="M33.7443 18.7444H30V22.4887H33.7443V18.7444Z" fill="#FFFDFF"/>
<path id="Vector_84" d="M37.5114 18.7444H33.7671V22.4887H37.5114V18.7444Z" fill="#9455F9"/>
<path id="Vector_85" d="M41.2558 18.7444H37.5115V22.4887H41.2558V18.7444Z" fill="#FFFDFF"/>
<path id="Vector_86" d="M44.9999 18.7444H41.2556V22.4887H44.9999V18.7444Z" fill="#FFFDFF"/>
<path id="Vector_87" d="M48.7672 18.7444H45.0229V22.4887H48.7672V18.7444Z" fill="#9455F9"/>
<path id="Vector_88" d="M52.5114 18.7444H48.7671V22.4887H52.5114V18.7444Z" fill="#9455F9"/>
<path id="Vector_89" d="M56.2558 18.7444H52.5115V22.4887H56.2558V18.7444Z" fill="#AB7AF9"/>
<path id="Vector_90" d="M59.9999 18.7444H56.2556V22.4887H59.9999V18.7444Z" fill="#2B1805"/>
<path id="Vector_91" d="M3.74429 22.5112H0V26.2555H3.74429V22.5112Z" fill="#2B1805"/>
<path id="Vector_92" d="M7.48868 22.5112H3.74438V26.2555H7.48868V22.5112Z" fill="#9455F9"/>
<path id="Vector_93" d="M11.2558 22.5112H7.51147V26.2555H11.2558V22.5112Z" fill="#9455F9"/>
<path id="Vector_94" d="M14.9999 22.5112H11.2556V26.2555H14.9999V22.5112Z" fill="#9455F9"/>
<path id="Vector_95" d="M18.7443 22.5112H15V26.2555H18.7443V22.5112Z" fill="#9455F9"/>
<path id="Vector_96" d="M22.4887 22.5112H18.7444V26.2555H22.4887V22.5112Z" fill="#9455F9"/>
<path id="Vector_97" d="M26.2555 22.5112H22.5112V26.2555H26.2555V22.5112Z" fill="#FFFDFF"/>
<path id="Vector_98" d="M29.9999 22.5112H26.2556V26.2555H29.9999V22.5112Z" fill="#FFFDFF"/>
<path id="Vector_99" d="M33.7443 22.5112H30V26.2555H33.7443V22.5112Z" fill="#FFFDFF"/>
<path id="Vector_100" d="M37.5114 22.5112H33.7671V26.2555H37.5114V22.5112Z" fill="#9455F9"/>
<path id="Vector_101" d="M41.2558 22.5112H37.5115V26.2555H41.2558V22.5112Z" fill="#9455F9"/>
<path id="Vector_102" d="M44.9999 22.5112H41.2556V26.2555H44.9999V22.5112Z" fill="#FFFDFF"/>
<path id="Vector_103" d="M48.7672 22.5112H45.0229V26.2555H48.7672V22.5112Z" fill="#9455F9"/>
<path id="Vector_104" d="M52.5114 22.5112H48.7671V26.2555H52.5114V22.5112Z" fill="#9455F9"/>
<path id="Vector_105" d="M56.2558 22.5112H52.5115V26.2555H56.2558V22.5112Z" fill="#AB7AF9"/>
<path id="Vector_106" d="M59.9999 22.5112H56.2556V26.2555H59.9999V22.5112Z" fill="#2B1805"/>
<path id="Vector_107" d="M3.74429 26.2556H0V29.9999H3.74429V26.2556Z" fill="#2B1805"/>
<path id="Vector_108" d="M7.48868 26.2556H3.74438V29.9999H7.48868V26.2556Z" fill="#9455F9"/>
<path id="Vector_109" d="M11.2558 26.2556H7.51147V29.9999H11.2558V26.2556Z" fill="#9455F9"/>
<path id="Vector_110" d="M14.9999 26.2556H11.2556V29.9999H14.9999V26.2556Z" fill="#9455F9"/>
<path id="Vector_111" d="M18.7443 26.2556H15V29.9999H18.7443V26.2556Z" fill="#9455F9"/>
<path id="Vector_112" d="M22.4887 26.2556H18.7444V29.9999H22.4887V26.2556Z" fill="#FFFDFF"/>
<path id="Vector_113" d="M26.2555 26.2556H22.5112V29.9999H26.2555V26.2556Z" fill="#FFFDFF"/>
<path id="Vector_114" d="M29.9999 26.2556H26.2556V29.9999H29.9999V26.2556Z" fill="#FFFDFF"/>
<path id="Vector_115" d="M33.7443 26.2556H30V29.9999H33.7443V26.2556Z" fill="#FFFDFF"/>
<path id="Vector_116" d="M37.5114 26.2556H33.7671V29.9999H37.5114V26.2556Z" fill="#9455F9"/>
<path id="Vector_117" d="M41.2558 26.2556H37.5115V29.9999H41.2558V26.2556Z" fill="#9455F9"/>
<path id="Vector_118" d="M44.9999 26.2556H41.2556V29.9999H44.9999V26.2556Z" fill="#9455F9"/>
<path id="Vector_119" d="M48.7672 26.2556H45.0229V29.9999H48.7672V26.2556Z" fill="#9455F9"/>
<path id="Vector_120" d="M52.5114 26.2556H48.7671V29.9999H52.5114V26.2556Z" fill="#9455F9"/>
<path id="Vector_121" d="M56.2558 26.2556H52.5115V29.9999H56.2558V26.2556Z" fill="#AB7AF9"/>
<path id="Vector_122" d="M59.9999 26.2556H56.2556V29.9999H59.9999V26.2556Z" fill="#2B1805"/>
<path id="Vector_123" d="M3.74429 30H0V33.7443H3.74429V30Z" fill="#2B1805"/>
<path id="Vector_124" d="M7.48868 30H3.74438V33.7443H7.48868V30Z" fill="#9455F9"/>
<path id="Vector_125" d="M11.2558 30H7.51147V33.7443H11.2558V30Z" fill="#9455F9"/>
<path id="Vector_126" d="M14.9999 30H11.2556V33.7443H14.9999V30Z" fill="#9455F9"/>
<path id="Vector_127" d="M18.7443 30H15V33.7443H18.7443V30Z" fill="#FFFDFF"/>
<path id="Vector_128" d="M22.4887 30H18.7444V33.7443H22.4887V30Z" fill="#FFFDFF"/>
<path id="Vector_129" d="M26.2555 30H22.5112V33.7443H26.2555V30Z" fill="#FFFDFF"/>
<path id="Vector_130" d="M29.9999 30H26.2556V33.7443H29.9999V30Z" fill="#FFFDFF"/>
<path id="Vector_131" d="M33.7443 30H30V33.7443H33.7443V30Z" fill="#FFFDFF"/>
<path id="Vector_132" d="M37.5114 30H33.7671V33.7443H37.5114V30Z" fill="#9455F9"/>
<path id="Vector_133" d="M41.2558 30H37.5115V33.7443H41.2558V30Z" fill="#9455F9"/>
<path id="Vector_134" d="M44.9999 30H41.2556V33.7443H44.9999V30Z" fill="#9455F9"/>
<path id="Vector_135" d="M48.7672 30H45.0229V33.7443H48.7672V30Z" fill="#9455F9"/>
<path id="Vector_136" d="M52.5114 30H48.7671V33.7443H52.5114V30Z" fill="#9455F9"/>
<path id="Vector_137" d="M56.2558 30H52.5115V33.7443H56.2558V30Z" fill="#AB7AF9"/>
<path id="Vector_138" d="M59.9999 30H56.2556V33.7443H59.9999V30Z" fill="#2B1805"/>
<path id="Vector_139" d="M3.74429 33.7671H0V37.5114H3.74429V33.7671Z" fill="#2B1805"/>
<path id="Vector_140" d="M7.48868 33.7671H3.74438V37.5114H7.48868V33.7671Z" fill="#9455F9"/>
<path id="Vector_141" d="M11.2558 33.7671H7.51147V37.5114H11.2558V33.7671Z" fill="#9455F9"/>
<path id="Vector_142" d="M14.9999 33.7671H11.2556V37.5114H14.9999V33.7671Z" fill="#9455F9"/>
<path id="Vector_143" d="M18.7443 33.7671H15V37.5114H18.7443V33.7671Z" fill="#9455F9"/>
<path id="Vector_144" d="M22.4887 33.7671H18.7444V37.5114H22.4887V33.7671Z" fill="#FFFDFF"/>
<path id="Vector_145" d="M26.2555 33.7671H22.5112V37.5114H26.2555V33.7671Z" fill="#FFFDFF"/>
<path id="Vector_146" d="M29.9999 33.7671H26.2556V37.5114H29.9999V33.7671Z" fill="#FFFDFF"/>
<path id="Vector_147" d="M33.7443 33.7671H30V37.5114H33.7443V33.7671Z" fill="#9455F9"/>
<path id="Vector_148" d="M37.5114 33.7671H33.7671V37.5114H37.5114V33.7671Z" fill="#9455F9"/>
<path id="Vector_149" d="M41.2558 33.7671H37.5115V37.5114H41.2558V33.7671Z" fill="#9455F9"/>
<path id="Vector_150" d="M44.9999 33.7671H41.2556V37.5114H44.9999V33.7671Z" fill="#9455F9"/>
<path id="Vector_151" d="M48.7672 33.7671H45.0229V37.5114H48.7672V33.7671Z" fill="#9455F9"/>
<path id="Vector_152" d="M52.5114 33.7671H48.7671V37.5114H52.5114V33.7671Z" fill="#9455F9"/>
<path id="Vector_153" d="M56.2558 33.7671H52.5115V37.5114H56.2558V33.7671Z" fill="#AB7AF9"/>
<path id="Vector_154" d="M59.9999 33.7671H56.2556V37.5114H59.9999V33.7671Z" fill="#2B1805"/>
<path id="Vector_155" d="M3.74429 37.5115H0V41.2558H3.74429V37.5115Z" fill="#2B1805"/>
<path id="Vector_156" d="M7.48868 37.5115H3.74438V41.2558H7.48868V37.5115Z" fill="#AB7AF9"/>
<path id="Vector_157" d="M11.2558 37.5115H7.51147V41.2558H11.2558V37.5115Z" fill="#9455F9"/>
<path id="Vector_158" d="M14.9999 37.5115H11.2556V41.2558H14.9999V37.5115Z" fill="#9455F9"/>
<path id="Vector_159" d="M18.7443 37.5115H15V41.2558H18.7443V37.5115Z" fill="#9455F9"/>
<path id="Vector_160" d="M22.4887 37.5115H18.7444V41.2558H22.4887V37.5115Z" fill="#9455F9"/>
<path id="Vector_161" d="M26.2555 37.5115H22.5112V41.2558H26.2555V37.5115Z" fill="#9455F9"/>
<path id="Vector_162" d="M29.9999 37.5115H26.2556V41.2558H29.9999V37.5115Z" fill="#9455F9"/>
<path id="Vector_163" d="M33.7443 37.5115H30V41.2558H33.7443V37.5115Z" fill="#9455F9"/>
<path id="Vector_164" d="M37.5114 37.5115H33.7671V41.2558H37.5114V37.5115Z" fill="#9455F9"/>
<path id="Vector_165" d="M41.2558 37.5115H37.5115V41.2558H41.2558V37.5115Z" fill="#9455F9"/>
<path id="Vector_166" d="M44.9999 37.5115H41.2556V41.2558H44.9999V37.5115Z" fill="#9455F9"/>
<path id="Vector_167" d="M48.7672 37.5115H45.0229V41.2558H48.7672V37.5115Z" fill="#9455F9"/>
<path id="Vector_168" d="M52.5114 37.5115H48.7671V41.2558H52.5114V37.5115Z" fill="#AB7AF9"/>
<path id="Vector_169" d="M56.2558 37.5115H52.5115V41.2558H56.2558V37.5115Z" fill="#AB7AF9"/>
<path id="Vector_170" d="M59.9999 37.5115H56.2556V41.2558H59.9999V37.5115Z" fill="#2B1805"/>
<path id="Vector_171" d="M3.74429 41.2556H0V44.9999H3.74429V41.2556Z" fill="#2B1805"/>
<path id="Vector_172" d="M7.48868 41.2556H3.74438V44.9999H7.48868V41.2556Z" fill="#7230D8"/>
<path id="Vector_173" d="M11.2558 41.2556H7.51147V44.9999H11.2558V41.2556Z" fill="#AB7AF9"/>
<path id="Vector_174" d="M14.9999 41.2556H11.2556V44.9999H14.9999V41.2556Z" fill="#AB7AF9"/>
<path id="Vector_175" d="M18.7443 41.2556H15V44.9999H18.7443V41.2556Z" fill="#AB7AF9"/>
<path id="Vector_176" d="M22.4887 41.2556H18.7444V44.9999H22.4887V41.2556Z" fill="#AB7AF9"/>
<path id="Vector_177" d="M26.2555 41.2556H22.5112V44.9999H26.2555V41.2556Z" fill="#AB7AF9"/>
<path id="Vector_178" d="M29.9999 41.2556H26.2556V44.9999H29.9999V41.2556Z" fill="#AB7AF9"/>
<path id="Vector_179" d="M33.7443 41.2556H30V44.9999H33.7443V41.2556Z" fill="#AB7AF9"/>
<path id="Vector_180" d="M37.5114 41.2556H33.7671V44.9999H37.5114V41.2556Z" fill="#AB7AF9"/>
<path id="Vector_181" d="M41.2558 41.2556H37.5115V44.9999H41.2558V41.2556Z" fill="#AB7AF9"/>
<path id="Vector_182" d="M44.9999 41.2556H41.2556V44.9999H44.9999V41.2556Z" fill="#AB7AF9"/>
<path id="Vector_183" d="M48.7672 41.2556H45.0229V44.9999H48.7672V41.2556Z" fill="#AB7AF9"/>
<path id="Vector_184" d="M52.5114 41.2556H48.7671V44.9999H52.5114V41.2556Z" fill="#AB7AF9"/>
<path id="Vector_185" d="M56.2558 41.2556H52.5115V44.9999H56.2558V41.2556Z" fill="#7230D8"/>
<path id="Vector_186" d="M59.9999 41.2556H56.2556V44.9999H59.9999V41.2556Z" fill="#2B1805"/>
<path id="Vector_187" d="M3.74429 45.0229H0V48.7672H3.74429V45.0229Z" fill="#2B1805"/>
<path id="Vector_188" d="M7.48868 45.0229H3.74438V48.7672H7.48868V45.0229Z" fill="#7230D8"/>
<path id="Vector_189" d="M11.2558 45.0229H7.51147V48.7672H11.2558V45.0229Z" fill="#7230D8"/>
<path id="Vector_190" d="M14.9999 45.0229H11.2556V48.7672H14.9999V45.0229Z" fill="#7230D8"/>
<path id="Vector_191" d="M18.7443 45.0229H15V48.7672H18.7443V45.0229Z" fill="#7230D8"/>
<path id="Vector_192" d="M22.4887 45.0229H18.7444V48.7672H22.4887V45.0229Z" fill="#7230D8"/>
<path id="Vector_193" d="M26.2555 45.0229H22.5112V48.7672H26.2555V45.0229Z" fill="#7230D8"/>
<path id="Vector_194" d="M29.9999 45.0229H26.2556V48.7672H29.9999V45.0229Z" fill="#7230D8"/>
<path id="Vector_195" d="M33.7443 45.0229H30V48.7672H33.7443V45.0229Z" fill="#7230D8"/>
<path id="Vector_196" d="M37.5114 45.0229H33.7671V48.7672H37.5114V45.0229Z" fill="#7230D8"/>
<path id="Vector_197" d="M41.2558 45.0229H37.5115V48.7672H41.2558V45.0229Z" fill="#7230D8"/>
<path id="Vector_198" d="M44.9999 45.0229H41.2556V48.7672H44.9999V45.0229Z" fill="#7230D8"/>
<path id="Vector_199" d="M48.7672 45.0229H45.0229V48.7672H48.7672V45.0229Z" fill="#7230D8"/>
<path id="Vector_200" d="M52.5114 45.0229H48.7671V48.7672H52.5114V45.0229Z" fill="#7230D8"/>
<path id="Vector_201" d="M56.2558 45.0229H52.5115V48.7672H56.2558V45.0229Z" fill="#7230D8"/>
<path id="Vector_202" d="M59.9999 45.0229H56.2556V48.7672H59.9999V45.0229Z" fill="#2B1805"/>
<path id="Vector_203" d="M3.74429 48.7671H0V52.5114H3.74429V48.7671Z" fill="#2B1805"/>
<path id="Vector_204" d="M7.48868 48.7671H3.74438V52.5114H7.48868V48.7671Z" fill="#7230D8"/>
<path id="Vector_205" d="M11.2558 48.7671H7.51147V52.5114H11.2558V48.7671Z" fill="#7230D8"/>
<path id="Vector_206" d="M14.9999 48.7671H11.2556V52.5114H14.9999V48.7671Z" fill="#7230D8"/>
<path id="Vector_207" d="M18.7443 48.7671H15V52.5114H18.7443V48.7671Z" fill="#7230D8"/>
<path id="Vector_208" d="M22.4887 48.7671H18.7444V52.5114H22.4887V48.7671Z" fill="#7230D8"/>
<path id="Vector_209" d="M26.2555 48.7671H22.5112V52.5114H26.2555V48.7671Z" fill="#7230D8"/>
<path id="Vector_210" d="M29.9999 48.7671H26.2556V52.5114H29.9999V48.7671Z" fill="#7230D8"/>
<path id="Vector_211" d="M33.7443 48.7671H30V52.5114H33.7443V48.7671Z" fill="#7230D8"/>
<path id="Vector_212" d="M37.5114 48.7671H33.7671V52.5114H37.5114V48.7671Z" fill="#7230D8"/>
<path id="Vector_213" d="M41.2558 48.7671H37.5115V52.5114H41.2558V48.7671Z" fill="#7230D8"/>
<path id="Vector_214" d="M44.9999 48.7671H41.2556V52.5114H44.9999V48.7671Z" fill="#7230D8"/>
<path id="Vector_215" d="M48.7672 48.7671H45.0229V52.5114H48.7672V48.7671Z" fill="#7230D8"/>
<path id="Vector_216" d="M52.5114 48.7671H48.7671V52.5114H52.5114V48.7671Z" fill="#7230D8"/>
<path id="Vector_217" d="M56.2558 48.7671H52.5115V52.5114H56.2558V48.7671Z" fill="#7230D8"/>
<path id="Vector_218" d="M59.9999 48.7671H56.2556V52.5114H59.9999V48.7671Z" fill="#2B1805"/>
<path id="Vector_219" d="M7.48868 52.5115H3.74438V56.2558H7.48868V52.5115Z" fill="#2B1805"/>
<path id="Vector_220" d="M11.2558 52.5115H7.51147V56.2558H11.2558V52.5115Z" fill="#7230D8"/>
<path id="Vector_221" d="M14.9999 52.5115H11.2556V56.2558H14.9999V52.5115Z" fill="#7230D8"/>
<path id="Vector_222" d="M18.7443 52.5115H15V56.2558H18.7443V52.5115Z" fill="#7230D8"/>
<path id="Vector_223" d="M22.4887 52.5115H18.7444V56.2558H22.4887V52.5115Z" fill="#7230D8"/>
<path id="Vector_224" d="M26.2555 52.5115H22.5112V56.2558H26.2555V52.5115Z" fill="#7230D8"/>
<path id="Vector_225" d="M29.9999 52.5115H26.2556V56.2558H29.9999V52.5115Z" fill="#7230D8"/>
<path id="Vector_226" d="M33.7443 52.5115H30V56.2558H33.7443V52.5115Z" fill="#7230D8"/>
<path id="Vector_227" d="M37.5114 52.5115H33.7671V56.2558H37.5114V52.5115Z" fill="#7230D8"/>
<path id="Vector_228" d="M41.2558 52.5115H37.5115V56.2558H41.2558V52.5115Z" fill="#7230D8"/>
<path id="Vector_229" d="M44.9999 52.5115H41.2556V56.2558H44.9999V52.5115Z" fill="#7230D8"/>
<path id="Vector_230" d="M48.7672 52.5115H45.0229V56.2558H48.7672V52.5115Z" fill="#7230D8"/>
<path id="Vector_231" d="M52.5114 52.5115H48.7671V56.2558H52.5114V52.5115Z" fill="#7230D8"/>
<path id="Vector_232" d="M56.2558 52.5115H52.5115V56.2558H56.2558V52.5115Z" fill="#2B1805"/>
<path id="Vector_233" d="M11.2558 56.2556H7.51147V59.9999H11.2558V56.2556Z" fill="#2B1805"/>
<path id="Vector_234" d="M14.9999 56.2556H11.2556V59.9999H14.9999V56.2556Z" fill="#2B1805"/>
<path id="Vector_235" d="M18.7443 56.2556H15V59.9999H18.7443V56.2556Z" fill="#2B1805"/>
<path id="Vector_236" d="M22.4887 56.2556H18.7444V59.9999H22.4887V56.2556Z" fill="#2B1805"/>
<path id="Vector_237" d="M26.2555 56.2556H22.5112V59.9999H26.2555V56.2556Z" fill="#2B1805"/>
<path id="Vector_238" d="M29.9999 56.2556H26.2556V59.9999H29.9999V56.2556Z" fill="#2B1805"/>
<path id="Vector_239" d="M33.7443 56.2556H30V59.9999H33.7443V56.2556Z" fill="#2B1805"/>
<path id="Vector_240" d="M37.5114 56.2556H33.7671V59.9999H37.5114V56.2556Z" fill="#2B1805"/>
<path id="Vector_241" d="M41.2558 56.2556H37.5115V59.9999H41.2558V56.2556Z" fill="#2B1805"/>
<path id="Vector_242" d="M44.9999 56.2556H41.2556V59.9999H44.9999V56.2556Z" fill="#2B1805"/>
<path id="Vector_243" d="M48.7672 56.2556H45.0229V59.9999H48.7672V56.2556Z" fill="#2B1805"/>
<path id="Vector_244" d="M52.5114 56.2556H48.7671V59.9999H52.5114V56.2556Z" fill="#2B1805"/>
</g>
</svg>
